SeanSans-CondensedRegular.ufo
<glyph name="exclam" format="1">
  <advance width="245"/>
  <unicode hex="0021"/>
  <outline>
    <contour>
      <point x="160" y="229" type="line"/>
      <point x="166" y="722" type="line"/>
      <point x="79" y="722" type="line"/>
      <point x="85" y="229" type="line"/>
    </contour>
    <contour>
      <point x="164" y="33" type="curve"/>
      <point x="164" y="60"/>
      <point x="146" y="73"/>
      <point x="122" y="73" type="curve"/>
      <point x="97" y="73"/>
      <point x="81" y="58"/>
      <point x="81" y="33" type="curve"/>
      <point x="164" y="33"/>
      <point x="81" y="33"/>
      <point x="164" y="33" type="curve"/>
      <point x="164" y="6"/>
      <point x="147" y="-7"/>
      <point x="122" y="-7" type="curve"/>
      <point x="97" y="-7"/>
      <point x="81" y="7"/>
      <point x="81" y="33" type="curve"/>
      <point x="164" y="33"/>
      <point x="81" y="33"/>
    </contour>
  </outline>
</glyph>
<glyph name="quotedbl" format="1">
  <advance width="354"/>
  <unicode hex="0022"/>
  <outline>
    <contour>
      <point x="133" y="618" type="line"/>
      <point x="139" y="819" type="line"/>
      <point x="61" y="819" type="line"/>
      <point x="67" y="618" type="line"/>
    </contour>
    <contour>
      <point x="287" y="618" type="line"/>
      <point x="293" y="819" type="line"/>
      <point x="216" y="819" type="line"/>
      <point x="222" y="618" type="line"/>
    </contour>
  </outline>
</glyph>
<glyph name="numbersign" format="1">
  <advance width="528"/>
  <unicode hex="0023"/>
  <outline>
    <contour>
      <point x="41" y="234" type="curve"/>
      <point x="423" y="234" type="curve"/>
      <point x="437" y="294" type="curve"/>
      <point x="56" y="294" type="curve"/>
    </contour>
    <contour>
      <point x="91" y="466" type="curve"/>
      <point x="473" y="466" type="curve"/>
      <point x="488" y="524" type="curve"/>
      <point x="105" y="524" type="curve"/>
    </contour>
    <contour>
      <point x="320" y="39" type="curve"/>
      <point x="477" y="722" type="curve"/>
      <point x="403" y="722" type="curve"/>
      <point x="246" y="39" type="curve"/>
    </contour>
    <contour>
      <point x="129" y="46" type="curve"/>
      <point x="283" y="722" type="curve"/>
      <point x="209" y="722" type="curve"/>
      <point x="58" y="46" type="curve"/>
    </contour>
  </outline>
</glyph>
<glyph name="dollar" format="1">
  <advance width="443"/>
  <unicode hex="0024"/>
  <outline>
    <contour>
      <point x="243" y="-43" type="curve"/>
      <point x="243" y="-10"/>
      <point x="243" y="43"/>
      <point x="243" y="75" type="curve"/>
      <point x="169" y="75"/>
      <point x="243" y="75"/>
      <point x="169" y="75" type="curve"/>
      <point x="169" y="43"/>
      <point x="169" y="-10"/>
      <point x="169" y="-43" type="curve"/>
      <point x="243" y="-43"/>
      <point x="169" y="-43"/>
    </contour>
    <contour>
      <point x="251" y="655" type="curve"/>
      <point x="251" y="687"/>
      <point x="251" y="741"/>
      <point x="251" y="773" type="curve"/>
      <point x="177" y="773"/>
      <point x="251" y="773"/>
      <point x="177" y="773" type="curve"/>
      <point x="177" y="741"/>
      <point x="177" y="687"/>
      <point x="177" y="655" type="curve"/>
      <point x="251" y="655"/>
      <point x="177" y="655"/>
    </contour>
    <contour>
      <point x="49" y="96" type="curve"/>
      <point x="90" y="69"/>
      <point x="142" y="45"/>
      <point x="203" y="45" type="curve"/>
      <point x="317" y="45"/>
      <point x="398" y="111"/>
      <point x="398" y="208" type="curve"/>
      <point x="398" y="296"/>
      <point x="325" y="352"/>
      <point x="238" y="401" type="curve"/>
      <point x="175" y="437"/>
      <point x="128" y="470"/>
      <point x="128" y="533" type="curve"/>
      <point x="128" y="585"/>
      <point x="161" y="627"/>
      <point x="217" y="627" type="curve"/>
      <point x="265" y="627"/>
      <point x="296" y="610"/>
      <point x="335" y="583" type="curve"/>
      <point x="372" y="633"/>
      <point x="335" y="583"/>
      <point x="372" y="633" type="curve"/>
      <point x="323" y="667"/>
      <point x="281" y="685"/>
      <point x="220" y="685" type="curve"/>
      <point x="119" y="685"/>
      <point x="54" y="622"/>
      <point x="54" y="533" type="curve"/>
      <point x="54" y="446"/>
      <point x="110" y="394"/>
      <point x="194" y="347" type="curve"/>
      <point x="262" y="311"/>
      <point x="324" y="273"/>
      <point x="324" y="205" type="curve"/>
      <point x="324" y="145"/>
      <point x="277" y="104"/>
      <point x="209" y="104" type="curve"/>
      <point x="161" y="104"/>
      <point x="122" y="128"/>
      <point x="89" y="148" type="curve"/>
      <point x="49" y="96"/>
      <point x="89" y="148"/>
    </contour>
  </outline>
</glyph>
<glyph name="percent" format="1">
  <advance width="824"/>
  <unicode hex="0025"/>
  <outline>
    <contour>
      <point x="297" y="-69" type="line"/>
      <point x="605" y="736" type="line"/>
      <point x="534" y="736" type="line"/>
      <point x="227" y="-69" type="line"/>
    </contour>
    <contour>
      <point x="99" y="530" type="curve"/>
      <point x="99" y="616"/>
      <point x="113" y="687"/>
      <point x="187" y="687" type="curve"/>
      <point x="261" y="688"/>
      <point x="276" y="616"/>
      <point x="276" y="530" type="curve"/>
      <point x="276" y="444"/>
      <point x="265" y="370"/>
      <point x="191" y="370" type="curve"/>
      <point x="115" y="370"/>
      <point x="99" y="442"/>
      <point x="99" y="530" type="curve"/>
      <point x="75" y="530"/>
      <point x="59" y="530"/>
      <point x="35" y="530" type="curve"/>
      <point x="35" y="409"/>
      <point x="78" y="316"/>
      <point x="188" y="316" type="curve"/>
      <point x="299" y="316"/>
      <point x="342" y="410"/>
      <point x="342" y="533" type="curve"/>
      <point x="342" y="652"/>
      <point x="299" y="742"/>
      <point x="190" y="741" type="curve"/>
      <point x="79" y="741"/>
      <point x="35" y="650"/>
      <point x="35" y="530" type="curve"/>
      <point x="59" y="530"/>
      <point x="75" y="530"/>
    </contour>
    <contour>
      <point x="545" y="142" type="curve"/>
      <point x="545" y="227"/>
      <point x="559" y="299"/>
      <point x="633" y="299" type="curve"/>
      <point x="708" y="300"/>
      <point x="722" y="228"/>
      <point x="722" y="142" type="curve"/>
      <point x="722" y="56"/>
      <point x="712" y="-18"/>
      <point x="638" y="-18" type="curve"/>
      <point x="561" y="-18"/>
      <point x="545" y="54"/>
      <point x="545" y="142" type="curve"/>
      <point x="522" y="142"/>
      <point x="506" y="142"/>
      <point x="482" y="142" type="curve"/>
      <point x="482" y="21"/>
      <point x="524" y="-72"/>
      <point x="634" y="-72" type="curve"/>
      <point x="746" y="-72"/>
      <point x="789" y="22"/>
      <point x="789" y="144" type="curve"/>
      <point x="789" y="263"/>
      <point x="746" y="354"/>
      <point x="637" y="353" type="curve"/>
      <point x="526" y="353"/>
      <point x="482" y="262"/>
      <point x="482" y="142" type="curve"/>
      <point x="506" y="142"/>
      <point x="522" y="142"/>
    </contour>
  </outline>
</glyph>
<glyph name="ampersand" format="1">
  <advance width="541"/>
  <unicode hex="0026"/>
  <outline>
    <contour>
      <point x="520" y="22" type="line"/>
      <point x="442" y="129"/>
      <point x="360" y="252"/>
      <point x="279" y="361" type="curve"/>
      <point x="235" y="427"/>
      <point x="178" y="484"/>
      <point x="178" y="565" type="curve"/>
      <point x="178" y="619"/>
      <point x="194" y="667"/>
      <point x="239" y="667" type="curve"/>
      <point x="286" y="667"/>
      <point x="303" y="622"/>
      <point x="303" y="567" type="curve"/>
      <point x="303" y="494"/>
      <point x="262" y="447"/>
      <point x="203" y="402" type="curve"/>
      <point x="123" y="341"/>
      <point x="59" y="286"/>
      <point x="59" y="187" type="curve"/>
      <point x="59" y="76"/>
      <point x="125" y="-5"/>
      <point x="233" y="-5" type="curve"/>
      <point x="397" y="-5"/>
      <point x="457" y="144"/>
      <point x="497" y="315" type="curve"/>
      <point x="433" y="330"/>
      <point x="497" y="315"/>
      <point x="433" y="330" type="curve"/>
      <point x="400" y="189"/>
      <point x="364" y="55"/>
      <point x="236" y="55" type="curve"/>
      <point x="169" y="55"/>
      <point x="134" y="113"/>
      <point x="134" y="187" type="curve"/>
      <point x="134" y="262"/>
      <point x="177" y="307"/>
      <point x="236" y="353" type="curve"/>
      <point x="314" y="413"/>
      <point x="377" y="470"/>
      <point x="378" y="568" type="curve"/>
      <point x="378" y="660"/>
      <point x="328" y="727"/>
      <point x="241" y="727" type="curve"/>
      <point x="155" y="727"/>
      <point x="108" y="657"/>
      <point x="108" y="565" type="curve"/>
      <point x="108" y="469"/>
      <point x="169" y="403"/>
      <point x="226" y="326" type="curve"/>
      <point x="303" y="218"/>
      <point x="390" y="91"/>
      <point x="465" y="-13" type="curve"/>
    </contour>
  </outline>
</glyph>
<glyph name="quotesingle" format="1">
  <advance width="200"/>
  <unicode hex="0027"/>
  <outline>
    <contour>
      <point x="133" y="618" type="line"/>
      <point x="139" y="819" type="line"/>
      <point x="61" y="819" type="line"/>
      <point x="67" y="618" type="line"/>
    </contour>
  </outline>
</glyph>
<glyph name="parenright" format="1">
  <advance width="295"/>
  <unicode hex="0029"/>
  <outline>
    <contour>
      <point x="46" y="-279" type="curve"/>
      <point x="187" y="-80"/>
      <point x="246" y="84"/>
      <point x="246" y="328" type="curve"/>
      <point x="246" y="565"/>
      <point x="194" y="728"/>
      <point x="49" y="916" type="curve"/>
      <point x="4" y="876"/>
      <point x="49" y="916"/>
      <point x="4" y="876" type="curve"/>
      <point x="135" y="698"/>
      <point x="172" y="544"/>
      <point x="172" y="325" type="curve"/>
      <point x="172" y="102"/>
      <point x="126" y="-55"/>
      <point x="0" y="-240" type="curve"/>
      <point x="46" y="-279"/>
      <point x="0" y="-240"/>
    </contour>
  </outline>
</glyph>
<glyph name="asterisk" format="1">
  <advance width="607"/>
  <unicode hex="002A"/>
  <outline>
    <contour>
      <point x="328" y="578" type="line"/>
      <point x="333" y="779" type="line"/>
      <point x="274" y="779" type="line"/>
      <point x="278" y="578" type="line"/>
    </contour>
    <contour>
      <point x="354" y="523" type="line"/>
      <point x="545" y="584" type="line"/>
      <point x="526" y="640" type="line"/>
      <point x="338" y="571" type="line"/>
    </contour>
    <contour>
      <point x="310" y="482" type="line"/>
      <point x="430" y="320" type="line"/>
      <point x="476" y="357" type="line"/>
      <point x="349" y="513" type="line"/>
    </contour>
    <contour>
      <point x="258" y="513" type="line"/>
      <point x="131" y="357" type="line"/>
      <point x="177" y="321" type="line"/>
      <point x="296" y="482" type="line"/>
    </contour>
    <contour>
      <point x="269" y="571" type="line"/>
      <point x="81" y="640" type="line"/>
      <point x="61" y="584" type="line"/>
      <point x="252" y="523" type="line"/>
    </contour>
  </outline>
</glyph>
<glyph name="plus" format="1">
  <advance width="581"/>
  <unicode hex="002B"/>
  <outline>
    <contour>
      <point x="41" y="279" type="curve"/>
      <point x="540" y="279" type="line"/>
      <point x="540" y="344"/>
      <point x="540" y="279"/>
      <point x="540" y="344" type="curve"/>
      <point x="41" y="344" type="line"/>
      <point x="41" y="279"/>
      <point x="41" y="344"/>
    </contour>
    <contour>
      <point x="325" y="35" type="curve"/>
      <point x="325" y="584" type="line"/>
      <point x="251" y="584"/>
      <point x="330" y="584"/>
      <point x="256" y="584" type="curve"/>
      <point x="256" y="35" type="line"/>
      <point x="330" y="35"/>
      <point x="251" y="35"/>
    </contour>
  </outline>
</glyph>
<glyph name="comma" format="1">
  <advance width="161"/>
  <unicode hex="002C"/>
  <outline>
    <contour>
      <point x="24" y="-109" type="line"/>
      <point x="78" y="-95"/>
      <point x="116" y="-50"/>
      <point x="116" y="22" type="curve"/>
      <point x="116" y="71"/>
      <point x="100" y="100"/>
      <point x="70" y="100" type="curve"/>
      <point x="44" y="100"/>
      <point x="28" y="86"/>
      <point x="28" y="60" type="curve"/>
      <point x="28" y="38"/>
      <point x="39" y="22"/>
      <point x="62" y="19" type="curve"/>
      <point x="62" y="-5"/>
      <point x="55" y="-48"/>
      <point x="14" y="-67" type="curve"/>
    </contour>
  </outline>
</glyph>
<glyph name="hyphen" format="1">
  <advance width="356"/>
  <unicode hex="002D"/>
  <outline>
    <contour>
      <point x="73" y="244" type="curve"/>
      <point x="143" y="244"/>
      <point x="213" y="244"/>
      <point x="283" y="244" type="curve"/>
      <point x="283" y="309"/>
      <point x="283" y="244"/>
      <point x="283" y="309" type="curve"/>
      <point x="213" y="309"/>
      <point x="143" y="309"/>
      <point x="73" y="309" type="curve"/>
      <point x="73" y="244"/>
      <point x="73" y="309"/>
    </contour>
  </outline>
</glyph>
<glyph name="period" format="1">
  <advance width="206"/>
  <unicode hex="002E"/>
  <outline>
    <contour>
      <point x="144" y="33" type="curve"/>
      <point x="144" y="60"/>
      <point x="127" y="73"/>
      <point x="102" y="73" type="curve"/>
      <point x="78" y="73"/>
      <point x="62" y="58"/>
      <point x="62" y="33" type="curve"/>
      <point x="144" y="33"/>
      <point x="62" y="33"/>
      <point x="144" y="33" type="curve"/>
      <point x="144" y="6"/>
      <point x="127" y="-7"/>
      <point x="102" y="-7" type="curve"/>
      <point x="77" y="-7"/>
      <point x="62" y="7"/>
      <point x="62" y="33" type="curve"/>
      <point x="144" y="33"/>
      <point x="62" y="33"/>
    </contour>
  </outline>
</glyph>
<glyph name="slash" format="1">
  <advance width="431"/>
  <unicode hex="002F"/>
  <outline>
    <contour>
      <point x="100" y="-44" type="curve"/>
      <point x="202" y="243"/>
      <point x="304" y="530"/>
      <point x="406" y="817" type="curve"/>
      <point x="332" y="817"/>
      <point x="406" y="817"/>
      <point x="332" y="817" type="curve"/>
      <point x="230" y="530"/>
      <point x="128" y="243"/>
      <point x="25" y="-44" type="curve"/>
      <point x="100" y="-44"/>
      <point x="25" y="-44"/>
    </contour>
  </outline>
</glyph>
<glyph name="zero" format="1">
  <advance width="563"/>
  <unicode hex="0030"/>
  <outline>
    <contour>
      <point x="133" y="360" type="curve"/>
      <point x="133" y="525"/>
      <point x="151" y="665"/>
      <point x="280" y="665" type="curve"/>
      <point x="411" y="665"/>
      <point x="431" y="527"/>
      <point x="431" y="363" type="curve"/>
      <point x="431" y="198"/>
      <point x="411" y="57"/>
      <point x="286" y="57" type="curve"/>
      <point x="158" y="57"/>
      <point x="133" y="195"/>
      <point x="133" y="360" type="curve"/>
      <point x="61" y="360"/>
      <point x="132" y="360"/>
      <point x="60" y="360" type="curve"/>
      <point x="60" y="156"/>
      <point x="107" y="-5"/>
      <point x="282" y="-5" type="curve"/>
      <point x="459" y="-5"/>
      <point x="504" y="157"/>
      <point x="504" y="363" type="curve"/>
      <point x="504" y="566"/>
      <point x="460" y="727"/>
      <point x="287" y="727" type="curve"/>
      <point x="109" y="727"/>
      <point x="60" y="566"/>
      <point x="60" y="360" type="curve"/>
      <point x="132" y="360"/>
      <point x="61" y="360"/>
    </contour>
  </outline>
</glyph>
<glyph name="two" format="1">
  <advance width="443"/>
  <unicode hex="0032"/>
  <outline>
    <contour>
      <point x="42" y="0" type="curve"/>
      <point x="178" y="0"/>
      <point x="290" y="0"/>
      <point x="392" y="0" type="curve"/>
      <point x="392" y="59"/>
      <point x="392" y="0"/>
      <point x="392" y="59" type="curve"/>
      <point x="279" y="59"/>
      <point x="156" y="59"/>
      <point x="42" y="59" type="curve"/>
      <point x="42" y="0"/>
      <point x="42" y="59"/>
    </contour>
    <contour>
      <point x="101" y="544" type="curve"/>
      <point x="130" y="609"/>
      <point x="153" y="665"/>
      <point x="219" y="665" type="curve"/>
      <point x="291" y="665"/>
      <point x="314" y="601"/>
      <point x="314" y="516" type="curve"/>
      <point x="314" y="408"/>
      <point x="251" y="315"/>
      <point x="202" y="256" type="curve"/>
      <point x="149" y="189"/>
      <point x="97" y="126"/>
      <point x="42" y="59" type="curve"/>
      <point x="48" y="0"/>
      <point x="42" y="59"/>
      <point x="48" y="0" type="curve"/>
      <point x="135" y="65"/>
      <point x="193" y="141"/>
      <point x="250" y="212" type="curve"/>
      <point x="314" y="286"/>
      <point x="386" y="389"/>
      <point x="386" y="519" type="curve"/>
      <point x="386" y="642"/>
      <point x="336" y="727"/>
      <point x="222" y="727" type="curve"/>
      <point x="131" y="727"/>
      <point x="80" y="662"/>
      <point x="47" y="574" type="curve"/>
      <point x="101" y="544"/>
      <point x="47" y="574"/>
    </contour>
  </outline>
</glyph>
<glyph name="three" format="1">
  <advance width="441"/>
  <unicode hex="0033"/>
  <outline>
    <contour>
      <point x="47" y="58" type="curve"/>
      <point x="93" y="20"/>
      <point x="131" y="-5"/>
      <point x="191" y="-5" type="curve"/>
      <point x="316" y="-5"/>
      <point x="384" y="71"/>
      <point x="384" y="201" type="curve"/>
      <point x="384" y="324"/>
      <point x="282" y="398"/>
      <point x="129" y="398" type="curve"/>
      <point x="129" y="355"/>
      <point x="129" y="391"/>
      <point x="129" y="348" type="curve"/>
      <point x="237" y="348"/>
      <point x="312" y="289"/>
      <point x="312" y="198" type="curve"/>
      <point x="312" y="113"/>
      <point x="266" y="57"/>
      <point x="194" y="57" type="curve"/>
      <point x="151" y="57"/>
      <point x="122" y="74"/>
      <point x="87" y="102" type="curve"/>
      <point x="47" y="58"/>
      <point x="87" y="102"/>
    </contour>
    <contour>
      <point x="98" y="600" type="curve"/>
      <point x="114" y="628"/>
      <point x="146" y="665"/>
      <point x="190" y="665" type="curve"/>
      <point x="257" y="665"/>
      <point x="288" y="615"/>
      <point x="288" y="540" type="curve"/>
      <point x="288" y="460"/>
      <point x="223" y="408"/>
      <point x="129" y="408" type="curve"/>
      <point x="129" y="365"/>
      <point x="129" y="401"/>
      <point x="129" y="358" type="curve"/>
      <point x="264" y="358"/>
      <point x="359" y="426"/>
      <point x="359" y="542" type="curve"/>
      <point x="359" y="654"/>
      <point x="302" y="727"/>
      <point x="196" y="727" type="curve"/>
      <point x="129" y="727"/>
      <point x="75" y="682"/>
      <point x="50" y="636" type="curve"/>
      <point x="98" y="600"/>
      <point x="50" y="636"/>
    </contour>
  </outline>
</glyph>
<glyph name="four" format="1">
  <advance width="464"/>
  <unicode hex="0034"/>
  <outline>
    <contour>
      <point x="56" y="265" type="line"/>
      <point x="313" y="710" type="line"/>
      <point x="250" y="711" type="line"/>
      <point x="20" y="313" type="line"/>
    </contour>
    <contour>
      <point x="427" y="313" type="line"/>
      <point x="20" y="313" type="line"/>
      <point x="21" y="249" type="line"/>
      <point x="427" y="249" type="line"/>
    </contour>
    <contour>
      <point x="324" y="0" type="line"/>
      <point x="324" y="711" type="line"/>
      <point x="251" y="711" type="line"/>
      <point x="251" y="0" type="line"/>
    </contour>
  </outline>
</glyph>
<glyph name="five" format="1">
  <advance width="430"/>
  <unicode hex="0035"/>
  <outline>
    <contour>
      <point x="74" y="722" type="curve"/>
      <point x="74" y="622"/>
      <point x="74" y="516"/>
      <point x="74" y="394" type="curve"/>
      <point x="145" y="370"/>
      <point x="74" y="394"/>
      <point x="145" y="370" type="curve"/>
      <point x="145" y="467"/>
      <point x="145" y="567"/>
      <point x="145" y="663" type="curve"/>
      <point x="74" y="722"/>
      <point x="145" y="663"/>
    </contour>
    <contour>
      <point x="145" y="370" type="curve"/>
      <point x="156" y="381"/>
      <point x="181" y="393"/>
      <point x="206" y="393" type="curve"/>
      <point x="283" y="393"/>
      <point x="307" y="318"/>
      <point x="307" y="231" type="curve"/>
      <point x="307" y="140"/>
      <point x="273" y="57"/>
      <point x="194" y="57" type="curve"/>
      <point x="151" y="57"/>
      <point x="124" y="70"/>
      <point x="87" y="96" type="curve"/>
      <point x="49" y="44"/>
      <point x="87" y="96"/>
      <point x="49" y="44" type="curve"/>
      <point x="89" y="13"/>
      <point x="139" y="-5"/>
      <point x="197" y="-5" type="curve"/>
      <point x="314" y="-5"/>
      <point x="379" y="101"/>
      <point x="379" y="232" type="curve"/>
      <point x="379" y="355"/>
      <point x="328" y="456"/>
      <point x="216" y="456" type="curve"/>
      <point x="171" y="456"/>
      <point x="127" y="439"/>
      <point x="90" y="394" type="curve"/>
      <point x="146" y="375"/>
      <point x="88" y="390"/>
    </contour>
    <contour>
      <point x="357" y="722" type="curve"/>
      <point x="266" y="722"/>
      <point x="165" y="722"/>
      <point x="74" y="722" type="curve"/>
      <point x="145" y="663"/>
      <point x="74" y="722"/>
      <point x="145" y="663" type="curve"/>
      <point x="212" y="663"/>
      <point x="290" y="663"/>
      <point x="357" y="663" type="curve"/>
      <point x="357" y="722"/>
      <point x="357" y="663"/>
    </contour>
  </outline>
</glyph>
<glyph name="six" format="1">
  <advance width="477"/>
  <unicode hex="0036"/>
  <outline>
    <contour>
      <point x="117" y="221" type="curve"/>
      <point x="131" y="292"/>
      <point x="172" y="365"/>
      <point x="247" y="365" type="curve"/>
      <point x="325" y="365"/>
      <point x="351" y="299"/>
      <point x="351" y="212" type="curve"/>
      <point x="351" y="135"/>
      <point x="324" y="61"/>
      <point x="251" y="61" type="curve"/>
      <point x="159" y="61"/>
      <point x="128" y="144"/>
      <point x="128" y="250" type="curve"/>
      <point x="128" y="456"/>
      <point x="225" y="603"/>
      <point x="416" y="677" type="curve"/>
      <point x="394" y="731"/>
      <point x="416" y="677"/>
      <point x="394" y="731" type="curve"/>
      <point x="177" y="651"/>
      <point x="56" y="489"/>
      <point x="56" y="246" type="curve"/>
      <point x="56" y="100"/>
      <point x="115" y="-8"/>
      <point x="250" y="-8" type="curve"/>
      <point x="369" y="-8"/>
      <point x="426" y="85"/>
      <point x="426" y="213" type="curve"/>
      <point x="426" y="338"/>
      <point x="372" y="427"/>
      <point x="259" y="427" type="curve"/>
      <point x="150" y="427"/>
      <point x="91" y="327"/>
      <point x="79" y="239" type="curve"/>
      <point x="116" y="221"/>
      <point x="80" y="239"/>
    </contour>
  </outline>
</glyph>
<glyph name="seven" format="1">
  <advance width="418"/>
  <unicode hex="0037"/>
  <outline>
    <contour>
      <point x="41" y="663" type="curve"/>
      <point x="402" y="663" type="curve"/>
      <point x="402" y="722" type="curve"/>
      <point x="41" y="722" type="curve"/>
    </contour>
    <contour>
      <point x="354" y="722" type="curve"/>
      <point x="51" y="0" type="curve"/>
      <point x="130" y="0" type="curve"/>
      <point x="402" y="663" type="curve"/>
    </contour>
  </outline>
</glyph>
<glyph name="eight" format="1">
  <advance width="472"/>
  <unicode hex="0038"/>
  <outline>
    <contour>
      <point x="74" y="553" type="curve"/>
      <point x="74" y="455"/>
      <point x="131" y="410"/>
      <point x="214" y="356" type="curve"/>
      <point x="289" y="307"/>
      <point x="339" y="262"/>
      <point x="339" y="179" type="curve"/>
      <point x="339" y="107"/>
      <point x="306" y="57"/>
      <point x="236" y="57" type="curve"/>
      <point x="165" y="57"/>
      <point x="133" y="106"/>
      <point x="133" y="179" type="curve"/>
      <point x="133" y="264"/>
      <point x="184" y="305"/>
      <point x="259" y="356" type="curve"/>
      <point x="339" y="410"/>
      <point x="397" y="455"/>
      <point x="397" y="551" type="curve"/>
      <point x="397" y="660"/>
      <point x="344" y="727"/>
      <point x="236" y="727" type="curve"/>
      <point x="130" y="727"/>
      <point x="74" y="659"/>
      <point x="74" y="553" type="curve"/>
      <point x="146" y="553"/>
      <point x="74" y="553"/>
      <point x="146" y="553" type="curve"/>
      <point x="146" y="617"/>
      <point x="171" y="665"/>
      <point x="233" y="665" type="curve"/>
      <point x="298" y="665"/>
      <point x="325" y="619"/>
      <point x="325" y="551" type="curve"/>
      <point x="325" y="479"/>
      <point x="279" y="441"/>
      <point x="214" y="399" type="curve"/>
      <point x="122" y="338"/>
      <point x="60" y="288"/>
      <point x="60" y="179" type="curve"/>
      <point x="60" y="65"/>
      <point x="120" y="-5"/>
      <point x="232" y="-5" type="curve"/>
      <point x="346" y="-5"/>
      <point x="411" y="63"/>
      <point x="411" y="179" type="curve"/>
      <point x="411" y="287"/>
      <point x="350" y="340"/>
      <point x="260" y="400" type="curve"/>
      <point x="194" y="444"/>
      <point x="146" y="479"/>
      <point x="146" y="553" type="curve"/>
      <point x="74" y="553"/>
      <point x="146" y="553"/>
    </contour>
  </outline>
</glyph>
<glyph name="nine" format="1">
  <advance width="475"/>
  <unicode hex="0039"/>
  <outline>
    <contour>
      <point x="363" y="483" type="curve"/>
      <point x="341" y="415"/>
      <point x="306" y="357"/>
      <point x="230" y="357" type="curve"/>
      <point x="152" y="357"/>
      <point x="122" y="425"/>
      <point x="122" y="512" type="curve"/>
      <point x="122" y="595"/>
      <point x="151" y="661"/>
      <point x="223" y="661" type="curve"/>
      <point x="316" y="661"/>
      <point x="347" y="577"/>
      <point x="347" y="472" type="curve"/>
      <point x="347" y="266"/>
      <point x="260" y="124"/>
      <point x="67" y="44" type="curve"/>
      <point x="96" y="-15"/>
      <point x="67" y="44"/>
      <point x="96" y="-15" type="curve"/>
      <point x="306" y="70"/>
      <point x="418" y="233"/>
      <point x="418" y="476" type="curve"/>
      <point x="418" y="622"/>
      <point x="361" y="730"/>
      <point x="225" y="730" type="curve"/>
      <point x="106" y="730"/>
      <point x="50" y="637"/>
      <point x="50" y="509" type="curve"/>
      <point x="50" y="384"/>
      <point x="106" y="295"/>
      <point x="223" y="295" type="curve"/>
      <point x="326" y="295"/>
      <point x="372" y="381"/>
      <point x="400" y="467" type="curve"/>
      <point x="363" y="483"/>
      <point x="400" y="467"/>
    </contour>
  </outline>
</glyph>
<glyph name="colon" format="1">
  <advance width="223"/>
  <unicode hex="003A"/>
  <outline>
    <contour>
      <point x="150" y="397" type="curve"/>
      <point x="150" y="424"/>
      <point x="133" y="437"/>
      <point x="108" y="437" type="curve"/>
      <point x="84" y="437"/>
      <point x="68" y="422"/>
      <point x="68" y="397" type="curve"/>
      <point x="150" y="397"/>
      <point x="68" y="397"/>
      <point x="150" y="397" type="curve"/>
      <point x="150" y="370"/>
      <point x="133" y="357"/>
      <point x="108" y="357" type="curve"/>
      <point x="83" y="357"/>
      <point x="68" y="371"/>
      <point x="68" y="397" type="curve"/>
      <point x="150" y="397"/>
      <point x="68" y="397"/>
    </contour>
    <contour>
      <point x="150" y="35" type="curve"/>
      <point x="150" y="62"/>
      <point x="133" y="75"/>
      <point x="108" y="75" type="curve"/>
      <point x="84" y="75"/>
      <point x="68" y="60"/>
      <point x="68" y="35" type="curve"/>
      <point x="150" y="35"/>
      <point x="68" y="35"/>
      <point x="150" y="35" type="curve"/>
      <point x="150" y="8"/>
      <point x="133" y="-4"/>
      <point x="108" y="-4" type="curve"/>
      <point x="83" y="-4"/>
      <point x="68" y="9"/>
      <point x="68" y="35" type="curve"/>
      <point x="150" y="35"/>
      <point x="68" y="35"/>
    </contour>
  </outline>
</glyph>
<glyph name="semicolon" format="1">
  <advance width="184"/>
  <unicode hex="003B"/>
  <outline>
    <contour>
      <point x="33" y="-150" type="line"/>
      <point x="92" y="-136"/>
      <point x="132" y="-91"/>
      <point x="132" y="-19" type="curve"/>
      <point x="132" y="30"/>
      <point x="115" y="59"/>
      <point x="83" y="59" type="curve"/>
      <point x="55" y="59"/>
      <point x="37" y="45"/>
      <point x="37" y="19" type="curve"/>
      <point x="37" y="-3"/>
      <point x="49" y="-19"/>
      <point x="74" y="-22" type="curve"/>
      <point x="74" y="-45"/>
      <point x="67" y="-89"/>
      <point x="24" y="-107" type="curve"/>
    </contour>
    <contour>
      <point x="124" y="406" type="curve"/>
      <point x="124" y="433"/>
      <point x="107" y="446"/>
      <point x="82" y="446" type="curve"/>
      <point x="58" y="446"/>
      <point x="42" y="431"/>
      <point x="42" y="406" type="curve"/>
      <point x="124" y="406"/>
      <point x="42" y="406"/>
      <point x="124" y="406" type="curve"/>
      <point x="124" y="379"/>
      <point x="107" y="366"/>
      <point x="82" y="366" type="curve"/>
      <point x="57" y="366"/>
      <point x="42" y="380"/>
      <point x="42" y="406" type="curve"/>
      <point x="124" y="406"/>
      <point x="42" y="406"/>
    </contour>
  </outline>
</glyph>
<glyph name="less" format="1">
  <advance width="532"/>
  <unicode hex="003C"/>
  <outline>
    <contour>
      <point x="473" y="603" type="curve"/>
      <point x="327" y="513"/>
      <point x="180" y="423"/>
      <point x="34" y="333" type="curve"/>
      <point x="34" y="267"/>
      <point x="34" y="333"/>
      <point x="34" y="267" type="curve"/>
      <point x="180" y="357"/>
      <point x="327" y="447"/>
      <point x="473" y="537" type="curve"/>
      <point x="473" y="603"/>
      <point x="473" y="537"/>
    </contour>
    <contour>
      <point x="480" y="69" type="curve"/>
      <point x="331" y="157"/>
      <point x="182" y="245"/>
      <point x="34" y="333" type="curve"/>
      <point x="34" y="267"/>
      <point x="34" y="333"/>
      <point x="34" y="267" type="curve"/>
      <point x="182" y="179"/>
      <point x="331" y="91"/>
      <point x="480" y="3" type="curve"/>
      <point x="480" y="69"/>
      <point x="480" y="3"/>
    </contour>
  </outline>
</glyph>
<glyph name="equal" format="1">
  <advance width="560"/>
  <unicode hex="003D"/>
  <outline>
    <contour>
      <point x="61" y="186" type="curve"/>
      <point x="211" y="186"/>
      <point x="362" y="186"/>
      <point x="514" y="186" type="curve"/>
      <point x="514" y="249"/>
      <point x="514" y="186"/>
      <point x="514" y="249" type="curve"/>
      <point x="362" y="249"/>
      <point x="211" y="249"/>
      <point x="61" y="249" type="curve"/>
      <point x="61" y="186"/>
      <point x="61" y="249"/>
    </contour>
    <contour>
      <point x="61" y="408" type="curve"/>
      <point x="211" y="408"/>
      <point x="362" y="408"/>
      <point x="514" y="408" type="curve"/>
      <point x="514" y="471"/>
      <point x="514" y="408"/>
      <point x="514" y="471" type="curve"/>
      <point x="362" y="471"/>
      <point x="211" y="471"/>
      <point x="61" y="471" type="curve"/>
      <point x="61" y="408"/>
      <point x="61" y="471"/>
    </contour>
  </outline>
</glyph>
<glyph name="greater" format="1">
  <advance width="532"/>
  <unicode hex="003E"/>
  <outline>
    <contour>
      <point x="58" y="3" type="curve"/>
      <point x="205" y="93"/>
      <point x="351" y="183"/>
      <point x="497" y="273" type="curve"/>
      <point x="497" y="339"/>
      <point x="497" y="273"/>
      <point x="497" y="339" type="curve"/>
      <point x="351" y="249"/>
      <point x="205" y="159"/>
      <point x="58" y="69" type="curve"/>
      <point x="58" y="3"/>
      <point x="58" y="69"/>
    </contour>
    <contour>
      <point x="51" y="537" type="curve"/>
      <point x="200" y="449"/>
      <point x="349" y="361"/>
      <point x="497" y="273" type="curve"/>
      <point x="497" y="339"/>
      <point x="497" y="273"/>
      <point x="497" y="339" type="curve"/>
      <point x="349" y="427"/>
      <point x="200" y="515"/>
      <point x="51" y="603" type="curve"/>
      <point x="51" y="537"/>
      <point x="51" y="603"/>
    </contour>
  </outline>
</glyph>
<glyph name="question" format="1">
  <advance width="426"/>
  <unicode hex="003F"/>
  <outline>
    <contour>
      <point x="168" y="353" type="curve"/>
      <point x="168" y="316"/>
      <point x="168" y="258"/>
      <point x="168" y="221" type="curve"/>
      <point x="237" y="221"/>
      <point x="168" y="221"/>
      <point x="237" y="221" type="curve"/>
      <point x="237" y="258"/>
      <point x="237" y="316"/>
      <point x="237" y="353" type="curve"/>
      <point x="168" y="353"/>
      <point x="237" y="353"/>
    </contour>
    <contour>
      <point x="91" y="604" type="line"/>
      <point x="116" y="639"/>
      <point x="146" y="665"/>
      <point x="194" y="665" type="curve"/>
      <point x="271" y="665"/>
      <point x="306" y="601"/>
      <point x="306" y="519" type="curve"/>
      <point x="306" y="426"/>
      <point x="264" y="353"/>
      <point x="177" y="353" type="curve"/>
      <point x="177" y="324"/>
      <point x="176" y="325"/>
      <point x="176" y="295" type="curve"/>
      <point x="305" y="295"/>
      <point x="378" y="388"/>
      <point x="378" y="519" type="curve"/>
      <point x="378" y="641"/>
      <point x="312" y="728"/>
      <point x="198" y="728" type="curve"/>
      <point x="127" y="728"/>
      <point x="82" y="697"/>
      <point x="49" y="649" type="curve"/>
    </contour>
    <contour>
      <point x="244" y="33" type="curve"/>
      <point x="244" y="60"/>
      <point x="226" y="73"/>
      <point x="202" y="73" type="curve"/>
      <point x="177" y="73"/>
      <point x="161" y="58"/>
      <point x="161" y="33" type="curve"/>
      <point x="244" y="33"/>
      <point x="161" y="33"/>
      <point x="244" y="33" type="curve"/>
      <point x="244" y="6"/>
      <point x="227" y="-7"/>
      <point x="202" y="-7" type="curve"/>
      <point x="177" y="-7"/>
      <point x="161" y="7"/>
      <point x="161" y="33" type="curve"/>
      <point x="244" y="33"/>
      <point x="161" y="33"/>
    </contour>
  </outline>
</glyph>
<glyph name="at" format="1">
  <advance width="662"/>
  <unicode hex="0040"/>
  <outline>
    <contour>
      <point x="443" y="-62" type="curve"/>
      <point x="410" y="-86"/>
      <point x="383" y="-95"/>
      <point x="342" y="-95" type="curve"/>
      <point x="189" y="-95"/>
      <point x="121" y="30"/>
      <point x="121" y="200" type="curve"/>
      <point x="121" y="363"/>
      <point x="187" y="486"/>
      <point x="336" y="486" type="curve"/>
      <point x="477" y="486"/>
      <point x="539" y="366"/>
      <point x="539" y="210" type="curve"/>
      <point x="539" y="141"/>
      <point x="538" y="78"/>
      <point x="502" y="78" type="curve"/>
      <point x="461" y="78"/>
      <point x="461" y="137"/>
      <point x="461" y="204" type="curve"/>
      <point x="461" y="308"/>
      <point x="424" y="386"/>
      <point x="330" y="386" type="curve"/>
      <point x="229" y="386"/>
      <point x="192" y="310"/>
      <point x="192" y="203" type="curve"/>
      <point x="192" y="92"/>
      <point x="224" y="11"/>
      <point x="323" y="11" type="curve"/>
      <point x="414" y="11"/>
      <point x="441" y="89"/>
      <point x="451" y="190" type="curve"/>
      <point x="404" y="200"/>
      <point x="451" y="190"/>
      <point x="404" y="200" type="curve"/>
      <point x="393" y="135"/>
      <point x="388" y="70"/>
      <point x="331" y="70" type="curve"/>
      <point x="270" y="70"/>
      <point x="259" y="131"/>
      <point x="259" y="206" type="curve"/>
      <point x="259" y="273"/>
      <point x="269" y="327"/>
      <point x="325" y="327" type="curve"/>
      <point x="386" y="327"/>
      <point x="394" y="270"/>
      <point x="394" y="201" type="curve"/>
      <point x="394" y="103"/>
      <point x="409" y="23"/>
      <point x="496" y="23" type="curve"/>
      <point x="587" y="23"/>
      <point x="603" y="107"/>
      <point x="603" y="213" type="curve"/>
      <point x="603" y="409"/>
      <point x="521" y="548"/>
      <point x="338" y="548" type="curve"/>
      <point x="144" y="548"/>
      <point x="54" y="404"/>
      <point x="54" y="196" type="curve"/>
      <point x="54" y="-10"/>
      <point x="146" y="-154"/>
      <point x="338" y="-154" type="curve"/>
      <point x="394" y="-154"/>
      <point x="427" y="-145"/>
      <point x="472" y="-113" type="curve"/>
      <point x="443" y="-62"/>
      <point x="472" y="-113"/>
    </contour>
  </outline>
</glyph>
<glyph name="A" format="1">
  <advance width="510"/>
  <unicode hex="0041"/>
  <outline>
    <contour>
      <point x="370" y="284" type="curve"/>
      <point x="293" y="284"/>
      <point x="216" y="284"/>
      <point x="138" y="284" type="curve"/>
      <point x="108" y="222"/>
      <point x="138" y="284"/>
      <point x="108" y="222" type="curve"/>
      <point x="203" y="222"/>
      <point x="299" y="222"/>
      <point x="394" y="222" type="curve"/>
      <point x="370" y="284"/>
      <point x="394" y="222"/>
    </contour>
    <contour>
      <point x="491" y="0" type="curve"/>
      <point x="426" y="241"/>
      <point x="358" y="481"/>
      <point x="293" y="722" type="curve"/>
      <point x="225" y="722"/>
      <point x="293" y="722"/>
      <point x="225" y="722" type="curve"/>
      <point x="289" y="481"/>
      <point x="350" y="241"/>
      <point x="414" y="0" type="curve"/>
      <point x="491" y="0"/>
      <point x="414" y="0"/>
    </contour>
    <contour>
      <point x="82" y="0" type="curve"/>
      <point x="153" y="241"/>
      <point x="220" y="481"/>
      <point x="291" y="722" type="curve"/>
      <point x="224" y="722"/>
      <point x="291" y="722"/>
      <point x="224" y="722" type="curve"/>
      <point x="151" y="481"/>
      <point x="74" y="241"/>
      <point x="1" y="0" type="curve"/>
      <point x="82" y="0"/>
      <point x="1" y="0"/>
    </contour>
    <contour>
      <point x="257" y="806" type="move" name="top"/>
    </contour>
    <contour>
      <point x="486" y="2" type="move" name="bottom"/>
    </contour>
  </outline>
</glyph>
<glyph name="B" format="1">
  <advance width="516"/>
  <unicode hex="0042"/>
  <outline>
    <contour>
      <point x="132" y="663" type="curve"/>
      <point x="178" y="663"/>
      <point x="209" y="663"/>
      <point x="255" y="663" type="curve"/>
      <point x="324" y="663"/>
      <point x="357" y="616"/>
      <point x="357" y="547" type="curve"/>
      <point x="357" y="482"/>
      <point x="325" y="437"/>
      <point x="261" y="437" type="curve"/>
      <point x="213" y="437"/>
      <point x="180" y="437"/>
      <point x="132" y="437" type="curve"/>
      <point x="132" y="415"/>
      <point x="132" y="400"/>
      <point x="132" y="378" type="curve"/>
      <point x="170" y="378"/>
      <point x="198" y="378"/>
      <point x="236" y="378" type="curve"/>
      <point x="342" y="378"/>
      <point x="430" y="433"/>
      <point x="430" y="545" type="curve"/>
      <point x="430" y="654"/>
      <point x="368" y="722"/>
      <point x="260" y="722" type="curve"/>
      <point x="211" y="722"/>
      <point x="180" y="722"/>
      <point x="132" y="722" type="curve"/>
      <point x="132" y="700"/>
      <point x="132" y="685"/>
    </contour>
    <contour>
      <point x="179" y="0" type="curve"/>
      <point x="179" y="241"/>
      <point x="179" y="481"/>
      <point x="179" y="722" type="curve"/>
      <point x="101" y="722"/>
      <point x="179" y="722"/>
      <point x="101" y="722" type="curve"/>
      <point x="101" y="481"/>
      <point x="102" y="241"/>
      <point x="101" y="0" type="curve"/>
      <point x="179" y="0"/>
      <point x="101" y="0"/>
    </contour>
    <contour>
      <point x="132" y="378" type="curve"/>
      <point x="180" y="378"/>
      <point x="213" y="378"/>
      <point x="261" y="378" type="curve"/>
      <point x="352" y="378"/>
      <point x="390" y="309"/>
      <point x="390" y="214" type="curve"/>
      <point x="390" y="122"/>
      <point x="347" y="59"/>
      <point x="258" y="59" type="curve"/>
      <point x="210" y="59"/>
      <point x="180" y="59"/>
      <point x="132" y="59" type="curve"/>
      <point x="132" y="37"/>
      <point x="132" y="22"/>
      <point x="132" y="0" type="curve"/>
      <point x="181" y="0"/>
      <point x="213" y="0"/>
      <point x="262" y="0" type="curve"/>
      <point x="391" y="0"/>
      <point x="464" y="81"/>
      <point x="464" y="212" type="curve"/>
      <point x="464" y="355"/>
      <point x="374" y="437"/>
      <point x="237" y="437" type="curve"/>
      <point x="198" y="437"/>
      <point x="170" y="437"/>
      <point x="132" y="437" type="curve"/>
      <point x="132" y="415"/>
      <point x="132" y="400"/>
    </contour>
  </outline>
</glyph>
<glyph name="D" format="1">
  <advance width="597"/>
  <unicode hex="0044"/>
  <outline>
    <contour>
      <point x="101" y="722" type="curve"/>
      <point x="101" y="481"/>
      <point x="101" y="241"/>
      <point x="101" y="0" type="curve"/>
      <point x="175" y="0"/>
      <point x="101" y="0"/>
      <point x="175" y="0" type="curve"/>
      <point x="175" y="241"/>
      <point x="175" y="481"/>
      <point x="175" y="722" type="curve"/>
      <point x="101" y="722"/>
      <point x="175" y="722"/>
    </contour>
    <contour>
      <point x="139" y="0" type="curve"/>
      <point x="186" y="0"/>
      <point x="222" y="0"/>
      <point x="269" y="0" type="curve"/>
      <point x="462" y="0"/>
      <point x="539" y="145"/>
      <point x="539" y="355" type="curve"/>
      <point x="539" y="572"/>
      <point x="461" y="722"/>
      <point x="263" y="722" type="curve"/>
      <point x="219" y="722"/>
      <point x="183" y="722"/>
      <point x="139" y="722" type="curve"/>
      <point x="139" y="671"/>
      <point x="139" y="714"/>
      <point x="139" y="663" type="curve"/>
      <point x="182" y="663"/>
      <point x="216" y="663"/>
      <point x="260" y="663" type="curve"/>
      <point x="418" y="663"/>
      <point x="465" y="531"/>
      <point x="465" y="354" type="curve"/>
      <point x="465" y="186"/>
      <point x="423" y="59"/>
      <point x="275" y="59" type="curve"/>
      <point x="227" y="59"/>
      <point x="188" y="59"/>
      <point x="139" y="59" type="curve"/>
      <point x="139" y="8"/>
      <point x="139" y="51"/>
    </contour>
    <contour>
      <point x="243" y="806" type="move" name="top"/>
    </contour>
  </outline>
</glyph>
<glyph name="E" format="1">
  <advance width="472"/>
  <unicode hex="0045"/>
  <outline>
    <contour>
      <point x="141" y="344" type="curve"/>
      <point x="220" y="344"/>
      <point x="299" y="344"/>
      <point x="378" y="344" type="curve"/>
      <point x="378" y="403"/>
      <point x="378" y="344"/>
      <point x="378" y="403" type="curve"/>
      <point x="299" y="403"/>
      <point x="220" y="403"/>
      <point x="141" y="403" type="curve"/>
      <point x="141" y="344"/>
      <point x="141" y="403"/>
    </contour>
    <contour>
      <point x="130" y="663" type="curve"/>
      <point x="228" y="663"/>
      <point x="325" y="663"/>
      <point x="423" y="663" type="curve"/>
      <point x="423" y="722"/>
      <point x="423" y="663"/>
      <point x="423" y="722" type="curve"/>
      <point x="325" y="722"/>
      <point x="228" y="722"/>
      <point x="130" y="722" type="curve"/>
      <point x="130" y="663"/>
      <point x="130" y="722"/>
    </contour>
    <contour>
      <point x="175" y="0" type="curve"/>
      <point x="175" y="722" type="line"/>
      <point x="101" y="722"/>
      <point x="175" y="722"/>
      <point x="101" y="722" type="curve"/>
      <point x="101" y="481"/>
      <point x="101" y="241"/>
      <point x="101" y="0" type="curve"/>
      <point x="175" y="0"/>
      <point x="101" y="0"/>
    </contour>
    <contour>
      <point x="130" y="0" type="curve"/>
      <point x="236" y="0"/>
      <point x="342" y="0"/>
      <point x="448" y="0" type="curve"/>
      <point x="448" y="59"/>
      <point x="448" y="0"/>
      <point x="448" y="59" type="curve"/>
      <point x="342" y="59"/>
      <point x="236" y="59"/>
      <point x="130" y="59" type="curve"/>
      <point x="130" y="0"/>
      <point x="130" y="59"/>
    </contour>
    <contour>
      <point x="240" y="806" type="move" name="top"/>
    </contour>
    <contour>
      <point x="438" y="2" type="move" name="bottom"/>
    </contour>
  </outline>
</glyph>
<glyph name="F" format="1">
  <advance width="447"/>
  <unicode hex="0046"/>
  <outline>
    <contour>
      <point x="141" y="344" type="curve"/>
      <point x="218" y="344"/>
      <point x="296" y="344"/>
      <point x="373" y="344" type="curve"/>
      <point x="373" y="403"/>
      <point x="373" y="344"/>
      <point x="373" y="403" type="curve"/>
      <point x="296" y="403"/>
      <point x="218" y="403"/>
      <point x="141" y="403" type="curve"/>
      <point x="141" y="344"/>
      <point x="141" y="403"/>
    </contour>
    <contour>
      <point x="175" y="0" type="curve"/>
      <point x="175" y="722" type="line"/>
      <point x="101" y="722"/>
      <point x="175" y="722"/>
      <point x="101" y="722" type="curve"/>
      <point x="101" y="481"/>
      <point x="101" y="241"/>
      <point x="101" y="0" type="curve"/>
      <point x="175" y="0"/>
      <point x="101" y="0"/>
    </contour>
    <contour>
      <point x="130" y="663" type="curve"/>
      <point x="228" y="663"/>
      <point x="327" y="663"/>
      <point x="426" y="663" type="curve"/>
      <point x="426" y="722"/>
      <point x="426" y="663"/>
      <point x="426" y="722" type="curve"/>
      <point x="327" y="722"/>
      <point x="228" y="722"/>
      <point x="130" y="722" type="curve"/>
      <point x="130" y="663"/>
      <point x="130" y="722"/>
    </contour>
  </outline>
</glyph>
<glyph name="G" format="1">
  <advance width="609"/>
  <unicode hex="0047"/>
  <outline>
    <contour>
      <point x="528" y="340" type="curve"/>
      <point x="475" y="340"/>
      <point x="422" y="340"/>
      <point x="369" y="340" type="curve"/>
      <point x="369" y="281"/>
      <point x="369" y="340"/>
      <point x="369" y="281" type="curve"/>
      <point x="422" y="281"/>
      <point x="475" y="281"/>
      <point x="528" y="281" type="curve"/>
      <point x="528" y="340"/>
      <point x="528" y="281"/>
    </contour>
    <contour>
      <point x="548" y="78" type="curve"/>
      <point x="548" y="166"/>
      <point x="548" y="253"/>
      <point x="548" y="340" type="curve"/>
      <point x="481" y="340"/>
      <point x="548" y="340"/>
      <point x="481" y="340" type="curve"/>
      <point x="481" y="253"/>
      <point x="481" y="166"/>
      <point x="481" y="78" type="curve"/>
      <point x="548" y="78"/>
      <point x="481" y="78"/>
    </contour>
    <contour>
      <point x="536" y="643" type="curve"/>
      <point x="471" y="699"/>
      <point x="407" y="727"/>
      <point x="322" y="727" type="curve"/>
      <point x="132" y="727"/>
      <point x="56" y="574"/>
      <point x="56" y="363" type="curve"/>
      <point x="56" y="148"/>
      <point x="136" y="-5"/>
      <point x="330" y="-5" type="curve"/>
      <point x="420" y="-5"/>
      <point x="476" y="24"/>
      <point x="548" y="78" type="curve"/>
      <point x="509" y="124"/>
      <point x="548" y="78"/>
      <point x="509" y="124" type="curve"/>
      <point x="460" y="84"/>
      <point x="403" y="58"/>
      <point x="330" y="58" type="curve"/>
      <point x="176" y="58"/>
      <point x="131" y="192"/>
      <point x="131" y="369" type="curve"/>
      <point x="131" y="535"/>
      <point x="176" y="665"/>
      <point x="322" y="665" type="curve"/>
      <point x="392" y="665"/>
      <point x="445" y="639"/>
      <point x="499" y="593" type="curve"/>
      <point x="536" y="643"/>
      <point x="499" y="593"/>
    </contour>
    <contour>
      <point x="319" y="806" type="move" name="top"/>
    </contour>
    <contour>
      <point x="346" y="-46" type="move" name="bottom"/>
    </contour>
  </outline>
</glyph>
<glyph name="H" format="1">
  <advance width="636"/>
  <unicode hex="0048"/>
  <outline>
    <contour>
      <point x="175" y="0" type="curve"/>
      <point x="175" y="722" type="line"/>
      <point x="101" y="722"/>
      <point x="175" y="722"/>
      <point x="101" y="722" type="curve"/>
      <point x="101" y="481"/>
      <point x="101" y="241"/>
      <point x="101" y="0" type="curve"/>
      <point x="175" y="0"/>
      <point x="101" y="0"/>
    </contour>
    <contour>
      <point x="497" y="392" type="curve"/>
      <point x="377" y="392"/>
      <point x="257" y="392"/>
      <point x="138" y="392" type="curve"/>
      <point x="138" y="333"/>
      <point x="138" y="392"/>
      <point x="138" y="333" type="curve"/>
      <point x="257" y="333"/>
      <point x="377" y="333"/>
      <point x="497" y="333" type="curve"/>
      <point x="497" y="392"/>
      <point x="497" y="333"/>
    </contour>
    <contour>
      <point x="535" y="1" type="curve"/>
      <point x="535" y="228"/>
      <point x="535" y="494"/>
      <point x="535" y="721" type="curve"/>
      <point x="461" y="721"/>
      <point x="535" y="721"/>
      <point x="461" y="721" type="curve"/>
      <point x="461" y="1" type="line"/>
      <point x="535" y="1"/>
      <point x="461" y="1"/>
    </contour>
  </outline>
</glyph>
<glyph name="J" format="1">
  <advance width="363"/>
  <unicode hex="004A"/>
  <outline>
    <contour>
      <point x="8" y="41" type="curve"/>
      <point x="34" y="18"/>
      <point x="66" y="-5"/>
      <point x="110" y="-5" type="curve"/>
      <point x="230" y="-5"/>
      <point x="269" y="84"/>
      <point x="269" y="227" type="curve"/>
      <point x="269" y="405"/>
      <point x="269" y="544"/>
      <point x="269" y="722" type="curve"/>
      <point x="204" y="722"/>
      <point x="260" y="722"/>
      <point x="195" y="722" type="curve"/>
      <point x="195" y="544"/>
      <point x="195" y="405"/>
      <point x="195" y="227" type="curve"/>
      <point x="195" y="134"/>
      <point x="189" y="56"/>
      <point x="110" y="56" type="curve"/>
      <point x="81" y="56"/>
      <point x="63" y="72"/>
      <point x="43" y="88" type="curve"/>
      <point x="13" y="47"/>
      <point x="39" y="81"/>
    </contour>
  </outline>
</glyph>
<glyph name="K" format="1">
  <advance width="514"/>
  <unicode hex="004B"/>
  <outline>
    <contour>
      <point x="404" y="722" type="curve"/>
      <point x="160" y="380" type="line"/>
      <point x="244" y="380"/>
      <point x="164" y="380"/>
      <point x="247" y="380" type="curve"/>
      <point x="492" y="722" type="line"/>
      <point x="428" y="722"/>
      <point x="468" y="722"/>
    </contour>
    <contour>
      <point x="175" y="0" type="curve"/>
      <point x="175" y="722" type="line"/>
      <point x="101" y="722"/>
      <point x="175" y="722"/>
      <point x="101" y="722" type="curve"/>
      <point x="101" y="481"/>
      <point x="101" y="241"/>
      <point x="101" y="0" type="curve"/>
      <point x="175" y="0"/>
      <point x="101" y="0"/>
    </contour>
    <contour>
      <point x="508" y="0" type="curve"/>
      <point x="247" y="380" type="line"/>
      <point x="164" y="380"/>
      <point x="244" y="380"/>
      <point x="160" y="380" type="curve"/>
      <point x="421" y="0" type="line"/>
      <point x="489" y="0"/>
      <point x="439" y="0"/>
    </contour>
    <contour>
      <point x="305" y="-46" type="move" name="bottom"/>
    </contour>
  </outline>
</glyph>
<glyph name="L" format="1">
  <advance width="453"/>
  <unicode hex="004C"/>
  <outline>
    <contour>
      <point x="175" y="0" type="curve"/>
      <point x="175" y="241"/>
      <point x="175" y="481"/>
      <point x="175" y="722" type="curve"/>
      <point x="101" y="722"/>
      <point x="175" y="722"/>
      <point x="101" y="722" type="curve"/>
      <point x="101" y="481"/>
      <point x="101" y="241"/>
      <point x="101" y="0" type="curve"/>
      <point x="175" y="0"/>
      <point x="101" y="0"/>
    </contour>
    <contour>
      <point x="137" y="0" type="curve"/>
      <point x="239" y="0"/>
      <point x="340" y="0"/>
      <point x="442" y="0" type="curve"/>
      <point x="442" y="59"/>
      <point x="442" y="0"/>
      <point x="442" y="59" type="curve"/>
      <point x="340" y="59"/>
      <point x="239" y="59"/>
      <point x="137" y="59" type="curve"/>
      <point x="137" y="0"/>
      <point x="137" y="59"/>
    </contour>
    <contour>
      <point x="138" y="806" type="move" name="top"/>
    </contour>
    <contour>
      <point x="264" y="-45" type="move" name="bottom"/>
    </contour>
  </outline>
</glyph>
<glyph name="M" format="1">
  <advance width="711"/>
  <unicode hex="004D"/>
  <outline>
    <contour>
      <point x="642" y="0" type="curve"/>
      <point x="626" y="241"/>
      <point x="609" y="481"/>
      <point x="594" y="722" type="curve"/>
      <point x="527" y="722"/>
      <point x="594" y="722"/>
      <point x="527" y="722" type="curve"/>
      <point x="541" y="481"/>
      <point x="553" y="241"/>
      <point x="568" y="0" type="curve"/>
      <point x="642" y="0"/>
      <point x="568" y="0"/>
    </contour>
    <contour>
      <point x="137" y="0" type="curve"/>
      <point x="150" y="241"/>
      <point x="164" y="481"/>
      <point x="177" y="722" type="curve"/>
      <point x="114" y="722"/>
      <point x="177" y="722"/>
      <point x="114" y="722" type="curve"/>
      <point x="100" y="481"/>
      <point x="86" y="241"/>
      <point x="71" y="0" type="curve"/>
      <point x="137" y="0"/>
      <point x="71" y="0"/>
    </contour>
    <contour>
      <point x="382" y="0" type="curve"/>
      <point x="314" y="241"/>
      <point x="246" y="481"/>
      <point x="179" y="722" type="curve"/>
      <point x="116" y="722"/>
      <point x="179" y="722"/>
      <point x="116" y="722" type="curve"/>
      <point x="183" y="481"/>
      <point x="250" y="241"/>
      <point x="317" y="0" type="curve"/>
      <point x="382" y="0"/>
      <point x="317" y="0"/>
    </contour>
    <contour>
      <point x="389" y="0" type="curve"/>
      <point x="455" y="241"/>
      <point x="521" y="481"/>
      <point x="587" y="722" type="curve"/>
      <point x="524" y="722"/>
      <point x="587" y="722"/>
      <point x="524" y="722" type="curve"/>
      <point x="457" y="481"/>
      <point x="390" y="241"/>
      <point x="323" y="0" type="curve"/>
      <point x="389" y="0"/>
      <point x="323" y="0"/>
    </contour>
  </outline>
</glyph>
<glyph name="N" format="1">
  <advance width="666"/>
  <unicode hex="004E"/>
  <outline>
    <contour>
      <point x="565" y="0" type="curve"/>
      <point x="437" y="241"/>
      <point x="308" y="481"/>
      <point x="180" y="722" type="curve"/>
      <point x="101" y="722"/>
      <point x="180" y="722"/>
      <point x="101" y="722" type="curve"/>
      <point x="229" y="481"/>
      <point x="358" y="241"/>
      <point x="487" y="0" type="curve"/>
      <point x="566" y="0"/>
      <point x="486" y="0"/>
    </contour>
    <contour>
      <point x="491" y="722" type="curve"/>
      <point x="491" y="481"/>
      <point x="491" y="241"/>
      <point x="491" y="0" type="curve"/>
      <point x="565" y="0"/>
      <point x="491" y="0"/>
      <point x="565" y="0" type="curve"/>
      <point x="565" y="241"/>
      <point x="565" y="481"/>
      <point x="565" y="722" type="curve"/>
      <point x="491" y="722"/>
      <point x="565" y="722"/>
    </contour>
    <contour>
      <point x="176" y="0" type="curve"/>
      <point x="176" y="241"/>
      <point x="176" y="481"/>
      <point x="176" y="722" type="curve"/>
      <point x="102" y="722"/>
      <point x="176" y="722"/>
      <point x="102" y="722" type="curve"/>
      <point x="102" y="481"/>
      <point x="102" y="241"/>
      <point x="102" y="0" type="curve"/>
      <point x="176" y="0"/>
      <point x="102" y="0"/>
    </contour>
    <contour>
      <point x="338" y="806" type="move" name="top"/>
    </contour>
    <contour>
      <point x="358" y="-46" type="move" name="bottom"/>
    </contour>
  </outline>
</glyph>
<glyph name="P" format="1">
  <advance width="480"/>
  <unicode hex="0050"/>
  <outline>
    <contour>
      <point x="128" y="314" type="curve"/>
      <point x="168" y="287"/>
      <point x="211" y="268"/>
      <point x="262" y="268" type="curve"/>
      <point x="375" y="270"/>
      <point x="437" y="356"/>
      <point x="437" y="486" type="curve"/>
      <point x="437" y="621"/>
      <point x="366" y="722"/>
      <point x="237" y="722" type="curve"/>
      <point x="205" y="722"/>
      <point x="173" y="722"/>
      <point x="141" y="722" type="curve"/>
      <point x="141" y="663"/>
      <point x="141" y="722"/>
      <point x="141" y="663" type="curve"/>
      <point x="170" y="663"/>
      <point x="198" y="663"/>
      <point x="227" y="663" type="curve"/>
      <point x="319" y="663"/>
      <point x="363" y="586"/>
      <point x="363" y="488" type="curve"/>
      <point x="363" y="398"/>
      <point x="332" y="326"/>
      <point x="254" y="326" type="curve"/>
      <point x="212" y="326"/>
      <point x="186" y="341"/>
      <point x="152" y="364" type="curve"/>
      <point x="129" y="316"/>
      <point x="152" y="363"/>
    </contour>
    <contour>
      <point x="175" y="0" type="curve"/>
      <point x="175" y="241"/>
      <point x="175" y="481"/>
      <point x="175" y="722" type="curve"/>
      <point x="101" y="722"/>
      <point x="175" y="722"/>
      <point x="101" y="722" type="curve"/>
      <point x="101" y="481"/>
      <point x="101" y="241"/>
      <point x="101" y="0" type="curve"/>
      <point x="175" y="0"/>
      <point x="101" y="0"/>
    </contour>
  </outline>
</glyph>
<glyph name="Q" format="1">
  <advance width="645"/>
  <unicode hex="0051"/>
  <outline>
    <contour>
      <point x="278" y="14" type="curve"/>
      <point x="345" y="-147"/>
      <point x="434" y="-228"/>
      <point x="595" y="-228" type="curve"/>
      <point x="595" y="-166"/>
      <point x="595" y="-228"/>
      <point x="595" y="-166" type="curve"/>
      <point x="463" y="-166"/>
      <point x="397" y="-90"/>
      <point x="341" y="43" type="curve"/>
      <point x="278" y="14"/>
      <point x="341" y="43"/>
    </contour>
    <contour>
      <point x="131" y="360" type="curve"/>
      <point x="131" y="522"/>
      <point x="161" y="662"/>
      <point x="301" y="662" type="curve"/>
      <point x="441" y="662"/>
      <point x="475" y="524"/>
      <point x="475" y="362" type="curve"/>
      <point x="475" y="199"/>
      <point x="447" y="57"/>
      <point x="306" y="57" type="curve"/>
      <point x="164" y="58"/>
      <point x="131" y="197"/>
      <point x="131" y="360" type="curve"/>
      <point x="57" y="360"/>
      <point x="131" y="360"/>
      <point x="57" y="360" type="curve"/>
      <point x="57" y="157"/>
      <point x="122" y="-5"/>
      <point x="303" y="-5" type="curve"/>
      <point x="485" y="-5"/>
      <point x="549" y="160"/>
      <point x="549" y="365" type="curve"/>
      <point x="549" y="566"/>
      <point x="486" y="729"/>
      <point x="306" y="729" type="curve"/>
      <point x="124" y="729"/>
      <point x="57" y="564"/>
      <point x="57" y="360" type="curve"/>
      <point x="131" y="360"/>
      <point x="57" y="360"/>
    </contour>
  </outline>
</glyph>
<glyph name="T" format="1">
  <advance width="469"/>
  <unicode hex="0054"/>
  <outline>
    <contour>
      <point x="271" y="0" type="curve"/>
      <point x="271" y="237"/>
      <point x="271" y="473"/>
      <point x="271" y="710" type="curve"/>
      <point x="197" y="710"/>
      <point x="271" y="710"/>
      <point x="197" y="710" type="curve"/>
      <point x="197" y="473"/>
      <point x="197" y="237"/>
      <point x="197" y="0" type="curve"/>
      <point x="271" y="0"/>
      <point x="197" y="0"/>
    </contour>
    <contour>
      <point x="11" y="659" type="curve"/>
      <point x="160" y="659"/>
      <point x="309" y="659"/>
      <point x="458" y="659" type="curve"/>
      <point x="458" y="724"/>
      <point x="458" y="657"/>
      <point x="458" y="722" type="curve"/>
      <point x="309" y="722"/>
      <point x="160" y="722"/>
      <point x="11" y="722" type="curve"/>
      <point x="11" y="657"/>
      <point x="11" y="724"/>
    </contour>
    <contour>
      <point x="234" y="806" type="move" name="top"/>
    </contour>
    <contour>
      <point x="261" y="-46" type="move" name="bottom"/>
    </contour>
  </outline>
</glyph>
<glyph name="V" format="1">
  <advance width="507"/>
  <unicode hex="0056"/>
  <outline>
    <contour>
      <point x="419" y="722" type="curve"/>
      <point x="353" y="481"/>
      <point x="289" y="241"/>
      <point x="225" y="0" type="curve"/>
      <point x="302" y="0"/>
      <point x="218" y="0"/>
      <point x="295" y="0" type="curve"/>
      <point x="362" y="241"/>
      <point x="428" y="481"/>
      <point x="495" y="722" type="curve"/>
      <point x="419" y="722"/>
      <point x="495" y="722"/>
    </contour>
    <contour>
      <point x="10" y="722" type="curve"/>
      <point x="78" y="481"/>
      <point x="146" y="241"/>
      <point x="213" y="0" type="curve"/>
      <point x="290" y="0"/>
      <point x="208" y="0"/>
      <point x="285" y="0" type="curve"/>
      <point x="219" y="241"/>
      <point x="154" y="481"/>
      <point x="88" y="722" type="curve"/>
      <point x="10" y="722"/>
      <point x="88" y="722"/>
    </contour>
  </outline>
</glyph>
<glyph name="W" format="1">
  <advance width="667"/>
  <unicode hex="0057"/>
  <outline>
    <contour>
      <point x="224" y="0" type="curve"/>
      <point x="273" y="241"/>
      <point x="320" y="481"/>
      <point x="369" y="722" type="curve"/>
      <point x="305" y="722"/>
      <point x="369" y="722"/>
      <point x="305" y="722" type="curve"/>
      <point x="260" y="481"/>
      <point x="214" y="242"/>
      <point x="168" y="0" type="curve"/>
      <point x="228" y="0"/>
      <point x="165" y="0"/>
    </contour>
    <contour>
      <point x="311" y="722" type="curve"/>
      <point x="355" y="481"/>
      <point x="397" y="241"/>
      <point x="442" y="0" type="curve"/>
      <point x="501" y="0"/>
      <point x="436" y="0"/>
      <point x="496" y="0" type="curve"/>
      <point x="455" y="243"/>
      <point x="415" y="481"/>
      <point x="374" y="722" type="curve"/>
      <point x="310" y="722"/>
      <point x="375" y="722"/>
    </contour>
    <contour>
      <point x="28" y="722" type="curve"/>
      <point x="72" y="481"/>
      <point x="116" y="241"/>
      <point x="160" y="0" type="curve"/>
      <point x="220" y="0"/>
      <point x="161" y="0"/>
      <point x="220" y="0" type="curve"/>
      <point x="178" y="241"/>
      <point x="136" y="481"/>
      <point x="94" y="722" type="curve"/>
      <point x="28" y="722"/>
      <point x="94" y="722"/>
    </contour>
    <contour>
      <point x="577" y="722" type="curve"/>
      <point x="533" y="481"/>
      <point x="489" y="241"/>
      <point x="445" y="0" type="curve"/>
      <point x="505" y="0"/>
      <point x="446" y="0"/>
      <point x="505" y="0" type="curve"/>
      <point x="551" y="241"/>
      <point x="597" y="481"/>
      <point x="643" y="722" type="curve"/>
      <point x="577" y="722"/>
      <point x="643" y="722"/>
    </contour>
  </outline>
</glyph>
<glyph name="X" format="1">
  <advance width="463"/>
  <unicode hex="0058"/>
  <outline>
    <contour>
      <point x="366" y="722" type="curve"/>
      <point x="245" y="481"/>
      <point x="126" y="241"/>
      <point x="5" y="0" type="curve"/>
      <point x="82" y="0"/>
      <point x="5" y="0"/>
      <point x="82" y="0" type="curve"/>
      <point x="201" y="241"/>
      <point x="320" y="481"/>
      <point x="439" y="722" type="curve"/>
      <point x="366" y="722"/>
      <point x="439" y="722"/>
    </contour>
    <contour>
      <point x="25" y="722" type="curve"/>
      <point x="143" y="481"/>
      <point x="262" y="241"/>
      <point x="380" y="0" type="curve"/>
      <point x="456" y="0"/>
      <point x="380" y="0"/>
      <point x="456" y="0" type="curve"/>
      <point x="337" y="241"/>
      <point x="218" y="481"/>
      <point x="99" y="722" type="curve"/>
      <point x="25" y="722"/>
      <point x="99" y="722"/>
    </contour>
  </outline>
</glyph>
<glyph name="Y" format="1">
  <advance width="451"/>
  <unicode hex="0059"/>
  <outline>
    <contour>
      <point x="18" y="722" type="curve"/>
      <point x="75" y="594"/>
      <point x="130" y="467"/>
      <point x="186" y="337" type="curve"/>
      <point x="262" y="337"/>
      <point x="177" y="337"/>
      <point x="253" y="337" type="curve"/>
      <point x="200" y="467"/>
      <point x="149" y="593"/>
      <point x="95" y="722" type="curve"/>
      <point x="18" y="722"/>
      <point x="95" y="722"/>
    </contour>
    <contour>
      <point x="367" y="722" type="curve"/>
      <point x="309" y="592"/>
      <point x="254" y="467"/>
      <point x="196" y="337" type="curve"/>
      <point x="272" y="337"/>
      <point x="191" y="337"/>
      <point x="267" y="337" type="curve"/>
      <point x="326" y="466"/>
      <point x="384" y="594"/>
      <point x="444" y="722" type="curve"/>
      <point x="367" y="722"/>
      <point x="444" y="722"/>
    </contour>
    <contour>
      <point x="267" y="0" type="curve"/>
      <point x="267" y="115"/>
      <point x="267" y="227"/>
      <point x="267" y="342" type="curve"/>
      <point x="186" y="342"/>
      <point x="267" y="342"/>
      <point x="186" y="342" type="curve"/>
      <point x="186" y="227"/>
      <point x="186" y="115"/>
      <point x="186" y="0" type="curve"/>
      <point x="267" y="0"/>
      <point x="186" y="0"/>
    </contour>
    <contour>
      <point x="230" y="806" type="move" name="top"/>
    </contour>
  </outline>
</glyph>
<glyph name="Z" format="1">
  <advance width="490"/>
  <unicode hex="005A"/>
  <outline>
    <contour>
      <point x="51" y="663" type="curve"/>
      <point x="167" y="663"/>
      <point x="306" y="663"/>
      <point x="423" y="663" type="curve"/>
      <point x="417" y="669"/>
      <point x="407" y="669"/>
      <point x="401" y="675" type="curve"/>
      <point x="395" y="679"/>
      <point x="397" y="689"/>
      <point x="391" y="694" type="curve"/>
      <point x="387" y="687"/>
      <point x="379" y="689"/>
      <point x="375" y="683" type="curve"/>
      <point x="22" y="59" type="line"/>
      <point x="22" y="28"/>
      <point x="22" y="59"/>
      <point x="22" y="28" type="curve"/>
      <point x="22" y="0"/>
      <point x="22" y="28"/>
      <point x="22" y="0" type="curve"/>
      <point x="48" y="0"/>
      <point x="22" y="0"/>
      <point x="48" y="0" type="curve"/>
      <point x="465" y="0"/>
      <point x="339" y="0"/>
      <point x="478" y="0" type="curve"/>
      <point x="478" y="59"/>
      <point x="478" y="0"/>
      <point x="478" y="59" type="curve"/>
      <point x="339" y="59"/>
      <point x="187" y="59"/>
      <point x="48" y="59" type="curve"/>
      <point x="53" y="54"/>
      <point x="61" y="54"/>
      <point x="67" y="49" type="curve"/>
      <point x="73" y="44"/>
      <point x="73" y="34"/>
      <point x="79" y="28" type="curve"/>
      <point x="83" y="35"/>
      <point x="91" y="33"/>
      <point x="96" y="39" type="curve"/>
      <point x="452" y="663" type="line"/>
      <point x="452" y="694"/>
      <point x="452" y="663"/>
      <point x="452" y="694" type="curve"/>
      <point x="452" y="722"/>
      <point x="452" y="694"/>
      <point x="452" y="722" type="curve"/>
      <point x="423" y="722"/>
      <point x="452" y="722"/>
      <point x="423" y="722" type="curve"/>
      <point x="306" y="722"/>
      <point x="167" y="722"/>
      <point x="51" y="722" type="curve"/>
      <point x="51" y="663"/>
      <point x="51" y="722"/>
    </contour>
    <contour>
      <point x="255" y="806" type="move" name="top"/>
    </contour>
  </outline>
</glyph>
<glyph name="bracketleft" format="1">
  <advance width="253"/>
  <unicode hex="005B"/>
  <outline>
    <contour>
      <point x="221" y="770" type="curve"/>
      <point x="185" y="770"/>
      <point x="148" y="770"/>
      <point x="111" y="770" type="curve"/>
      <point x="103" y="770"/>
      <point x="86" y="770"/>
      <point x="79" y="770" type="curve"/>
      <point x="79" y="762"/>
      <point x="79" y="752"/>
      <point x="79" y="744" type="curve"/>
      <point x="79" y="464"/>
      <point x="79" y="185"/>
      <point x="79" y="-94" type="curve"/>
      <point x="79" y="-103"/>
      <point x="79" y="-109"/>
      <point x="79" y="-119" type="curve"/>
      <point x="86" y="-119"/>
      <point x="102" y="-119"/>
      <point x="110" y="-119" type="curve"/>
      <point x="147" y="-119"/>
      <point x="184" y="-119"/>
      <point x="221" y="-119" type="curve"/>
      <point x="221" y="-54"/>
      <point x="221" y="-119"/>
      <point x="221" y="-54" type="curve"/>
      <point x="184" y="-54"/>
      <point x="147" y="-54"/>
      <point x="110" y="-54" type="curve"/>
      <point x="153" y="-54"/>
      <point x="110" y="-54"/>
      <point x="153" y="-54" type="curve"/>
      <point x="153" y="-94"/>
      <point x="153" y="-54"/>
      <point x="153" y="-94" type="curve"/>
      <point x="153" y="185"/>
      <point x="153" y="464"/>
      <point x="153" y="744" type="curve"/>
      <point x="153" y="705"/>
      <point x="153" y="744"/>
      <point x="153" y="705" type="curve"/>
      <point x="111" y="705"/>
      <point x="153" y="705"/>
      <point x="111" y="705" type="curve"/>
      <point x="148" y="705"/>
      <point x="185" y="705"/>
      <point x="221" y="705" type="curve"/>
      <point x="221" y="770"/>
      <point x="221" y="705"/>
    </contour>
  </outline>
</glyph>
<glyph name="backslash" format="1">
  <advance width="414"/>
  <unicode hex="005C"/>
  <outline>
    <contour>
      <point x="387" y="-68" type="curve"/>
      <point x="293" y="236"/>
      <point x="199" y="540"/>
      <point x="105" y="844" type="curve"/>
      <point x="27" y="844"/>
      <point x="105" y="844"/>
      <point x="27" y="844" type="curve"/>
      <point x="122" y="540"/>
      <point x="216" y="236"/>
      <point x="310" y="-68" type="curve"/>
      <point x="387" y="-68"/>
      <point x="310" y="-68"/>
    </contour>
  </outline>
</glyph>
<glyph name="bracketright" format="1">
  <advance width="254"/>
  <unicode hex="005D"/>
  <outline>
    <contour>
      <point x="33" y="705" type="curve"/>
      <point x="70" y="705"/>
      <point x="107" y="705"/>
      <point x="143" y="705" type="curve"/>
      <point x="137" y="712"/>
      <point x="126" y="714"/>
      <point x="120" y="721" type="curve"/>
      <point x="113" y="728"/>
      <point x="107" y="736"/>
      <point x="102" y="744" type="curve"/>
      <point x="102" y="464"/>
      <point x="101" y="185"/>
      <point x="102" y="-94" type="curve"/>
      <point x="107" y="-86"/>
      <point x="115" y="-79"/>
      <point x="122" y="-72" type="curve"/>
      <point x="128" y="-64"/>
      <point x="138" y="-62"/>
      <point x="144" y="-54" type="curve"/>
      <point x="107" y="-54"/>
      <point x="70" y="-54"/>
      <point x="33" y="-54" type="curve"/>
      <point x="32" y="-119"/>
      <point x="33" y="-54"/>
      <point x="32" y="-119" type="curve"/>
      <point x="70" y="-119"/>
      <point x="107" y="-119"/>
      <point x="144" y="-119" type="curve"/>
      <point x="176" y="-119"/>
      <point x="144" y="-119"/>
      <point x="176" y="-119" type="curve"/>
      <point x="176" y="-94"/>
      <point x="176" y="-119"/>
      <point x="176" y="-94" type="curve"/>
      <point x="175" y="185"/>
      <point x="176" y="464"/>
      <point x="176" y="744" type="curve"/>
      <point x="176" y="770"/>
      <point x="176" y="744"/>
      <point x="176" y="770" type="curve"/>
      <point x="143" y="770"/>
      <point x="176" y="770"/>
      <point x="143" y="770" type="curve"/>
      <point x="107" y="770"/>
      <point x="70" y="770"/>
      <point x="33" y="770" type="curve"/>
      <point x="33" y="705"/>
      <point x="33" y="770"/>
    </contour>
  </outline>
</glyph>
<glyph name="asciicircum" format="1">
  <advance width="422"/>
  <unicode hex="005E"/>
  <outline>
    <contour>
      <point x="122" y="461" type="curve"/>
      <point x="164" y="570"/>
      <point x="206" y="678"/>
      <point x="247" y="786" type="curve"/>
      <point x="174" y="786"/>
      <point x="247" y="786"/>
      <point x="174" y="786" type="curve"/>
      <point x="131" y="678"/>
      <point x="90" y="570"/>
      <point x="48" y="461" type="curve"/>
      <point x="122" y="461"/>
      <point x="48" y="461"/>
    </contour>
    <contour>
      <point x="374" y="461" type="curve"/>
      <point x="333" y="567"/>
      <point x="289" y="680"/>
      <point x="247" y="786" type="curve"/>
      <point x="174" y="786"/>
      <point x="247" y="786"/>
      <point x="174" y="786" type="curve"/>
      <point x="215" y="680"/>
      <point x="259" y="567"/>
      <point x="300" y="461" type="curve"/>
      <point x="374" y="461"/>
      <point x="300" y="461"/>
    </contour>
  </outline>
</glyph>
<glyph name="underscore" format="1">
  <advance width="491"/>
  <unicode hex="005F"/>
  <outline>
    <contour>
      <point x="0" y="-199" type="curve"/>
      <point x="163" y="-199"/>
      <point x="327" y="-199"/>
      <point x="491" y="-199" type="curve"/>
      <point x="491" y="-139"/>
      <point x="491" y="-199"/>
      <point x="491" y="-139" type="curve"/>
      <point x="327" y="-139"/>
      <point x="163" y="-139"/>
      <point x="0" y="-139" type="curve"/>
      <point x="0" y="-199"/>
      <point x="0" y="-139"/>
    </contour>
  </outline>
</glyph>
<glyph name="grave" format="1">
  <advance width="298"/>
  <unicode hex="0060"/>
  <outline>
    <contour>
      <point x="246" y="590" type="line"/>
      <point x="172" y="756" type="line"/>
      <point x="81" y="756" type="line"/>
      <point x="175" y="590" type="line"/>
    </contour>
    <contour>
      <point x="209" y="590" type="move" name="_top"/>
    </contour>
  </outline>
</glyph>
<glyph name="b" format="1">
  <advance width="516"/>
  <unicode hex="0062"/>
  <outline>
    <contour>
      <point x="143" y="381" type="curve"/>
      <point x="161" y="421"/>
      <point x="208" y="477"/>
      <point x="272" y="477" type="curve"/>
      <point x="364" y="477"/>
      <point x="390" y="377"/>
      <point x="390" y="266" type="curve"/>
      <point x="390" y="159"/>
      <point x="360" y="56"/>
      <point x="273" y="56" type="curve"/>
      <point x="218" y="56"/>
      <point x="176" y="95"/>
      <point x="147" y="148" type="curve"/>
      <point x="107" y="120"/>
      <point x="149" y="145"/>
      <point x="109" y="117" type="curve"/>
      <point x="146" y="48"/>
      <point x="198" y="-5"/>
      <point x="279" y="-5" type="curve"/>
      <point x="409" y="-5"/>
      <point x="464" y="118"/>
      <point x="464" y="269" type="curve"/>
      <point x="464" y="416"/>
      <point x="411" y="538"/>
      <point x="280" y="538" type="curve"/>
      <point x="194" y="538"/>
      <point x="137" y="473"/>
      <point x="111" y="415" type="curve"/>
      <point x="143" y="386"/>
      <point x="111" y="411"/>
    </contour>
    <contour>
      <point x="159" y="0" type="curve"/>
      <point x="159" y="267"/>
      <point x="159" y="533"/>
      <point x="159" y="800" type="curve"/>
      <point x="85" y="800"/>
      <point x="159" y="800"/>
      <point x="85" y="800" type="curve"/>
      <point x="85" y="533"/>
      <point x="85" y="267"/>
      <point x="85" y="0" type="curve"/>
      <point x="159" y="0"/>
      <point x="85" y="0"/>
    </contour>
  </outline>
</glyph>
<glyph name="c" format="1">
  <advance width="424"/>
  <unicode hex="0063"/>
  <outline>
    <contour>
      <point x="384" y="471" type="curve"/>
      <point x="349" y="507"/>
      <point x="302" y="538"/>
      <point x="249" y="538" type="curve"/>
      <point x="107" y="538"/>
      <point x="52" y="427"/>
      <point x="52" y="267" type="curve"/>
      <point x="52" y="107"/>
      <point x="104" y="-5"/>
      <point x="247" y="-5" type="curve"/>
      <point x="308" y="-5"/>
      <point x="361" y="30"/>
      <point x="393" y="91" type="curve"/>
      <point x="343" y="125"/>
      <point x="393" y="91"/>
      <point x="343" y="125" type="curve"/>
      <point x="323" y="94"/>
      <point x="291" y="56"/>
      <point x="251" y="56" type="curve"/>
      <point x="150" y="56"/>
      <point x="126" y="149"/>
      <point x="126" y="267" type="curve"/>
      <point x="126" y="385"/>
      <point x="151" y="477"/>
      <point x="248" y="477" type="curve"/>
      <point x="284" y="477"/>
      <point x="316" y="455"/>
      <point x="340" y="430" type="curve"/>
      <point x="384" y="471"/>
      <point x="340" y="430"/>
    </contour>
    <contour>
      <point x="244" y="645" type="move" name="top"/>
    </contour>
    <contour>
      <point x="263" y="0" type="move" name="bottom"/>
    </contour>
  </outline>
</glyph>
<glyph name="d" format="1">
  <advance width="519"/>
  <unicode hex="0064"/>
  <outline>
    <contour>
      <point x="401" y="443" type="curve"/>
      <point x="369" y="500"/>
      <point x="314" y="536"/>
      <point x="243" y="536" type="curve"/>
      <point x="107" y="536"/>
      <point x="52" y="411"/>
      <point x="52" y="263" type="curve"/>
      <point x="52" y="117"/>
      <point x="110" y="-3"/>
      <point x="243" y="-3" type="curve"/>
      <point x="320" y="-3"/>
      <point x="371" y="46"/>
      <point x="401" y="122" type="curve"/>
      <point x="372" y="163"/>
      <point x="401" y="122"/>
      <point x="372" y="163" type="curve"/>
      <point x="348" y="102"/>
      <point x="311" y="56"/>
      <point x="254" y="56" type="curve"/>
      <point x="158" y="56"/>
      <point x="125" y="155"/>
      <point x="125" y="266" type="curve"/>
      <point x="125" y="378"/>
      <point x="160" y="477"/>
      <point x="256" y="477" type="curve"/>
      <point x="306" y="477"/>
      <point x="349" y="445"/>
      <point x="372" y="399" type="curve"/>
      <point x="401" y="443"/>
      <point x="372" y="399"/>
    </contour>
    <contour>
      <point x="434" y="0" type="curve"/>
      <point x="434" y="267"/>
      <point x="434" y="533"/>
      <point x="434" y="800" type="curve"/>
      <point x="356" y="800"/>
      <point x="434" y="800"/>
      <point x="356" y="800" type="curve"/>
      <point x="356" y="533"/>
      <point x="356" y="267"/>
      <point x="356" y="0" type="curve"/>
      <point x="434" y="0"/>
      <point x="356" y="0"/>
    </contour>
  </outline>
</glyph>
<glyph name="e" format="1">
  <advance width="453"/>
  <unicode hex="0065"/>
  <outline>
    <contour>
      <point x="90" y="253" type="curve"/>
      <point x="184" y="253"/>
      <point x="279" y="253"/>
      <point x="373" y="253" type="curve"/>
      <point x="401" y="253"/>
      <point x="373" y="253"/>
      <point x="401" y="253" type="curve"/>
      <point x="401" y="275"/>
      <point x="401" y="253"/>
      <point x="401" y="275" type="curve"/>
      <point x="401" y="283"/>
      <point x="401" y="291"/>
      <point x="401" y="298" type="curve"/>
      <point x="401" y="438"/>
      <point x="357" y="538"/>
      <point x="233" y="538" type="curve"/>
      <point x="99" y="538"/>
      <point x="52" y="430"/>
      <point x="52" y="280" type="curve"/>
      <point x="52" y="115"/>
      <point x="102" y="-5"/>
      <point x="247" y="-5" type="curve"/>
      <point x="310" y="-5"/>
      <point x="349" y="24"/>
      <point x="392" y="75" type="curve"/>
      <point x="345" y="116"/>
      <point x="392" y="75"/>
      <point x="345" y="116" type="curve"/>
      <point x="318" y="80"/>
      <point x="289" y="56"/>
      <point x="247" y="56" type="curve"/>
      <point x="145" y="56"/>
      <point x="126" y="156"/>
      <point x="126" y="280" type="curve"/>
      <point x="126" y="388"/>
      <point x="140" y="477"/>
      <point x="230" y="477" type="curve"/>
      <point x="312" y="477"/>
      <point x="331" y="401"/>
      <point x="331" y="304" type="curve"/>
      <point x="331" y="294"/>
      <point x="331" y="285"/>
      <point x="331" y="275" type="curve"/>
      <point x="337" y="282"/>
      <point x="345" y="288"/>
      <point x="351" y="295" type="curve"/>
      <point x="357" y="302"/>
      <point x="366" y="302"/>
      <point x="373" y="310" type="curve"/>
      <point x="279" y="310"/>
      <point x="184" y="310"/>
      <point x="90" y="310" type="curve"/>
      <point x="90" y="251"/>
      <point x="90" y="312"/>
    </contour>
    <contour>
      <point x="234" y="645" type="move" name="top"/>
    </contour>
    <contour>
      <point x="276" y="3" type="move" name="bottom"/>
    </contour>
  </outline>
</glyph>
<glyph name="f" format="1">
  <advance width="333"/>
  <unicode hex="0066"/>
  <outline>
    <contour>
      <point x="22" y="474" type="curve"/>
      <point x="309" y="474" type="line"/>
      <point x="309" y="533"/>
      <point x="309" y="474"/>
      <point x="309" y="533" type="curve"/>
      <point x="22" y="533" type="line"/>
      <point x="22" y="474"/>
      <point x="22" y="533"/>
    </contour>
    <contour>
      <point x="193" y="0" type="curve"/>
      <point x="193" y="625" type="line"/>
      <point x="193" y="691"/>
      <point x="203" y="748"/>
      <point x="259" y="748" type="curve"/>
      <point x="281" y="748"/>
      <point x="300" y="739"/>
      <point x="318" y="727" type="curve"/>
      <point x="347" y="774"/>
      <point x="318" y="727"/>
      <point x="347" y="774" type="curve"/>
      <point x="322" y="792"/>
      <point x="290" y="805"/>
      <point x="259" y="805" type="curve"/>
      <point x="164" y="805"/>
      <point x="118" y="726"/>
      <point x="119" y="625" type="curve"/>
      <point x="119" y="0" type="line"/>
      <point x="193" y="0"/>
      <point x="119" y="0"/>
    </contour>
  </outline>
</glyph>
<glyph name="g" format="1">
  <advance width="420"/>
  <unicode hex="0067"/>
  <outline>
    <contour>
      <point x="294" y="469" type="curve"/>
      <point x="401" y="539" type="line"/>
      <point x="393" y="550"/>
      <point x="377" y="582"/>
      <point x="369" y="593" type="curve"/>
      <point x="253" y="516" type="line"/>
      <point x="294" y="469"/>
      <point x="253" y="516"/>
    </contour>
    <contour>
      <point x="120" y="349" type="curve"/>
      <point x="120" y="418"/>
      <point x="147" y="479"/>
      <point x="210" y="479" type="curve"/>
      <point x="273" y="479"/>
      <point x="296" y="420"/>
      <point x="296" y="350" type="curve"/>
      <point x="296" y="285"/>
      <point x="271" y="227"/>
      <point x="209" y="227" type="curve"/>
      <point x="149" y="227"/>
      <point x="120" y="282"/>
      <point x="120" y="349" type="curve"/>
      <point x="46" y="346"/>
      <point x="120" y="349"/>
      <point x="46" y="346" type="curve"/>
      <point x="46" y="243"/>
      <point x="106" y="168"/>
      <point x="205" y="168" type="curve"/>
      <point x="308" y="168"/>
      <point x="370" y="245"/>
      <point x="370" y="352" type="curve"/>
      <point x="370" y="458"/>
      <point x="311" y="538"/>
      <point x="210" y="538" type="curve"/>
      <point x="105" y="538"/>
      <point x="46" y="455"/>
      <point x="46" y="346" type="curve"/>
      <point x="120" y="349"/>
      <point x="46" y="346"/>
    </contour>
    <contour>
      <point x="118" y="236" type="curve"/>
      <point x="75" y="203"/>
      <point x="49" y="165"/>
      <point x="49" y="110" type="curve"/>
      <point x="49" y="30"/>
      <point x="114" y="-12"/>
      <point x="199" y="-22" type="curve"/>
      <point x="276" y="-30"/>
      <point x="340" y="-60"/>
      <point x="340" y="-134" type="curve"/>
      <point x="340" y="-205"/>
      <point x="283" y="-246"/>
      <point x="207" y="-246" type="curve"/>
      <point x="135" y="-246"/>
      <point x="88" y="-195"/>
      <point x="88" y="-121" type="curve"/>
      <point x="88" y="-65"/>
      <point x="106" y="-18"/>
      <point x="154" y="8" type="curve"/>
      <point x="117" y="44"/>
      <point x="154" y="8"/>
      <point x="117" y="44" type="curve"/>
      <point x="51" y="8"/>
      <point x="14" y="-47"/>
      <point x="14" y="-124" type="curve"/>
      <point x="14" y="-234"/>
      <point x="92" y="-304"/>
      <point x="204" y="-304" type="curve"/>
      <point x="320" y="-304"/>
      <point x="408" y="-240"/>
      <point x="407" y="-128" type="curve"/>
      <point x="407" y="-25"/>
      <point x="320" y="23"/>
      <point x="213" y="34" type="curve"/>
      <point x="161" y="39"/>
      <point x="123" y="67"/>
      <point x="123" y="117" type="curve"/>
      <point x="123" y="151"/>
      <point x="131" y="175"/>
      <point x="158" y="197" type="curve"/>
      <point x="118" y="236"/>
      <point x="158" y="197"/>
    </contour>
    <contour>
      <point x="208" y="645" type="move" name="top"/>
    </contour>
  </outline>
</glyph>
<glyph name="h" format="1">
  <advance width="507"/>
  <unicode hex="0068"/>
  <outline>
    <contour>
      <point x="143" y="331" type="curve"/>
      <point x="158" y="399"/>
      <point x="202" y="477"/>
      <point x="270" y="477" type="curve"/>
      <point x="344" y="477"/>
      <point x="354" y="410"/>
      <point x="354" y="327" type="curve"/>
      <point x="354" y="218"/>
      <point x="354" y="109"/>
      <point x="354" y="0" type="curve"/>
      <point x="428" y="0"/>
      <point x="354" y="0"/>
      <point x="428" y="0" type="curve"/>
      <point x="428" y="111"/>
      <point x="428" y="222"/>
      <point x="428" y="334" type="curve"/>
      <point x="428" y="450"/>
      <point x="398" y="536"/>
      <point x="289" y="536" type="curve"/>
      <point x="202" y="536"/>
      <point x="137" y="453"/>
      <point x="120" y="364" type="curve"/>
      <point x="144" y="333"/>
      <point x="119" y="362"/>
    </contour>
    <contour>
      <point x="159" y="0" type="curve"/>
      <point x="159" y="267"/>
      <point x="159" y="533"/>
      <point x="159" y="800" type="curve"/>
      <point x="85" y="800"/>
      <point x="159" y="800"/>
      <point x="85" y="800" type="curve"/>
      <point x="85" y="533"/>
      <point x="85" y="267"/>
      <point x="85" y="0" type="curve"/>
      <point x="159" y="0"/>
      <point x="85" y="0"/>
    </contour>
  </outline>
</glyph>
<glyph name="i" format="1">
  <advance width="248"/>
  <unicode hex="0069"/>
  <outline>
    <contour>
      <point x="163" y="0" type="curve"/>
      <point x="163" y="178"/>
      <point x="163" y="355"/>
      <point x="163" y="533" type="curve"/>
      <point x="85" y="533"/>
      <point x="163" y="533"/>
      <point x="85" y="533" type="curve"/>
      <point x="85" y="355"/>
      <point x="85" y="178"/>
      <point x="85" y="0" type="curve"/>
      <point x="163" y="0"/>
      <point x="85" y="0"/>
    </contour>
    <contour>
      <point x="164" y="683" type="curve"/>
      <point x="164" y="710"/>
      <point x="146" y="724"/>
      <point x="121" y="724" type="curve"/>
      <point x="95" y="724"/>
      <point x="80" y="709"/>
      <point x="80" y="683" type="curve"/>
      <point x="164" y="683"/>
      <point x="80" y="683"/>
      <point x="164" y="683" type="curve"/>
      <point x="164" y="656"/>
      <point x="146" y="643"/>
      <point x="121" y="643" type="curve"/>
      <point x="95" y="643"/>
      <point x="80" y="657"/>
      <point x="80" y="683" type="curve"/>
      <point x="164" y="683"/>
      <point x="80" y="683"/>
    </contour>
    <contour>
      <point x="121" y="646" type="move" name="top"/>
    </contour>
    <contour>
      <point x="158" y="2" type="move" name="bottom"/>
    </contour>
  </outline>
</glyph>
<glyph name="j" format="1">
  <advance width="221"/>
  <unicode hex="006A"/>
  <outline>
    <contour>
      <point x="-15" y="-302" type="curve"/>
      <point x="-8" y="-303"/>
      <point x="0" y="-304"/>
      <point x="9" y="-304" type="curve"/>
      <point x="100" y="-304"/>
      <point x="154" y="-228"/>
      <point x="154" y="-133" type="curve"/>
      <point x="154" y="89"/>
      <point x="154" y="311"/>
      <point x="154" y="533" type="curve"/>
      <point x="80" y="533"/>
      <point x="154" y="533"/>
      <point x="80" y="533" type="curve"/>
      <point x="80" y="311"/>
      <point x="80" y="89"/>
      <point x="80" y="-133" type="curve"/>
      <point x="80" y="-187"/>
      <point x="62" y="-245"/>
      <point x="12" y="-245" type="curve"/>
      <point x="7" y="-245"/>
      <point x="1" y="-245"/>
      <point x="-4" y="-244" type="curve"/>
      <point x="-15" y="-300"/>
      <point x="-5" y="-246"/>
    </contour>
    <contour>
      <point x="159" y="680" type="curve"/>
      <point x="159" y="708"/>
      <point x="141" y="722"/>
      <point x="116" y="722" type="curve"/>
      <point x="90" y="722"/>
      <point x="75" y="706"/>
      <point x="75" y="680" type="curve"/>
      <point x="159" y="680"/>
      <point x="75" y="680"/>
      <point x="159" y="680" type="curve"/>
      <point x="159" y="653"/>
      <point x="141" y="640"/>
      <point x="116" y="640" type="curve"/>
      <point x="90" y="640"/>
      <point x="75" y="654"/>
      <point x="75" y="680" type="curve"/>
      <point x="159" y="680"/>
      <point x="75" y="680"/>
    </contour>
  </outline>
</glyph>
<glyph name="k" format="1">
  <advance width="456"/>
  <unicode hex="006B"/>
  <outline>
    <contour>
      <point x="159" y="0" type="curve"/>
      <point x="159" y="800" type="line"/>
      <point x="85" y="800"/>
      <point x="159" y="800"/>
      <point x="85" y="800" type="curve"/>
      <point x="85" y="533"/>
      <point x="85" y="267"/>
      <point x="85" y="0" type="curve"/>
      <point x="159" y="0"/>
      <point x="85" y="0"/>
    </contour>
    <contour>
      <point x="328" y="533" type="curve"/>
      <point x="142" y="275" type="line"/>
      <point x="220" y="275"/>
      <point x="148" y="275"/>
      <point x="225" y="275" type="curve"/>
      <point x="415" y="533" type="line"/>
      <point x="345" y="533"/>
      <point x="397" y="533"/>
    </contour>
    <contour>
      <point x="433" y="0" type="curve"/>
      <point x="225" y="275" type="line"/>
      <point x="148" y="275"/>
      <point x="220" y="275"/>
      <point x="142" y="275" type="curve"/>
      <point x="347" y="0" type="line"/>
      <point x="411" y="0"/>
      <point x="368" y="0"/>
    </contour>
    <contour>
      <point x="299" y="-46" type="move" name="bottom"/>
    </contour>
  </outline>
</glyph>
<glyph name="m" format="1">
  <advance width="718"/>
  <unicode hex="006D"/>
  <outline>
    <contour>
      <point x="382" y="319" type="curve"/>
      <point x="403" y="396"/>
      <point x="429" y="478"/>
      <point x="493" y="478" type="curve"/>
      <point x="568" y="478"/>
      <point x="564" y="414"/>
      <point x="564" y="327" type="curve"/>
      <point x="564" y="218"/>
      <point x="564" y="109"/>
      <point x="564" y="0" type="curve"/>
      <point x="638" y="0"/>
      <point x="564" y="0"/>
      <point x="638" y="0" type="curve"/>
      <point x="638" y="111"/>
      <point x="638" y="222"/>
      <point x="638" y="334" type="curve"/>
      <point x="638" y="455"/>
      <point x="628" y="538"/>
      <point x="517" y="538" type="curve"/>
      <point x="427" y="538"/>
      <point x="381" y="454"/>
      <point x="360" y="353" type="curve"/>
      <point x="384" y="320"/>
      <point x="358" y="352"/>
    </contour>
    <contour>
      <point x="143" y="319" type="curve"/>
      <point x="160" y="394"/>
      <point x="187" y="478"/>
      <point x="253" y="478" type="curve"/>
      <point x="328" y="478"/>
      <point x="325" y="414"/>
      <point x="325" y="327" type="curve"/>
      <point x="325" y="218"/>
      <point x="325" y="109"/>
      <point x="325" y="0" type="curve"/>
      <point x="399" y="0"/>
      <point x="325" y="0"/>
      <point x="399" y="0" type="curve"/>
      <point x="399" y="111"/>
      <point x="399" y="222"/>
      <point x="399" y="334" type="curve"/>
      <point x="399" y="455"/>
      <point x="389" y="539"/>
      <point x="278" y="539" type="curve"/>
      <point x="186" y="539"/>
      <point x="143" y="455"/>
      <point x="121" y="353" type="curve"/>
      <point x="145" y="320"/>
      <point x="119" y="352"/>
    </contour>
    <contour>
      <point x="159" y="0" type="curve"/>
      <point x="159" y="178"/>
      <point x="159" y="355"/>
      <point x="159" y="533" type="curve"/>
      <point x="85" y="533"/>
      <point x="159" y="533"/>
      <point x="85" y="533" type="curve"/>
      <point x="85" y="355"/>
      <point x="85" y="178"/>
      <point x="85" y="0" type="curve"/>
      <point x="159" y="0"/>
      <point x="85" y="0"/>
    </contour>
  </outline>
</glyph>
<glyph name="n" format="1">
  <advance width="507"/>
  <unicode hex="006E"/>
  <outline>
    <contour>
      <point x="144" y="308" type="curve"/>
      <point x="155" y="397"/>
      <point x="204" y="477"/>
      <point x="268" y="477" type="curve"/>
      <point x="339" y="477"/>
      <point x="353" y="410"/>
      <point x="353" y="327" type="curve"/>
      <point x="353" y="218"/>
      <point x="353" y="109"/>
      <point x="353" y="0" type="curve"/>
      <point x="427" y="0"/>
      <point x="353" y="0"/>
      <point x="427" y="0" type="curve"/>
      <point x="427" y="111"/>
      <point x="427" y="222"/>
      <point x="427" y="334" type="curve"/>
      <point x="427" y="450"/>
      <point x="400" y="538"/>
      <point x="292" y="538" type="curve"/>
      <point x="204" y="538"/>
      <point x="135" y="461"/>
      <point x="120" y="344" type="curve"/>
      <point x="145" y="310"/>
      <point x="119" y="341"/>
    </contour>
    <contour>
      <point x="159" y="0" type="curve"/>
      <point x="159" y="178"/>
      <point x="159" y="355"/>
      <point x="159" y="533" type="curve"/>
      <point x="85" y="533"/>
      <point x="159" y="533"/>
      <point x="85" y="533" type="curve"/>
      <point x="85" y="355"/>
      <point x="85" y="178"/>
      <point x="85" y="0" type="curve"/>
      <point x="159" y="0"/>
      <point x="85" y="0"/>
    </contour>
    <contour>
      <point x="263" y="645" type="move" name="top"/>
    </contour>
    <contour>
      <point x="288" y="-45" type="move" name="bottom"/>
    </contour>
  </outline>
</glyph>
<glyph name="p" format="1">
  <advance width="520"/>
  <unicode hex="0070"/>
  <outline>
    <contour>
      <point x="143" y="359" type="curve"/>
      <point x="160" y="413"/>
      <point x="210" y="478"/>
      <point x="272" y="478" type="curve"/>
      <point x="373" y="478"/>
      <point x="395" y="380"/>
      <point x="395" y="270" type="curve"/>
      <point x="396" y="156"/>
      <point x="372" y="54"/>
      <point x="273" y="54" type="curve"/>
      <point x="214" y="54"/>
      <point x="177" y="90"/>
      <point x="146" y="139" type="curve"/>
      <point x="116" y="107"/>
      <point x="146" y="139"/>
      <point x="116" y="107" type="curve"/>
      <point x="157" y="38"/>
      <point x="208" y="-5"/>
      <point x="286" y="-5" type="curve"/>
      <point x="428" y="-5"/>
      <point x="469" y="124"/>
      <point x="469" y="273" type="curve"/>
      <point x="469" y="415"/>
      <point x="425" y="538"/>
      <point x="287" y="538" type="curve"/>
      <point x="206" y="538"/>
      <point x="147" y="473"/>
      <point x="120" y="410" type="curve"/>
      <point x="144" y="361"/>
      <point x="119" y="409"/>
    </contour>
    <contour>
      <point x="159" y="-300" type="curve"/>
      <point x="159" y="-22"/>
      <point x="159" y="255"/>
      <point x="159" y="533" type="curve"/>
      <point x="85" y="533"/>
      <point x="159" y="533"/>
      <point x="85" y="533" type="curve"/>
      <point x="85" y="255"/>
      <point x="85" y="-22"/>
      <point x="85" y="-300" type="curve"/>
      <point x="159" y="-300"/>
      <point x="85" y="-300"/>
    </contour>
  </outline>
</glyph>
<glyph name="q" format="1">
  <advance width="521"/>
  <unicode hex="0071"/>
  <outline>
    <contour>
      <point x="402" y="418" type="curve"/>
      <point x="369" y="493"/>
      <point x="305" y="538"/>
      <point x="234" y="538" type="curve"/>
      <point x="94" y="538"/>
      <point x="51" y="411"/>
      <point x="52" y="264" type="curve"/>
      <point x="52" y="118"/>
      <point x="100" y="-6"/>
      <point x="239" y="-6" type="curve"/>
      <point x="311" y="-6"/>
      <point x="371" y="54"/>
      <point x="401" y="122" type="curve"/>
      <point x="375" y="155"/>
      <point x="401" y="125"/>
      <point x="376" y="158" type="curve"/>
      <point x="352" y="102"/>
      <point x="305" y="53"/>
      <point x="249" y="53" type="curve"/>
      <point x="150" y="53"/>
      <point x="126" y="155"/>
      <point x="126" y="268" type="curve"/>
      <point x="126" y="377"/>
      <point x="150" y="477"/>
      <point x="246" y="477" type="curve"/>
      <point x="298" y="477"/>
      <point x="345" y="447"/>
      <point x="379" y="381" type="curve"/>
      <point x="398" y="416"/>
      <point x="382" y="382"/>
    </contour>
    <contour>
      <point x="436" y="-300" type="curve"/>
      <point x="436" y="-22"/>
      <point x="436" y="255"/>
      <point x="436" y="533" type="curve"/>
      <point x="359" y="533"/>
      <point x="436" y="533"/>
      <point x="359" y="533" type="curve"/>
      <point x="359" y="255"/>
      <point x="359" y="-22"/>
      <point x="359" y="-300" type="curve"/>
      <point x="436" y="-300"/>
      <point x="359" y="-300"/>
    </contour>
  </outline>
</glyph>
<glyph name="r" format="1">
  <advance width="319"/>
  <unicode hex="0072"/>
  <outline>
    <contour>
      <point x="159" y="0" type="curve"/>
      <point x="159" y="178"/>
      <point x="159" y="355"/>
      <point x="159" y="533" type="curve"/>
      <point x="85" y="533"/>
      <point x="159" y="533"/>
      <point x="85" y="533" type="curve"/>
      <point x="85" y="355"/>
      <point x="85" y="178"/>
      <point x="85" y="0" type="curve"/>
      <point x="159" y="0"/>
      <point x="85" y="0"/>
    </contour>
    <contour>
      <point x="143" y="334" type="curve"/>
      <point x="166" y="432"/>
      <point x="233" y="477"/>
      <point x="307" y="477" type="curve"/>
      <point x="307" y="541"/>
      <point x="307" y="474"/>
      <point x="307" y="538" type="curve"/>
      <point x="215" y="538"/>
      <point x="142" y="468"/>
      <point x="115" y="370" type="curve"/>
      <point x="143" y="339"/>
      <point x="119" y="363"/>
    </contour>
    <contour>
      <point x="128" y="645" type="move" name="top"/>
    </contour>
    <contour>
      <point x="150" y="-46" type="move" name="bottom"/>
    </contour>
  </outline>
</glyph>
<glyph name="t" format="1">
  <advance width="313"/>
  <unicode hex="0074"/>
  <outline>
    <contour>
      <point x="20" y="473" type="curve"/>
      <point x="302" y="473" type="line"/>
      <point x="302" y="533"/>
      <point x="302" y="473"/>
      <point x="302" y="533" type="curve"/>
      <point x="20" y="533" type="line"/>
      <point x="20" y="473"/>
      <point x="20" y="533"/>
    </contour>
    <contour>
      <point x="273" y="79" type="curve"/>
      <point x="255" y="66"/>
      <point x="242" y="57"/>
      <point x="220" y="57" type="curve"/>
      <point x="174" y="57"/>
      <point x="168" y="101"/>
      <point x="168" y="158" type="curve"/>
      <point x="168" y="681" type="line"/>
      <point x="108" y="643"/>
      <point x="154" y="667"/>
      <point x="94" y="629" type="curve"/>
      <point x="94" y="154" type="line"/>
      <point x="94" y="58"/>
      <point x="125" y="-5"/>
      <point x="210" y="-5" type="curve"/>
      <point x="247" y="-5"/>
      <point x="272" y="6"/>
      <point x="304" y="27" type="curve"/>
      <point x="273" y="79"/>
      <point x="304" y="27"/>
    </contour>
    <contour>
      <point x="230" y="-43" type="move" name="bottom"/>
    </contour>
  </outline>
</glyph>
<glyph name="u" format="1">
  <advance width="502"/>
  <unicode hex="0075"/>
  <outline>
    <contour>
      <point x="416" y="0" type="curve"/>
      <point x="416" y="178"/>
      <point x="416" y="355"/>
      <point x="416" y="533" type="curve"/>
      <point x="342" y="533"/>
      <point x="416" y="533"/>
      <point x="342" y="533" type="curve"/>
      <point x="342" y="355"/>
      <point x="342" y="178"/>
      <point x="342" y="0" type="curve"/>
      <point x="416" y="0"/>
      <point x="342" y="0"/>
    </contour>
    <contour>
      <point x="356" y="195" type="curve"/>
      <point x="336" y="130"/>
      <point x="298" y="56"/>
      <point x="242" y="56" type="curve"/>
      <point x="170" y="56"/>
      <point x="153" y="120"/>
      <point x="153" y="200" type="curve"/>
      <point x="153" y="311"/>
      <point x="153" y="422"/>
      <point x="153" y="533" type="curve"/>
      <point x="79" y="533"/>
      <point x="153" y="533"/>
      <point x="79" y="533" type="curve"/>
      <point x="79" y="421"/>
      <point x="79" y="309"/>
      <point x="79" y="197" type="curve"/>
      <point x="79" y="79"/>
      <point x="117" y="-5"/>
      <point x="233" y="-5" type="curve"/>
      <point x="314" y="-5"/>
      <point x="360" y="78"/>
      <point x="386" y="169" type="curve"/>
      <point x="355" y="195"/>
      <point x="387" y="170"/>
    </contour>
    <contour>
      <point x="230" y="645" type="move" name="top"/>
    </contour>
    <contour>
      <point x="418" y="2" type="move" name="bottom"/>
    </contour>
  </outline>
</glyph>
<glyph name="v" format="1">
  <advance width="437"/>
  <unicode hex="0076"/>
  <outline>
    <contour>
      <point x="24" y="533" type="curve"/>
      <point x="75" y="355"/>
      <point x="125" y="178"/>
      <point x="175" y="0" type="curve"/>
      <point x="244" y="0"/>
      <point x="175" y="0"/>
      <point x="244" y="0" type="curve"/>
      <point x="195" y="178"/>
      <point x="150" y="355"/>
      <point x="101" y="533" type="curve"/>
      <point x="24" y="533"/>
      <point x="101" y="533"/>
    </contour>
    <contour>
      <point x="343" y="533" type="curve"/>
      <point x="190" y="0" type="line"/>
      <point x="261" y="0"/>
      <point x="190" y="0"/>
      <point x="261" y="0" type="curve"/>
      <point x="314" y="178"/>
      <point x="366" y="355"/>
      <point x="419" y="533" type="curve"/>
      <point x="343" y="533"/>
      <point x="419" y="533"/>
    </contour>
  </outline>
</glyph>
<glyph name="w" format="1">
  <advance width="663"/>
  <unicode hex="0077"/>
  <outline>
    <contour>
      <point x="222" y="0" type="curve"/>
      <point x="272" y="178"/>
      <point x="320" y="355"/>
      <point x="369" y="533" type="curve"/>
      <point x="302" y="533"/>
      <point x="369" y="533"/>
      <point x="302" y="533" type="curve"/>
      <point x="254" y="355"/>
      <point x="206" y="178"/>
      <point x="158" y="0" type="curve"/>
      <point x="222" y="0"/>
      <point x="158" y="0"/>
    </contour>
    <contour>
      <point x="574" y="533" type="curve"/>
      <point x="529" y="355"/>
      <point x="484" y="178"/>
      <point x="440" y="0" type="curve"/>
      <point x="503" y="0"/>
      <point x="440" y="0"/>
      <point x="503" y="0" type="curve"/>
      <point x="550" y="178"/>
      <point x="595" y="355"/>
      <point x="641" y="533" type="curve"/>
      <point x="574" y="533"/>
      <point x="641" y="533"/>
    </contour>
    <contour>
      <point x="307" y="533" type="curve"/>
      <point x="351" y="355"/>
      <point x="394" y="178"/>
      <point x="439" y="0" type="curve"/>
      <point x="503" y="0"/>
      <point x="439" y="0"/>
      <point x="503" y="0" type="curve"/>
      <point x="460" y="178"/>
      <point x="416" y="355"/>
      <point x="373" y="533" type="curve"/>
      <point x="307" y="533"/>
      <point x="373" y="533"/>
    </contour>
    <contour>
      <point x="26" y="533" type="curve"/>
      <point x="70" y="355"/>
      <point x="114" y="178"/>
      <point x="158" y="0" type="curve"/>
      <point x="221" y="0"/>
      <point x="158" y="0"/>
      <point x="221" y="0" type="curve"/>
      <point x="178" y="178"/>
      <point x="136" y="355"/>
      <point x="92" y="533" type="curve"/>
      <point x="26" y="533"/>
      <point x="92" y="533"/>
    </contour>
  </outline>
</glyph>
<glyph name="x" format="1">
  <advance width="430"/>
  <unicode hex="0078"/>
  <outline>
    <contour>
      <point x="415" y="0" type="curve"/>
      <point x="358" y="103"/>
      <point x="156" y="430"/>
      <point x="99" y="533" type="curve"/>
      <point x="21" y="533"/>
      <point x="99" y="533"/>
      <point x="21" y="533" type="curve"/>
      <point x="78" y="430"/>
      <point x="280" y="103"/>
      <point x="336" y="0" type="curve"/>
      <point x="415" y="0"/>
      <point x="336" y="0"/>
    </contour>
    <contour>
      <point x="334" y="533" type="curve"/>
      <point x="276" y="430"/>
      <point x="70" y="103"/>
      <point x="14" y="0" type="curve"/>
      <point x="92" y="0"/>
      <point x="14" y="0"/>
      <point x="92" y="0" type="curve"/>
      <point x="149" y="103"/>
      <point x="353" y="430"/>
      <point x="410" y="533" type="curve"/>
      <point x="334" y="533"/>
      <point x="410" y="533"/>
    </contour>
  </outline>
</glyph>
<glyph name="y" format="1">
  <advance width="458"/>
  <unicode hex="0079"/>
  <outline>
    <contour>
      <point x="265" y="-6" type="curve"/>
      <point x="239" y="72"/>
      <point x="122" y="454"/>
      <point x="96" y="533" type="curve"/>
      <point x="19" y="533"/>
      <point x="96" y="533"/>
      <point x="19" y="533" type="curve"/>
      <point x="46" y="455"/>
      <point x="169" y="67"/>
      <point x="196" y="-11" type="curve"/>
      <point x="265" y="-11"/>
      <point x="196" y="-6"/>
    </contour>
    <contour>
      <point x="167" y="-300" type="curve"/>
      <point x="210" y="-183"/>
      <point x="406" y="416"/>
      <point x="448" y="533" type="curve"/>
      <point x="372" y="533"/>
      <point x="448" y="533"/>
      <point x="372" y="533" type="curve"/>
      <point x="329" y="416"/>
      <point x="132" y="-183"/>
      <point x="90" y="-300" type="curve"/>
      <point x="167" y="-300"/>
      <point x="90" y="-300"/>
    </contour>
    <contour>
      <point x="243" y="646" type="move" name="top"/>
    </contour>
  </outline>
</glyph>
<glyph name="braceleft" format="1">
  <advance width="221"/>
  <unicode hex="007B"/>
  <outline>
    <contour>
      <point x="188" y="-58" type="curve"/>
      <point x="141" y="-58"/>
      <point x="138" y="-11"/>
      <point x="138" y="43" type="curve"/>
      <point x="138" y="98"/>
      <point x="138" y="154"/>
      <point x="138" y="210" type="curve"/>
      <point x="138" y="300"/>
      <point x="104" y="371"/>
      <point x="22" y="371" type="curve"/>
      <point x="22" y="309"/>
      <point x="22" y="371"/>
      <point x="22" y="309" type="curve"/>
      <point x="64" y="309"/>
      <point x="71" y="265"/>
      <point x="71" y="216" type="curve"/>
      <point x="71" y="159"/>
      <point x="71" y="102"/>
      <point x="71" y="46" type="curve"/>
      <point x="71" y="-47"/>
      <point x="105" y="-117"/>
      <point x="188" y="-117" type="curve"/>
      <point x="188" y="-58"/>
      <point x="188" y="-117"/>
    </contour>
    <contour>
      <point x="188" y="796" type="curve"/>
      <point x="105" y="796"/>
      <point x="71" y="727"/>
      <point x="71" y="635" type="curve"/>
      <point x="71" y="577"/>
      <point x="71" y="519"/>
      <point x="71" y="461" type="curve"/>
      <point x="71" y="412"/>
      <point x="64" y="371"/>
      <point x="22" y="371" type="curve"/>
      <point x="22" y="309"/>
      <point x="22" y="371"/>
      <point x="22" y="309" type="curve"/>
      <point x="104" y="309"/>
      <point x="138" y="378"/>
      <point x="138" y="470" type="curve"/>
      <point x="138" y="525"/>
      <point x="138" y="580"/>
      <point x="138" y="635" type="curve"/>
      <point x="138" y="689"/>
      <point x="141" y="736"/>
      <point x="188" y="736" type="curve"/>
      <point x="188" y="796"/>
      <point x="188" y="736"/>
    </contour>
  </outline>
</glyph>
<glyph name="braceright" format="1">
  <advance width="222"/>
  <unicode hex="007D"/>
  <outline>
    <contour>
      <point x="32" y="-117" type="curve"/>
      <point x="116" y="-117"/>
      <point x="150" y="-47"/>
      <point x="150" y="46" type="curve"/>
      <point x="150" y="102"/>
      <point x="150" y="159"/>
      <point x="150" y="216" type="curve"/>
      <point x="150" y="265"/>
      <point x="156" y="309"/>
      <point x="199" y="309" type="curve"/>
      <point x="199" y="371"/>
      <point x="199" y="309"/>
      <point x="199" y="371" type="curve"/>
      <point x="117" y="371"/>
      <point x="83" y="300"/>
      <point x="83" y="210" type="curve"/>
      <point x="83" y="154"/>
      <point x="83" y="98"/>
      <point x="83" y="43" type="curve"/>
      <point x="83" y="-11"/>
      <point x="79" y="-58"/>
      <point x="32" y="-58" type="curve"/>
      <point x="32" y="-117"/>
      <point x="32" y="-58"/>
    </contour>
    <contour>
      <point x="32" y="736" type="curve"/>
      <point x="80" y="736"/>
      <point x="83" y="689"/>
      <point x="83" y="635" type="curve"/>
      <point x="83" y="580"/>
      <point x="83" y="525"/>
      <point x="83" y="470" type="curve"/>
      <point x="83" y="378"/>
      <point x="116" y="309"/>
      <point x="199" y="309" type="curve"/>
      <point x="199" y="371"/>
      <point x="199" y="309"/>
      <point x="199" y="371" type="curve"/>
      <point x="157" y="371"/>
      <point x="150" y="412"/>
      <point x="150" y="461" type="curve"/>
      <point x="150" y="519"/>
      <point x="150" y="577"/>
      <point x="150" y="635" type="curve"/>
      <point x="150" y="727"/>
      <point x="116" y="796"/>
      <point x="32" y="796" type="curve"/>
      <point x="32" y="736"/>
      <point x="32" y="796"/>
    </contour>
  </outline>
</glyph>
<glyph name="asciitilde" format="1">
  <advance width="553"/>
  <unicode hex="007E"/>
  <outline>
    <contour>
      <point x="421" y="359" type="curve"/>
      <point x="411" y="318"/>
      <point x="401" y="270"/>
      <point x="363" y="270" type="curve"/>
      <point x="335" y="270"/>
      <point x="320" y="285"/>
      <point x="301" y="306" type="curve"/>
      <point x="269" y="343"/>
      <point x="243" y="365"/>
      <point x="195" y="365" type="curve"/>
      <point x="116" y="365"/>
      <point x="88" y="311"/>
      <point x="72" y="232" type="curve"/>
      <point x="102" y="222"/>
      <point x="101" y="221"/>
      <point x="132" y="212" type="curve"/>
      <point x="141" y="258"/>
      <point x="152" y="303"/>
      <point x="193" y="303" type="curve"/>
      <point x="219" y="303"/>
      <point x="233" y="289"/>
      <point x="251" y="269" type="curve"/>
      <point x="285" y="231"/>
      <point x="312" y="209"/>
      <point x="363" y="208" type="curve"/>
      <point x="440" y="208"/>
      <point x="462" y="267"/>
      <point x="481" y="342" type="curve"/>
      <point x="450" y="350"/>
      <point x="452" y="351"/>
    </contour>
  </outline>
</glyph>
<glyph name="exclamdown" format="1">
  <advance width="244"/>
  <unicode hex="00A1"/>
  <outline>
    <contour>
      <point x="86" y="298" type="line"/>
      <point x="79" y="-195" type="line"/>
      <point x="165" y="-196" type="line"/>
      <point x="160" y="297" type="line"/>
    </contour>
    <contour>
      <point x="82" y="494" type="curve"/>
      <point x="82" y="467"/>
      <point x="99" y="453"/>
      <point x="123" y="453" type="curve"/>
      <point x="148" y="453"/>
      <point x="164" y="468"/>
      <point x="164" y="493" type="curve"/>
      <point x="82" y="494"/>
      <point x="164" y="493"/>
      <point x="82" y="494" type="curve"/>
      <point x="82" y="520"/>
      <point x="99" y="533"/>
      <point x="124" y="533" type="curve"/>
      <point x="149" y="533"/>
      <point x="164" y="519"/>
      <point x="164" y="493" type="curve"/>
      <point x="82" y="494"/>
      <point x="164" y="493"/>
    </contour>
  </outline>
</glyph>
<glyph name="cent" format="1">
  <advance width="503"/>
  <unicode hex="00A2"/>
  <outline>
    <contour>
      <point x="303" y="-53" type="curve"/>
      <point x="303" y="-13"/>
      <point x="303" y="27"/>
      <point x="303" y="67" type="curve"/>
      <point x="229" y="67"/>
      <point x="303" y="67"/>
      <point x="229" y="67" type="curve"/>
      <point x="229" y="27"/>
      <point x="229" y="-13"/>
      <point x="229" y="-53" type="curve"/>
      <point x="303" y="-53"/>
      <point x="229" y="-53"/>
    </contour>
    <contour>
      <point x="244" y="778" type="curve"/>
      <point x="244" y="742"/>
      <point x="244" y="706"/>
      <point x="244" y="670" type="curve"/>
      <point x="318" y="670"/>
      <point x="244" y="670"/>
      <point x="318" y="670" type="curve"/>
      <point x="318" y="706"/>
      <point x="318" y="742"/>
      <point x="318" y="778" type="curve"/>
      <point x="244" y="778"/>
      <point x="318" y="778"/>
    </contour>
    <contour>
      <point x="455" y="606" type="curve"/>
      <point x="403" y="660"/>
      <point x="356" y="682"/>
      <point x="286" y="682" type="curve"/>
      <point x="121" y="682"/>
      <point x="48" y="546"/>
      <point x="48" y="365" type="curve"/>
      <point x="48" y="189"/>
      <point x="105" y="50"/>
      <point x="262" y="50" type="curve"/>
      <point x="344" y="50"/>
      <point x="399" y="81"/>
      <point x="454" y="148" type="curve"/>
      <point x="408" y="191"/>
      <point x="454" y="148"/>
      <point x="408" y="191" type="curve"/>
      <point x="367" y="145"/>
      <point x="331" y="112"/>
      <point x="269" y="112" type="curve"/>
      <point x="153" y="112"/>
      <point x="122" y="229"/>
      <point x="122" y="368" type="curve"/>
      <point x="122" y="507"/>
      <point x="165" y="620"/>
      <point x="280" y="620" type="curve"/>
      <point x="336" y="620"/>
      <point x="373" y="599"/>
      <point x="412" y="560" type="curve"/>
      <point x="455" y="606"/>
      <point x="412" y="560"/>
    </contour>
  </outline>
</glyph>
<glyph name="sterling" format="1">
  <advance width="400"/>
  <unicode hex="00A3"/>
  <outline>
    <contour>
      <point x="335" y="59" type="curve"/>
      <point x="237" y="59"/>
      <point x="138" y="59"/>
      <point x="41" y="59" type="curve"/>
      <point x="41" y="0"/>
      <point x="41" y="59"/>
      <point x="41" y="0" type="curve"/>
      <point x="138" y="0"/>
      <point x="238" y="0"/>
      <point x="335" y="0" type="curve"/>
      <point x="335" y="59"/>
      <point x="335" y="0"/>
    </contour>
    <contour>
      <point x="298" y="406" type="curve"/>
      <point x="220" y="406"/>
      <point x="138" y="406"/>
      <point x="62" y="406" type="curve"/>
      <point x="62" y="347"/>
      <point x="62" y="406"/>
      <point x="62" y="347" type="curve"/>
      <point x="138" y="347"/>
      <point x="220" y="347"/>
      <point x="298" y="347" type="curve"/>
      <point x="298" y="406"/>
      <point x="298" y="347"/>
    </contour>
    <contour>
      <point x="354" y="670" type="curve"/>
      <point x="319" y="708"/>
      <point x="289" y="723"/>
      <point x="244" y="723" type="curve"/>
      <point x="92" y="723"/>
      <point x="83" y="559"/>
      <point x="113" y="370" type="curve"/>
      <point x="137" y="210"/>
      <point x="153" y="59"/>
      <point x="41" y="59" type="curve"/>
      <point x="41" y="0"/>
      <point x="41" y="59"/>
      <point x="41" y="0" type="curve"/>
      <point x="209" y="0"/>
      <point x="210" y="179"/>
      <point x="180" y="382" type="curve"/>
      <point x="158" y="528"/>
      <point x="146" y="666"/>
      <point x="240" y="666" type="curve"/>
      <point x="273" y="666"/>
      <point x="293" y="649"/>
      <point x="315" y="627" type="curve"/>
      <point x="354" y="670"/>
      <point x="315" y="627"/>
    </contour>
  </outline>
</glyph>
<glyph name="currency" format="1">
  <advance width="569"/>
  <unicode hex="00A4"/>
  <outline>
    <contour>
      <point x="212" y="313" type="curve"/>
      <point x="212" y="377"/>
      <point x="227" y="434"/>
      <point x="283" y="434" type="curve"/>
      <point x="341" y="434"/>
      <point x="355" y="380"/>
      <point x="355" y="313" type="curve"/>
      <point x="355" y="247"/>
      <point x="344" y="186"/>
      <point x="286" y="186" type="curve"/>
      <point x="226" y="186"/>
      <point x="212" y="244"/>
      <point x="212" y="313" type="curve"/>
      <point x="138" y="313"/>
      <point x="215" y="313"/>
      <point x="141" y="313" type="curve"/>
      <point x="141" y="206"/>
      <point x="187" y="128"/>
      <point x="286" y="128" type="curve"/>
      <point x="384" y="128"/>
      <point x="427" y="209"/>
      <point x="427" y="315" type="curve"/>
      <point x="427" y="416"/>
      <point x="383" y="493"/>
      <point x="290" y="493" type="curve"/>
      <point x="191" y="493"/>
      <point x="141" y="417"/>
      <point x="141" y="313" type="curve"/>
      <point x="215" y="313"/>
      <point x="138" y="313"/>
    </contour>
    <contour>
      <point x="362" y="392" type="line"/>
      <point x="508" y="529" type="line"/>
      <point x="453" y="584" type="line"/>
      <point x="315" y="438" type="line"/>
    </contour>
    <contour>
      <point x="319" y="189" type="line"/>
      <point x="457" y="43" type="line"/>
      <point x="511" y="98" type="line"/>
      <point x="366" y="236" type="line"/>
    </contour>
    <contour>
      <point x="203" y="236" type="line"/>
      <point x="57" y="98" type="line"/>
      <point x="111" y="43" type="line"/>
      <point x="249" y="189" type="line"/>
    </contour>
    <contour>
      <point x="255" y="439" type="line"/>
      <point x="117" y="585" type="line"/>
      <point x="63" y="530" type="line"/>
      <point x="208" y="393" type="line"/>
    </contour>
  </outline>
</glyph>
<glyph name="yen" format="1">
  <advance width="500"/>
  <unicode hex="00A5"/>
  <outline>
    <contour>
      <point x="412" y="392" type="curve"/>
      <point x="361" y="392"/>
      <point x="311" y="392"/>
      <point x="260" y="392" type="curve"/>
      <point x="260" y="326"/>
      <point x="260" y="392"/>
      <point x="260" y="326" type="curve"/>
      <point x="311" y="326"/>
      <point x="361" y="326"/>
      <point x="412" y="326" type="curve"/>
      <point x="412" y="392"/>
      <point x="412" y="326"/>
    </contour>
    <contour>
      <point x="239" y="392" type="curve"/>
      <point x="189" y="392"/>
      <point x="140" y="392"/>
      <point x="90" y="392" type="curve"/>
      <point x="90" y="326"/>
      <point x="90" y="392"/>
      <point x="90" y="326" type="curve"/>
      <point x="140" y="326"/>
      <point x="189" y="326"/>
      <point x="239" y="326" type="curve"/>
      <point x="239" y="392"/>
      <point x="239" y="326"/>
    </contour>
    <contour>
      <point x="412" y="262" type="curve"/>
      <point x="305" y="262"/>
      <point x="197" y="262"/>
      <point x="90" y="262" type="curve"/>
      <point x="90" y="197"/>
      <point x="90" y="262"/>
      <point x="90" y="197" type="curve"/>
      <point x="197" y="197"/>
      <point x="305" y="197"/>
      <point x="412" y="197" type="curve"/>
      <point x="412" y="262"/>
      <point x="412" y="197"/>
    </contour>
    <contour>
      <point x="40" y="722" type="curve"/>
      <point x="97" y="594"/>
      <point x="152" y="467"/>
      <point x="208" y="337" type="curve"/>
      <point x="283" y="337"/>
      <point x="198" y="337"/>
      <point x="274" y="337" type="curve"/>
      <point x="222" y="467"/>
      <point x="170" y="593"/>
      <point x="117" y="722" type="curve"/>
      <point x="40" y="722"/>
      <point x="117" y="722"/>
    </contour>
    <contour>
      <point x="388" y="722" type="curve"/>
      <point x="331" y="592"/>
      <point x="276" y="467"/>
      <point x="217" y="337" type="curve"/>
      <point x="293" y="337"/>
      <point x="212" y="337"/>
      <point x="288" y="337" type="curve"/>
      <point x="347" y="466"/>
      <point x="405" y="594"/>
      <point x="465" y="722" type="curve"/>
      <point x="388" y="722"/>
      <point x="465" y="722"/>
    </contour>
    <contour>
      <point x="288" y="0" type="curve"/>
      <point x="288" y="115"/>
      <point x="288" y="227"/>
      <point x="288" y="342" type="curve"/>
      <point x="208" y="342"/>
      <point x="288" y="342"/>
      <point x="208" y="342" type="curve"/>
      <point x="208" y="227"/>
      <point x="208" y="115"/>
      <point x="208" y="0" type="curve"/>
      <point x="288" y="0"/>
      <point x="208" y="0"/>
    </contour>
  </outline>
</glyph>
<glyph name="section" format="1">
  <advance width="411"/>
  <unicode hex="00A7"/>
  <outline>
    <contour>
      <point x="326" y="704" type="curve"/>
      <point x="287" y="735"/>
      <point x="256" y="750"/>
      <point x="209" y="750" type="curve"/>
      <point x="125" y="750"/>
      <point x="77" y="695"/>
      <point x="77" y="613" type="curve"/>
      <point x="77" y="540"/>
      <point x="113" y="491"/>
      <point x="180" y="460" type="curve"/>
      <point x="236" y="434"/>
      <point x="289" y="417"/>
      <point x="289" y="361" type="curve"/>
      <point x="289" y="305"/>
      <point x="265" y="265"/>
      <point x="211" y="251" type="curve"/>
      <point x="255" y="203"/>
      <point x="211" y="251"/>
      <point x="255" y="203" type="curve"/>
      <point x="329" y="226"/>
      <point x="363" y="283"/>
      <point x="363" y="361" type="curve"/>
      <point x="362" y="446"/>
      <point x="298" y="482"/>
      <point x="217" y="516" type="curve"/>
      <point x="175" y="535"/>
      <point x="148" y="566"/>
      <point x="148" y="613" type="curve"/>
      <point x="148" y="655"/>
      <point x="166" y="691"/>
      <point x="208" y="691" type="curve"/>
      <point x="244" y="691"/>
      <point x="264" y="678"/>
      <point x="290" y="658" type="curve"/>
      <point x="326" y="704"/>
      <point x="290" y="658"/>
    </contour>
    <contour>
      <point x="158" y="519" type="curve"/>
      <point x="88" y="491"/>
      <point x="52" y="441"/>
      <point x="52" y="367" type="curve"/>
      <point x="52" y="285"/>
      <point x="106" y="242"/>
      <point x="183" y="209" type="curve"/>
      <point x="230" y="187"/>
      <point x="270" y="165"/>
      <point x="270" y="114" type="curve"/>
      <point x="270" y="67"/>
      <point x="249" y="31"/>
      <point x="207" y="31" type="curve"/>
      <point x="166" y="31"/>
      <point x="143" y="49"/>
      <point x="113" y="76" type="curve"/>
      <point x="71" y="34"/>
      <point x="113" y="76"/>
      <point x="71" y="34" type="curve"/>
      <point x="113" y="-9"/>
      <point x="150" y="-28"/>
      <point x="206" y="-28" type="curve"/>
      <point x="290" y="-28"/>
      <point x="342" y="27"/>
      <point x="342" y="114" type="curve"/>
      <point x="341" y="189"/>
      <point x="300" y="235"/>
      <point x="230" y="265" type="curve"/>
      <point x="175" y="290"/>
      <point x="126" y="311"/>
      <point x="126" y="367" type="curve"/>
      <point x="126" y="418"/>
      <point x="147" y="455"/>
      <point x="194" y="475" type="curve"/>
      <point x="158" y="519"/>
      <point x="194" y="475"/>
    </contour>
  </outline>
</glyph>
<glyph name="dieresis" format="1">
  <advance width="379"/>
  <unicode hex="00A8"/>
  <outline>
    <contour>
      <point x="154" y="669" type="curve"/>
      <point x="154" y="696"/>
      <point x="136" y="710"/>
      <point x="112" y="710" type="curve"/>
      <point x="87" y="710"/>
      <point x="71" y="695"/>
      <point x="71" y="669" type="curve"/>
      <point x="154" y="669"/>
      <point x="71" y="669"/>
      <point x="154" y="669" type="curve"/>
      <point x="154" y="642"/>
      <point x="137" y="630"/>
      <point x="112" y="630" type="curve"/>
      <point x="86" y="630"/>
      <point x="71" y="643"/>
      <point x="71" y="669" type="curve"/>
      <point x="154" y="669"/>
      <point x="71" y="669"/>
    </contour>
    <contour>
      <point x="286" y="669" type="curve"/>
      <point x="286" y="696"/>
      <point x="269" y="710"/>
      <point x="244" y="710" type="curve"/>
      <point x="220" y="710"/>
      <point x="204" y="695"/>
      <point x="204" y="669" type="curve"/>
      <point x="286" y="669"/>
      <point x="204" y="669"/>
      <point x="286" y="669" type="curve"/>
      <point x="286" y="642"/>
      <point x="269" y="630"/>
      <point x="244" y="630" type="curve"/>
      <point x="219" y="630"/>
      <point x="204" y="643"/>
      <point x="204" y="669" type="curve"/>
      <point x="286" y="669"/>
      <point x="204" y="669"/>
    </contour>
    <contour>
      <point x="179" y="634" type="move" name="_top"/>
    </contour>
  </outline>
</glyph>
<glyph name="copyright" format="1">
  <advance width="614"/>
  <unicode hex="00A9"/>
  <outline>
    <contour>
      <point x="119" y="321" type="curve"/>
      <point x="119" y="470"/>
      <point x="176" y="596"/>
      <point x="309" y="596" type="curve"/>
      <point x="440" y="596"/>
      <point x="495" y="469"/>
      <point x="495" y="320" type="curve"/>
      <point x="495" y="175"/>
      <point x="442" y="49"/>
      <point x="314" y="49" type="curve"/>
      <point x="182" y="49"/>
      <point x="119" y="173"/>
      <point x="119" y="321" type="curve"/>
      <point x="56" y="321"/>
      <point x="120" y="321"/>
      <point x="57" y="321" type="curve"/>
      <point x="57" y="143"/>
      <point x="146" y="0"/>
      <point x="312" y="0" type="curve"/>
      <point x="474" y="0"/>
      <point x="555" y="145"/>
      <point x="555" y="322" type="curve"/>
      <point x="555" y="500"/>
      <point x="472" y="646"/>
      <point x="309" y="646" type="curve"/>
      <point x="144" y="646"/>
      <point x="57" y="501"/>
      <point x="57" y="321" type="curve"/>
      <point x="120" y="321"/>
      <point x="56" y="321"/>
    </contour>
    <contour>
      <point x="415" y="452" type="curve"/>
      <point x="386" y="489"/>
      <point x="355" y="503"/>
      <point x="314" y="503" type="curve"/>
      <point x="218" y="503"/>
      <point x="177" y="425"/>
      <point x="177" y="321" type="curve"/>
      <point x="177" y="219"/>
      <point x="211" y="143"/>
      <point x="303" y="143" type="curve"/>
      <point x="351" y="143"/>
      <point x="385" y="155"/>
      <point x="418" y="198" type="curve"/>
      <point x="378" y="228"/>
      <point x="418" y="198"/>
      <point x="378" y="228" type="curve"/>
      <point x="358" y="206"/>
      <point x="338" y="193"/>
      <point x="306" y="193" type="curve"/>
      <point x="246" y="193"/>
      <point x="235" y="253"/>
      <point x="235" y="323" type="curve"/>
      <point x="235" y="394"/>
      <point x="250" y="453"/>
      <point x="312" y="453" type="curve"/>
      <point x="336" y="453"/>
      <point x="355" y="446"/>
      <point x="373" y="427" type="curve"/>
      <point x="419" y="453"/>
      <point x="370" y="426"/>
    </contour>
  </outline>
</glyph>
<glyph name="ordfeminine" format="1">
  <advance width="343"/>
  <unicode hex="00AA"/>
  <outline>
    <contour>
      <point x="269" y="427" type="curve"/>
      <point x="269" y="515"/>
      <point x="269" y="586"/>
      <point x="269" y="674" type="curve"/>
      <point x="269" y="735"/>
      <point x="229" y="768"/>
      <point x="168" y="768" type="curve"/>
      <point x="124" y="768"/>
      <point x="95" y="748"/>
      <point x="69" y="719" type="curve"/>
      <point x="86" y="691"/>
      <point x="75" y="713"/>
      <point x="92" y="684" type="curve"/>
      <point x="109" y="703"/>
      <point x="128" y="724"/>
      <point x="161" y="724" type="curve"/>
      <point x="196" y="724"/>
      <point x="216" y="701"/>
      <point x="216" y="665" type="curve"/>
      <point x="216" y="580"/>
      <point x="216" y="512"/>
      <point x="216" y="427" type="curve"/>
      <point x="260" y="427"/>
      <point x="225" y="427"/>
    </contour>
    <contour>
      <point x="241" y="639" type="curve"/>
      <point x="208" y="634"/>
      <point x="186" y="631"/>
      <point x="152" y="625" type="curve"/>
      <point x="93" y="614"/>
      <point x="54" y="584"/>
      <point x="54" y="524" type="curve"/>
      <point x="54" y="464"/>
      <point x="87" y="426"/>
      <point x="146" y="426" type="curve"/>
      <point x="202" y="426"/>
      <point x="226" y="469"/>
      <point x="256" y="514" type="curve"/>
      <point x="234" y="533"/>
      <point x="251" y="519"/>
      <point x="229" y="538" type="curve"/>
      <point x="212" y="500"/>
      <point x="197" y="468"/>
      <point x="159" y="468" type="curve"/>
      <point x="122" y="468"/>
      <point x="106" y="492"/>
      <point x="106" y="527" type="curve"/>
      <point x="106" y="559"/>
      <point x="125" y="581"/>
      <point x="153" y="587" type="curve"/>
      <point x="188" y="593"/>
      <point x="208" y="597"/>
      <point x="243" y="603" type="curve"/>
      <point x="242" y="632"/>
      <point x="243" y="610"/>
    </contour>
  </outline>
</glyph>
<glyph name="guillemotleft" format="1">
  <advance width="457"/>
  <unicode hex="00AB"/>
  <outline>
    <contour>
      <point x="217" y="437" type="curve"/>
      <point x="199" y="423"/>
      <point x="62" y="332"/>
      <point x="44" y="317" type="curve"/>
      <point x="44" y="252"/>
      <point x="44" y="309"/>
      <point x="44" y="244" type="curve"/>
      <point x="62" y="259"/>
      <point x="199" y="354"/>
      <point x="217" y="368" type="curve"/>
      <point x="217" y="433"/>
      <point x="217" y="373"/>
    </contour>
    <contour>
      <point x="217" y="194" type="curve"/>
      <point x="200" y="209"/>
      <point x="62" y="303"/>
      <point x="44" y="317" type="curve"/>
      <point x="44" y="252"/>
      <point x="44" y="309"/>
      <point x="44" y="244" type="curve"/>
      <point x="62" y="229"/>
      <point x="200" y="140"/>
      <point x="217" y="126" type="curve"/>
      <point x="217" y="190"/>
      <point x="217" y="130"/>
    </contour>
    <contour>
      <point x="386" y="437" type="curve"/>
      <point x="368" y="423"/>
      <point x="231" y="332"/>
      <point x="213" y="317" type="curve"/>
      <point x="213" y="252"/>
      <point x="213" y="309"/>
      <point x="213" y="244" type="curve"/>
      <point x="231" y="259"/>
      <point x="368" y="354"/>
      <point x="386" y="368" type="curve"/>
      <point x="386" y="433"/>
      <point x="386" y="373"/>
    </contour>
    <contour>
      <point x="386" y="194" type="curve"/>
      <point x="368" y="209"/>
      <point x="231" y="303"/>
      <point x="213" y="317" type="curve"/>
      <point x="213" y="252"/>
      <point x="213" y="309"/>
      <point x="213" y="244" type="curve"/>
      <point x="231" y="229"/>
      <point x="368" y="140"/>
      <point x="386" y="126" type="curve"/>
      <point x="386" y="190"/>
      <point x="386" y="130"/>
    </contour>
  </outline>
</glyph>
<glyph name="logicalnot" format="1">
  <advance width="567"/>
  <unicode hex="00AC"/>
  <outline>
    <contour>
      <point x="77" y="279" type="curve"/>
      <point x="488" y="279" type="line"/>
      <point x="488" y="344"/>
      <point x="488" y="279"/>
      <point x="488" y="344" type="curve"/>
      <point x="77" y="344" type="line"/>
      <point x="77" y="279"/>
      <point x="77" y="344"/>
    </contour>
    <contour>
      <point x="488" y="147" type="curve"/>
      <point x="488" y="344" type="line"/>
      <point x="414" y="344"/>
      <point x="488" y="344"/>
      <point x="414" y="344" type="curve"/>
      <point x="414" y="147" type="line"/>
      <point x="488" y="147"/>
      <point x="414" y="147"/>
    </contour>
  </outline>
</glyph>
<glyph name="registered" format="1">
  <advance width="625"/>
  <unicode hex="00AE"/>
  <outline>
    <contour>
      <point x="113" y="320" type="curve"/>
      <point x="113" y="475"/>
      <point x="175" y="599"/>
      <point x="315" y="599" type="curve"/>
      <point x="454" y="599"/>
      <point x="512" y="474"/>
      <point x="512" y="319" type="curve"/>
      <point x="512" y="168"/>
      <point x="456" y="44"/>
      <point x="321" y="44" type="curve"/>
      <point x="180" y="44"/>
      <point x="113" y="166"/>
      <point x="113" y="320" type="curve"/>
      <point x="84" y="320"/>
      <point x="88" y="320"/>
      <point x="59" y="320" type="curve"/>
      <point x="59" y="138"/>
      <point x="147" y="-1"/>
      <point x="318" y="-1" type="curve"/>
      <point x="485" y="-1"/>
      <point x="566" y="140"/>
      <point x="566" y="321" type="curve"/>
      <point x="566" y="503"/>
      <point x="483" y="645"/>
      <point x="315" y="645" type="curve"/>
      <point x="145" y="645"/>
      <point x="59" y="504"/>
      <point x="59" y="320" type="curve"/>
      <point x="88" y="320"/>
      <point x="84" y="320"/>
    </contour>
    <contour>
      <point x="302" y="314" type="curve"/>
      <point x="314" y="283"/>
      <point x="359" y="176"/>
      <point x="371" y="146" type="curve"/>
      <point x="402" y="146"/>
      <point x="393" y="146"/>
      <point x="426" y="146" type="curve"/>
      <point x="413" y="176"/>
      <point x="369" y="279"/>
      <point x="356" y="311" type="curve"/>
      <point x="288" y="311"/>
      <point x="370" y="315"/>
    </contour>
    <contour>
      <point x="286" y="146" type="curve"/>
      <point x="286" y="251"/>
      <point x="286" y="393"/>
      <point x="286" y="498" type="curve"/>
      <point x="248" y="498"/>
      <point x="269" y="499"/>
      <point x="229" y="499" type="curve"/>
      <point x="229" y="393"/>
      <point x="229" y="250"/>
      <point x="229" y="146" type="curve"/>
      <point x="268" y="146"/>
      <point x="241" y="146"/>
    </contour>
    <contour>
      <point x="262" y="284" type="curve"/>
      <point x="275" y="284"/>
      <point x="290" y="284"/>
      <point x="303" y="284" type="curve"/>
      <point x="372" y="284"/>
      <point x="412" y="321"/>
      <point x="412" y="392" type="curve"/>
      <point x="412" y="455"/>
      <point x="377" y="499"/>
      <point x="317" y="499" type="curve"/>
      <point x="308" y="499"/>
      <point x="252" y="499"/>
      <point x="244" y="499" type="curve"/>
      <point x="229" y="465"/>
      <point x="291" y="499"/>
      <point x="229" y="448" type="curve"/>
      <point x="254" y="448"/>
      <point x="280" y="448"/>
      <point x="306" y="448" type="curve"/>
      <point x="338" y="448"/>
      <point x="356" y="425"/>
      <point x="356" y="389" type="curve"/>
      <point x="356" y="356"/>
      <point x="342" y="334"/>
      <point x="312" y="334" type="curve"/>
      <point x="295" y="334"/>
      <point x="278" y="334"/>
      <point x="262" y="334" type="curve"/>
      <point x="262" y="284"/>
      <point x="262" y="334"/>
    </contour>
  </outline>
</glyph>
<glyph name="macron" format="1">
  <advance width="270"/>
  <unicode hex="00AF"/>
  <outline>
    <contour>
      <point x="196" y="682" type="curve"/>
      <point x="142" y="682"/>
      <point x="88" y="682"/>
      <point x="34" y="682" type="curve"/>
      <point x="34" y="624"/>
      <point x="34" y="682"/>
      <point x="34" y="624" type="curve"/>
      <point x="88" y="624"/>
      <point x="142" y="624"/>
      <point x="196" y="624" type="curve"/>
      <point x="196" y="682"/>
      <point x="196" y="624"/>
    </contour>
    <contour>
      <point x="116" y="624" type="move" name="_top"/>
    </contour>
  </outline>
</glyph>
<glyph name="degree" format="1">
  <advance width="388"/>
  <unicode hex="00B0"/>
  <outline>
    <contour>
      <point x="332" y="512" type="curve"/>
      <point x="332" y="621"/>
      <point x="293" y="703"/>
      <point x="193" y="703" type="curve"/>
      <point x="95" y="703"/>
      <point x="56" y="621"/>
      <point x="56" y="514" type="curve"/>
      <point x="88" y="514"/>
      <point x="87" y="514"/>
      <point x="118" y="514" type="curve"/>
      <point x="118" y="586"/>
      <point x="128" y="649"/>
      <point x="191" y="649" type="curve"/>
      <point x="255" y="649"/>
      <point x="268" y="586"/>
      <point x="268" y="512" type="curve"/>
      <point x="268" y="437"/>
      <point x="259" y="372"/>
      <point x="194" y="372" type="curve"/>
      <point x="128" y="372"/>
      <point x="118" y="438"/>
      <point x="118" y="514" type="curve"/>
      <point x="87" y="514"/>
      <point x="88" y="514"/>
      <point x="56" y="514" type="curve"/>
      <point x="56" y="403"/>
      <point x="93" y="318"/>
      <point x="193" y="318" type="curve"/>
      <point x="295" y="318"/>
      <point x="332" y="402"/>
    </contour>
  </outline>
</glyph>
<glyph name="plusminus" format="1">
  <advance width="619"/>
  <unicode hex="00B1"/>
  <outline>
    <contour>
      <point x="60" y="34" type="line"/>
      <point x="559" y="34" type="line"/>
      <point x="559" y="99" type="line"/>
      <point x="60" y="99" type="line"/>
    </contour>
    <contour>
      <point x="60" y="279" type="curve"/>
      <point x="559" y="279" type="line"/>
      <point x="559" y="344"/>
      <point x="559" y="279"/>
      <point x="559" y="344" type="curve"/>
      <point x="60" y="344" type="line"/>
      <point x="60" y="279"/>
      <point x="60" y="344"/>
    </contour>
    <contour>
      <point x="344" y="35" type="curve"/>
      <point x="344" y="584" type="line"/>
      <point x="270" y="584"/>
      <point x="349" y="584"/>
      <point x="275" y="584" type="curve"/>
      <point x="275" y="35" type="line"/>
      <point x="349" y="35"/>
      <point x="270" y="35"/>
    </contour>
  </outline>
</glyph>
<glyph name="twosuperior" format="1">
  <advance width="374"/>
  <unicode hex="00B2"/>
  <outline>
    <contour>
      <point x="54" y="330" type="curve"/>
      <point x="139" y="330"/>
      <point x="233" y="330"/>
      <point x="312" y="330" type="curve"/>
      <point x="312" y="356"/>
      <point x="312" y="351"/>
      <point x="312" y="380" type="curve"/>
      <point x="230" y="380"/>
      <point x="135" y="380"/>
      <point x="54" y="380" type="curve"/>
      <point x="54" y="330"/>
      <point x="54" y="380"/>
    </contour>
    <contour>
      <point x="120" y="636" type="curve"/>
      <point x="132" y="672"/>
      <point x="146" y="702"/>
      <point x="184" y="702" type="curve"/>
      <point x="224" y="702"/>
      <point x="240" y="667"/>
      <point x="240" y="623" type="curve"/>
      <point x="240" y="580"/>
      <point x="218" y="554"/>
      <point x="191" y="522" type="curve"/>
      <point x="145" y="474"/>
      <point x="99" y="427"/>
      <point x="54" y="380" type="curve"/>
      <point x="60" y="330"/>
      <point x="54" y="380"/>
      <point x="60" y="330" type="curve"/>
      <point x="115" y="381"/>
      <point x="181" y="431"/>
      <point x="231" y="482" type="curve"/>
      <point x="270" y="528"/>
      <point x="299" y="564"/>
      <point x="299" y="625" type="curve"/>
      <point x="299" y="700"/>
      <point x="258" y="752"/>
      <point x="186" y="752" type="curve"/>
      <point x="128" y="752"/>
      <point x="92" y="721"/>
      <point x="74" y="654" type="curve"/>
      <point x="120" y="636"/>
      <point x="74" y="654"/>
    </contour>
    <contour>
      <point x="196" y="752" type="move" name="_top"/>
    </contour>
    <contour>
      <point x="175" y="329" type="move" name="_bottom"/>
    </contour>
  </outline>
</glyph>
<glyph name="threesuperior" format="1">
  <advance width="335"/>
  <unicode hex="00B3"/>
  <outline>
    <contour>
      <point x="94" y="663" type="curve"/>
      <point x="109" y="682"/>
      <point x="125" y="700"/>
      <point x="150" y="700" type="curve"/>
      <point x="188" y="700"/>
      <point x="207" y="673"/>
      <point x="207" y="632" type="curve"/>
      <point x="207" y="589"/>
      <point x="168" y="566"/>
      <point x="120" y="562" type="curve"/>
      <point x="120" y="519"/>
      <point x="120" y="562"/>
      <point x="120" y="519" type="curve"/>
      <point x="204" y="522"/>
      <point x="269" y="559"/>
      <point x="269" y="637" type="curve"/>
      <point x="269" y="707"/>
      <point x="227" y="750"/>
      <point x="156" y="750" type="curve"/>
      <point x="115" y="750"/>
      <point x="79" y="727"/>
      <point x="56" y="694" type="curve"/>
      <point x="94" y="663"/>
      <point x="56" y="694"/>
    </contour>
    <contour>
      <point x="54" y="358" type="curve"/>
      <point x="81" y="337"/>
      <point x="110" y="324"/>
      <point x="144" y="324" type="curve"/>
      <point x="227" y="321"/>
      <point x="281" y="365"/>
      <point x="281" y="445" type="curve"/>
      <point x="281" y="524"/>
      <point x="208" y="551"/>
      <point x="120" y="554" type="curve"/>
      <point x="120" y="517"/>
      <point x="120" y="554"/>
      <point x="120" y="517" type="curve"/>
      <point x="176" y="513"/>
      <point x="218" y="489"/>
      <point x="218" y="443" type="curve"/>
      <point x="218" y="400"/>
      <point x="193" y="371"/>
      <point x="150" y="373" type="curve"/>
      <point x="126" y="373"/>
      <point x="104" y="381"/>
      <point x="85" y="396" type="curve"/>
      <point x="54" y="358"/>
      <point x="85" y="396"/>
    </contour>
    <contour>
      <point x="173" y="750" type="move" name="_top"/>
    </contour>
    <contour>
      <point x="163" y="324" type="move" name="_bottom"/>
    </contour>
  </outline>
</glyph>
<glyph name="paragraph" format="1">
  <advance width="616"/>
  <unicode hex="00B6"/>
  <outline>
    <contour>
      <point x="336" y="663" type="curve"/>
      <point x="470" y="663"/>
      <point x="336" y="663"/>
      <point x="470" y="663" type="curve"/>
      <point x="470" y="722"/>
      <point x="470" y="663"/>
      <point x="470" y="722" type="curve"/>
      <point x="425" y="722"/>
      <point x="381" y="722"/>
      <point x="336" y="722" type="curve"/>
      <point x="336" y="663"/>
      <point x="336" y="722"/>
    </contour>
    <contour>
      <point x="323" y="364" type="curve"/>
      <point x="289" y="341"/>
      <point x="263" y="326"/>
      <point x="221" y="326" type="curve"/>
      <point x="143" y="326"/>
      <point x="112" y="397"/>
      <point x="112" y="485" type="curve"/>
      <point x="112" y="584"/>
      <point x="156" y="663"/>
      <point x="248" y="663" type="curve"/>
      <point x="277" y="663"/>
      <point x="305" y="663"/>
      <point x="334" y="663" type="curve"/>
      <point x="334" y="722"/>
      <point x="334" y="663"/>
      <point x="334" y="722" type="curve"/>
      <point x="302" y="722"/>
      <point x="270" y="722"/>
      <point x="238" y="722" type="curve"/>
      <point x="109" y="722"/>
      <point x="38" y="622"/>
      <point x="38" y="488" type="curve"/>
      <point x="38" y="356"/>
      <point x="105" y="270"/>
      <point x="227" y="268" type="curve"/>
      <point x="273" y="268"/>
      <point x="310" y="289"/>
      <point x="347" y="314" type="curve"/>
      <point x="323" y="363"/>
      <point x="346" y="316"/>
    </contour>
    <contour>
      <point x="374" y="0" type="curve"/>
      <point x="374" y="241"/>
      <point x="374" y="481"/>
      <point x="374" y="722" type="curve"/>
      <point x="300" y="722"/>
      <point x="374" y="722"/>
      <point x="300" y="722" type="curve"/>
      <point x="300" y="481"/>
      <point x="300" y="241"/>
      <point x="300" y="0" type="curve"/>
      <point x="374" y="0"/>
      <point x="300" y="0"/>
    </contour>
    <contour>
      <point x="533" y="0" type="curve"/>
      <point x="533" y="241"/>
      <point x="533" y="481"/>
      <point x="533" y="722" type="curve"/>
      <point x="459" y="722"/>
      <point x="533" y="722"/>
      <point x="459" y="722" type="curve"/>
      <point x="459" y="481"/>
      <point x="459" y="241"/>
      <point x="459" y="0" type="curve"/>
      <point x="533" y="0"/>
      <point x="459" y="0"/>
    </contour>
  </outline>
</glyph>
<glyph name="periodcentered" format="1">
  <advance width="212"/>
  <unicode hex="00B7"/>
  <outline>
    <contour>
      <point x="147" y="440" type="curve"/>
      <point x="147" y="467"/>
      <point x="130" y="480"/>
      <point x="105" y="480" type="curve"/>
      <point x="81" y="480"/>
      <point x="65" y="465"/>
      <point x="65" y="440" type="curve"/>
      <point x="147" y="440"/>
      <point x="65" y="440"/>
      <point x="147" y="440" type="curve"/>
      <point x="147" y="413"/>
      <point x="130" y="400"/>
      <point x="105" y="400" type="curve"/>
      <point x="80" y="400"/>
      <point x="65" y="414"/>
      <point x="65" y="440" type="curve"/>
      <point x="147" y="440"/>
      <point x="65" y="440"/>
    </contour>
  </outline>
</glyph>
<glyph name="cedilla" format="1">
  <advance width="274"/>
  <unicode hex="00B8"/>
  <outline>
    <contour>
      <point x="130" y="80" type="curve"/>
      <point x="119" y="55"/>
      <point x="97" y="-1"/>
      <point x="87" y="-25" type="curve"/>
      <point x="138" y="-73"/>
      <point x="87" y="-25"/>
      <point x="138" y="-73" type="curve"/>
      <point x="149" y="-45"/>
      <point x="176" y="12"/>
      <point x="187" y="39" type="curve"/>
      <point x="130" y="80"/>
      <point x="187" y="39"/>
    </contour>
    <contour>
      <point x="138" y="-73" type="curve"/>
      <point x="145" y="-66"/>
      <point x="151" y="-62"/>
      <point x="161" y="-62" type="curve"/>
      <point x="180" y="-62"/>
      <point x="185" y="-78"/>
      <point x="185" y="-100" type="curve"/>
      <point x="185" y="-124"/>
      <point x="172" y="-139"/>
      <point x="149" y="-139" type="curve"/>
      <point x="131" y="-139"/>
      <point x="116" y="-135"/>
      <point x="101" y="-123" type="curve"/>
      <point x="73" y="-167"/>
      <point x="101" y="-123"/>
      <point x="73" y="-167" type="curve"/>
      <point x="95" y="-184"/>
      <point x="117" y="-191"/>
      <point x="146" y="-191" type="curve"/>
      <point x="201" y="-191"/>
      <point x="235" y="-156"/>
      <point x="235" y="-99" type="curve"/>
      <point x="235" y="-44"/>
      <point x="207" y="-5"/>
      <point x="155" y="-5" type="curve"/>
      <point x="129" y="-5"/>
      <point x="110" y="-11"/>
      <point x="87" y="-25" type="curve"/>
      <point x="138" y="-73"/>
      <point x="87" y="-25"/>
    </contour>
    <contour>
      <point x="183" y="39" type="move" name="_bottom"/>
    </contour>
  </outline>
</glyph>
<glyph name="onesuperior" format="1">
  <advance width="256"/>
  <unicode hex="00B9"/>
  <outline>
    <contour>
      <point x="60" y="604" type="line"/>
      <point x="176" y="737" type="line"/>
      <point x="115" y="742" type="line"/>
      <point x="22" y="641" type="line"/>
    </contour>
    <contour>
      <point x="177" y="330" type="curve"/>
      <point x="177" y="742" type="line"/>
      <point x="115" y="742" type="line"/>
      <point x="115" y="330" type="line"/>
      <point x="154" y="330"/>
      <point x="133" y="330"/>
    </contour>
    <contour>
      <point x="141" y="740" type="move" name="_top"/>
    </contour>
    <contour>
      <point x="147" y="332" type="move" name="_bottom"/>
    </contour>
  </outline>
</glyph>
<glyph name="ordmasculine" format="1">
  <advance width="340"/>
  <unicode hex="00BA"/>
  <outline>
    <contour>
      <point x="99" y="601" type="curve"/>
      <point x="99" y="667"/>
      <point x="112" y="723"/>
      <point x="170" y="723" type="curve"/>
      <point x="225" y="723"/>
      <point x="238" y="666"/>
      <point x="238" y="599" type="curve"/>
      <point x="238" y="527"/>
      <point x="227" y="467"/>
      <point x="174" y="467" type="curve"/>
      <point x="111" y="467"/>
      <point x="99" y="528"/>
      <point x="99" y="601" type="curve"/>
      <point x="85" y="601"/>
      <point x="63" y="601"/>
      <point x="49" y="601" type="curve"/>
      <point x="49" y="499"/>
      <point x="82" y="423"/>
      <point x="172" y="423" type="curve"/>
      <point x="258" y="423"/>
      <point x="291" y="498"/>
      <point x="291" y="599" type="curve"/>
      <point x="291" y="695"/>
      <point x="259" y="766"/>
      <point x="172" y="766" type="curve"/>
      <point x="82" y="766"/>
      <point x="49" y="695"/>
      <point x="49" y="601" type="curve"/>
      <point x="63" y="601"/>
      <point x="85" y="601"/>
    </contour>
  </outline>
</glyph>
<glyph name="guillemotright" format="1">
  <advance width="466"/>
  <unicode hex="00BB"/>
  <outline>
    <contour>
      <point x="246" y="437" type="curve"/>
      <point x="264" y="423"/>
      <point x="401" y="332"/>
      <point x="419" y="317" type="curve"/>
      <point x="419" y="252"/>
      <point x="419" y="309"/>
      <point x="419" y="244" type="curve"/>
      <point x="401" y="259"/>
      <point x="264" y="354"/>
      <point x="246" y="368" type="curve"/>
      <point x="246" y="433"/>
      <point x="246" y="373"/>
    </contour>
    <contour>
      <point x="246" y="194" type="curve"/>
      <point x="263" y="209"/>
      <point x="401" y="303"/>
      <point x="419" y="317" type="curve"/>
      <point x="419" y="252"/>
      <point x="419" y="309"/>
      <point x="419" y="244" type="curve"/>
      <point x="401" y="229"/>
      <point x="263" y="140"/>
      <point x="246" y="126" type="curve"/>
      <point x="246" y="190"/>
      <point x="246" y="130"/>
    </contour>
    <contour>
      <point x="77" y="437" type="curve"/>
      <point x="95" y="423"/>
      <point x="232" y="332"/>
      <point x="250" y="317" type="curve"/>
      <point x="250" y="252"/>
      <point x="250" y="309"/>
      <point x="250" y="244" type="curve"/>
      <point x="232" y="259"/>
      <point x="95" y="354"/>
      <point x="77" y="368" type="curve"/>
      <point x="77" y="433"/>
      <point x="77" y="373"/>
    </contour>
    <contour>
      <point x="77" y="194" type="curve"/>
      <point x="95" y="209"/>
      <point x="232" y="303"/>
      <point x="250" y="317" type="curve"/>
      <point x="250" y="252"/>
      <point x="250" y="309"/>
      <point x="250" y="244" type="curve"/>
      <point x="232" y="229"/>
      <point x="95" y="140"/>
      <point x="77" y="126" type="curve"/>
      <point x="77" y="190"/>
      <point x="77" y="130"/>
    </contour>
  </outline>
</glyph>
<glyph name="onequarter" format="1">
  <advance width="745"/>
  <unicode hex="00BC"/>
  <outline>
    <contour>
      <point x="247" y="-69" type="line"/>
      <point x="555" y="736" type="line"/>
      <point x="484" y="736" type="line"/>
      <point x="177" y="-69" type="line"/>
    </contour>
    <contour>
      <point x="66" y="601" type="line"/>
      <point x="183" y="733" type="line"/>
      <point x="122" y="739" type="line"/>
      <point x="29" y="637" type="line"/>
    </contour>
    <contour>
      <point x="184" y="326" type="curve"/>
      <point x="184" y="739" type="line"/>
      <point x="122" y="739" type="line"/>
      <point x="122" y="326" type="line"/>
      <point x="161" y="326"/>
      <point x="140" y="326"/>
    </contour>
    <contour>
      <point x="710" y="96" type="line"/>
      <point x="416" y="96" type="line"/>
      <point x="416" y="47" type="line"/>
      <point x="710" y="47" type="line"/>
    </contour>
    <contour>
      <point x="442" y="50" type="line"/>
      <point x="623" y="353" type="line"/>
      <point x="576" y="366" type="line"/>
      <point x="416" y="96" type="line"/>
    </contour>
    <contour>
      <point x="638" y="-65" type="line"/>
      <point x="638" y="366" type="line"/>
      <point x="576" y="366" type="line"/>
      <point x="576" y="-65" type="line"/>
    </contour>
  </outline>
</glyph>
<glyph name="onehalf" format="1">
  <advance width="797"/>
  <unicode hex="00BD"/>
  <outline>
    <contour>
      <point x="271" y="-69" type="line"/>
      <point x="579" y="736" type="line"/>
      <point x="508" y="736" type="line"/>
      <point x="201" y="-69" type="line"/>
    </contour>
    <contour>
      <point x="66" y="601" type="line"/>
      <point x="183" y="733" type="line"/>
      <point x="122" y="739" type="line"/>
      <point x="29" y="637" type="line"/>
    </contour>
    <contour>
      <point x="184" y="326" type="curve"/>
      <point x="184" y="739" type="line"/>
      <point x="122" y="739" type="line"/>
      <point x="122" y="326" type="line"/>
      <point x="161" y="326"/>
      <point x="140" y="326"/>
    </contour>
    <contour>
      <point x="498" y="-66" type="curve"/>
      <point x="583" y="-66"/>
      <point x="678" y="-66"/>
      <point x="757" y="-66" type="curve"/>
      <point x="757" y="-40"/>
      <point x="757" y="-44"/>
      <point x="757" y="-16" type="curve"/>
      <point x="675" y="-16"/>
      <point x="580" y="-16"/>
      <point x="498" y="-16" type="curve"/>
      <point x="498" y="-66"/>
      <point x="498" y="-16"/>
    </contour>
    <contour>
      <point x="564" y="241" type="curve"/>
      <point x="577" y="276"/>
      <point x="591" y="306"/>
      <point x="628" y="306" type="curve"/>
      <point x="668" y="306"/>
      <point x="685" y="271"/>
      <point x="685" y="227" type="curve"/>
      <point x="685" y="184"/>
      <point x="663" y="159"/>
      <point x="635" y="126" type="curve"/>
      <point x="590" y="79"/>
      <point x="544" y="31"/>
      <point x="498" y="-16" type="curve"/>
      <point x="505" y="-66"/>
      <point x="498" y="-16"/>
      <point x="505" y="-66" type="curve"/>
      <point x="560" y="-15"/>
      <point x="626" y="35"/>
      <point x="675" y="87" type="curve"/>
      <point x="714" y="132"/>
      <point x="744" y="168"/>
      <point x="744" y="230" type="curve"/>
      <point x="744" y="304"/>
      <point x="703" y="356"/>
      <point x="631" y="356" type="curve"/>
      <point x="573" y="356"/>
      <point x="537" y="326"/>
      <point x="518" y="259" type="curve"/>
      <point x="564" y="241"/>
      <point x="518" y="259"/>
    </contour>
  </outline>
</glyph>
<glyph name="threequarters" format="1">
  <advance width="781"/>
  <unicode hex="00BE"/>
  <outline>
    <contour>
      <point x="285" y="-69" type="line"/>
      <point x="593" y="736" type="line"/>
      <point x="522" y="736" type="line"/>
      <point x="215" y="-69" type="line"/>
    </contour>
    <contour>
      <point x="84" y="650" type="curve"/>
      <point x="99" y="669"/>
      <point x="115" y="687"/>
      <point x="140" y="687" type="curve"/>
      <point x="178" y="687"/>
      <point x="197" y="660"/>
      <point x="197" y="619" type="curve"/>
      <point x="197" y="576"/>
      <point x="158" y="553"/>
      <point x="110" y="549" type="curve"/>
      <point x="110" y="506"/>
      <point x="110" y="549"/>
      <point x="110" y="506" type="curve"/>
      <point x="194" y="509"/>
      <point x="259" y="547"/>
      <point x="259" y="624" type="curve"/>
      <point x="259" y="694"/>
      <point x="217" y="737"/>
      <point x="146" y="737" type="curve"/>
      <point x="105" y="737"/>
      <point x="69" y="714"/>
      <point x="46" y="681" type="curve"/>
      <point x="84" y="650"/>
      <point x="46" y="681"/>
    </contour>
    <contour>
      <point x="44" y="345" type="curve"/>
      <point x="71" y="324"/>
      <point x="100" y="311"/>
      <point x="134" y="311" type="curve"/>
      <point x="217" y="308"/>
      <point x="271" y="352"/>
      <point x="271" y="432" type="curve"/>
      <point x="271" y="511"/>
      <point x="198" y="538"/>
      <point x="110" y="541" type="curve"/>
      <point x="110" y="504"/>
      <point x="110" y="541"/>
      <point x="110" y="504" type="curve"/>
      <point x="166" y="500"/>
      <point x="208" y="476"/>
      <point x="208" y="430" type="curve"/>
      <point x="208" y="387"/>
      <point x="183" y="358"/>
      <point x="140" y="360" type="curve"/>
      <point x="116" y="360"/>
      <point x="94" y="368"/>
      <point x="75" y="383" type="curve"/>
      <point x="44" y="345"/>
      <point x="75" y="383"/>
    </contour>
    <contour>
      <point x="749" y="96" type="line"/>
      <point x="455" y="96" type="line"/>
      <point x="455" y="47" type="line"/>
      <point x="749" y="47" type="line"/>
    </contour>
    <contour>
      <point x="481" y="50" type="line"/>
      <point x="662" y="353" type="line"/>
      <point x="615" y="366" type="line"/>
      <point x="455" y="96" type="line"/>
    </contour>
    <contour>
      <point x="676" y="-65" type="line"/>
      <point x="676" y="366" type="line"/>
      <point x="615" y="366" type="line"/>
      <point x="615" y="-65" type="line"/>
    </contour>
  </outline>
</glyph>
<glyph name="questiondown" format="1">
  <advance width="425"/>
  <unicode hex="00BF"/>
  <outline>
    <contour>
      <point x="258" y="370" type="curve"/>
      <point x="258" y="407"/>
      <point x="258" y="466"/>
      <point x="258" y="503" type="curve"/>
      <point x="189" y="503"/>
      <point x="258" y="503"/>
      <point x="189" y="503" type="curve"/>
      <point x="189" y="466"/>
      <point x="189" y="407"/>
      <point x="189" y="370" type="curve"/>
      <point x="258" y="370"/>
      <point x="189" y="370"/>
    </contour>
    <contour>
      <point x="335" y="119" type="line"/>
      <point x="310" y="84"/>
      <point x="280" y="59"/>
      <point x="232" y="59" type="curve"/>
      <point x="155" y="59"/>
      <point x="120" y="123"/>
      <point x="120" y="205" type="curve"/>
      <point x="120" y="298"/>
      <point x="162" y="370"/>
      <point x="249" y="370" type="curve"/>
      <point x="249" y="400"/>
      <point x="250" y="398"/>
      <point x="250" y="428" type="curve"/>
      <point x="121" y="428"/>
      <point x="48" y="335"/>
      <point x="48" y="205" type="curve"/>
      <point x="48" y="83"/>
      <point x="114" y="-4"/>
      <point x="228" y="-4" type="curve"/>
      <point x="299" y="-4"/>
      <point x="344" y="27"/>
      <point x="377" y="74" type="curve"/>
    </contour>
    <contour>
      <point x="182" y="691" type="curve"/>
      <point x="182" y="664"/>
      <point x="200" y="650"/>
      <point x="224" y="650" type="curve"/>
      <point x="249" y="650"/>
      <point x="265" y="665"/>
      <point x="265" y="691" type="curve"/>
      <point x="182" y="691"/>
      <point x="265" y="691"/>
      <point x="182" y="691" type="curve"/>
      <point x="182" y="718"/>
      <point x="199" y="730"/>
      <point x="224" y="730" type="curve"/>
      <point x="250" y="730"/>
      <point x="265" y="717"/>
      <point x="265" y="691" type="curve"/>
      <point x="182" y="691"/>
      <point x="265" y="691"/>
    </contour>
  </outline>
</glyph>
<glyph name="Atilde" format="1">
  <advance width="510"/>
  <unicode hex="00C3"/>
  <outline>
    <contour>
      <point x="370" y="284" type="curve"/>
      <point x="293" y="284"/>
      <point x="216" y="284"/>
      <point x="138" y="284" type="curve"/>
      <point x="108" y="222"/>
      <point x="138" y="284"/>
      <point x="108" y="222" type="curve"/>
      <point x="203" y="222"/>
      <point x="299" y="222"/>
      <point x="394" y="222" type="curve"/>
      <point x="370" y="284"/>
      <point x="394" y="222"/>
    </contour>
    <contour>
      <point x="491" y="0" type="curve"/>
      <point x="426" y="241"/>
      <point x="358" y="481"/>
      <point x="293" y="722" type="curve"/>
      <point x="225" y="722"/>
      <point x="293" y="722"/>
      <point x="225" y="722" type="curve"/>
      <point x="289" y="481"/>
      <point x="350" y="241"/>
      <point x="414" y="0" type="curve"/>
      <point x="491" y="0"/>
      <point x="414" y="0"/>
    </contour>
    <contour>
      <point x="82" y="0" type="curve"/>
      <point x="153" y="241"/>
      <point x="220" y="481"/>
      <point x="291" y="722" type="curve"/>
      <point x="224" y="722"/>
      <point x="291" y="722"/>
      <point x="224" y="722" type="curve"/>
      <point x="151" y="481"/>
      <point x="74" y="241"/>
      <point x="1" y="0" type="curve"/>
      <point x="82" y="0"/>
      <point x="1" y="0"/>
    </contour>
    <contour>
      <point x="364" y="959" type="curve"/>
      <point x="352" y="915"/>
      <point x="344" y="882"/>
      <point x="318" y="882" type="curve"/>
      <point x="290" y="882"/>
      <point x="278" y="897"/>
      <point x="261" y="919" type="curve"/>
      <point x="239" y="944"/>
      <point x="225" y="962"/>
      <point x="192" y="962" type="curve"/>
      <point x="130" y="962"/>
      <point x="110" y="901"/>
      <point x="96" y="837" type="curve"/>
      <point x="152" y="808"/>
      <point x="96" y="838"/>
      <point x="152" y="808" type="curve"/>
      <point x="165" y="856"/>
      <point x="174" y="887"/>
      <point x="206" y="887" type="curve"/>
      <point x="231" y="887"/>
      <point x="240" y="871"/>
      <point x="254" y="852" type="curve"/>
      <point x="278" y="824"/>
      <point x="296" y="805"/>
      <point x="332" y="805" type="curve"/>
      <point x="394" y="805"/>
      <point x="406" y="867"/>
      <point x="424" y="932" type="curve"/>
      <point x="364" y="959"/>
      <point x="424" y="931"/>
    </contour>
  </outline>
</glyph>
<glyph name="Aring" format="1">
  <advance width="510"/>
  <unicode hex="00C5"/>
  <outline>
    <contour>
      <point x="370" y="284" type="curve"/>
      <point x="293" y="284"/>
      <point x="216" y="284"/>
      <point x="138" y="284" type="curve"/>
      <point x="108" y="222"/>
      <point x="138" y="284"/>
      <point x="108" y="222" type="curve"/>
      <point x="203" y="222"/>
      <point x="299" y="222"/>
      <point x="394" y="222" type="curve"/>
      <point x="370" y="284"/>
      <point x="394" y="222"/>
    </contour>
    <contour>
      <point x="491" y="0" type="curve"/>
      <point x="426" y="241"/>
      <point x="358" y="481"/>
      <point x="293" y="722" type="curve"/>
      <point x="225" y="722"/>
      <point x="293" y="722"/>
      <point x="225" y="722" type="curve"/>
      <point x="289" y="481"/>
      <point x="350" y="241"/>
      <point x="414" y="0" type="curve"/>
      <point x="491" y="0"/>
      <point x="414" y="0"/>
    </contour>
    <contour>
      <point x="82" y="0" type="curve"/>
      <point x="153" y="241"/>
      <point x="220" y="481"/>
      <point x="291" y="722" type="curve"/>
      <point x="224" y="722"/>
      <point x="291" y="722"/>
      <point x="224" y="722" type="curve"/>
      <point x="151" y="481"/>
      <point x="74" y="241"/>
      <point x="1" y="0" type="curve"/>
      <point x="82" y="0"/>
      <point x="1" y="0"/>
    </contour>
    <contour>
      <point x="147" y="934" type="curve"/>
      <point x="147" y="859"/>
      <point x="185" y="805"/>
      <point x="256" y="805" type="curve"/>
      <point x="329" y="805"/>
      <point x="367" y="858"/>
      <point x="367" y="934" type="curve"/>
      <point x="367" y="1010"/>
      <point x="328" y="1064"/>
      <point x="254" y="1064" type="curve"/>
      <point x="183" y="1064"/>
      <point x="147" y="1010"/>
      <point x="147" y="934" type="curve"/>
      <point x="214" y="934"/>
      <point x="143" y="934"/>
      <point x="209" y="934" type="curve"/>
      <point x="209" y="974"/>
      <point x="217" y="1009"/>
      <point x="254" y="1009" type="curve"/>
      <point x="293" y="1009"/>
      <point x="303" y="975"/>
      <point x="303" y="934" type="curve"/>
      <point x="303" y="894"/>
      <point x="294" y="859"/>
      <point x="256" y="859" type="curve"/>
      <point x="218" y="859"/>
      <point x="209" y="894"/>
      <point x="209" y="934" type="curve"/>
      <point x="143" y="934"/>
      <point x="214" y="934"/>
    </contour>
  </outline>
</glyph>
<glyph name="AE" format="1">
  <advance width="710"/>
  <unicode hex="00C6"/>
  <outline>
    <contour>
      <point x="352" y="277" type="curve"/>
      <point x="274" y="277"/>
      <point x="227" y="277"/>
      <point x="150" y="277" type="curve"/>
      <point x="119" y="215"/>
      <point x="150" y="277"/>
      <point x="119" y="215" type="curve"/>
      <point x="215" y="215"/>
      <point x="280" y="215"/>
      <point x="376" y="215" type="curve"/>
      <point x="352" y="277"/>
      <point x="376" y="215"/>
    </contour>
    <contour>
      <point x="74" y="0" type="curve"/>
      <point x="406" y="722" type="line"/>
      <point x="339" y="722"/>
      <point x="406" y="722"/>
      <point x="339" y="722" type="curve"/>
      <point x="-7" y="0" type="line"/>
      <point x="74" y="0"/>
      <point x="-7" y="0"/>
    </contour>
    <contour>
      <point x="380" y="344" type="curve"/>
      <point x="458" y="344"/>
      <point x="537" y="344"/>
      <point x="616" y="344" type="curve"/>
      <point x="616" y="403"/>
      <point x="616" y="344"/>
      <point x="616" y="403" type="curve"/>
      <point x="537" y="403"/>
      <point x="458" y="403"/>
      <point x="380" y="403" type="curve"/>
      <point x="380" y="344"/>
      <point x="380" y="403"/>
    </contour>
    <contour>
      <point x="369" y="663" type="curve"/>
      <point x="467" y="663"/>
      <point x="564" y="663"/>
      <point x="662" y="663" type="curve"/>
      <point x="662" y="722"/>
      <point x="662" y="663"/>
      <point x="662" y="722" type="curve"/>
      <point x="564" y="722"/>
      <point x="467" y="722"/>
      <point x="369" y="722" type="curve"/>
      <point x="369" y="663"/>
      <point x="369" y="722"/>
    </contour>
    <contour>
      <point x="414" y="0" type="curve"/>
      <point x="414" y="722" type="line"/>
      <point x="340" y="722"/>
      <point x="414" y="722"/>
      <point x="340" y="722" type="curve"/>
      <point x="340" y="481"/>
      <point x="340" y="241"/>
      <point x="340" y="0" type="curve"/>
      <point x="414" y="0"/>
      <point x="340" y="0"/>
    </contour>
    <contour>
      <point x="369" y="0" type="curve"/>
      <point x="475" y="0"/>
      <point x="580" y="0"/>
      <point x="686" y="0" type="curve"/>
      <point x="686" y="59"/>
      <point x="686" y="0"/>
      <point x="686" y="59" type="curve"/>
      <point x="580" y="59"/>
      <point x="475" y="59"/>
      <point x="369" y="59" type="curve"/>
      <point x="369" y="0"/>
      <point x="369" y="59"/>
    </contour>
  </outline>
</glyph>
<glyph name="Ccedilla" format="1">
  <advance width="532"/>
  <unicode hex="00C7"/>
  <outline>
    <contour>
      <point x="495" y="655" type="curve"/>
      <point x="446" y="695"/>
      <point x="386" y="727"/>
      <point x="315" y="727" type="curve"/>
      <point x="123" y="727"/>
      <point x="57" y="563"/>
      <point x="57" y="344" type="curve"/>
      <point x="57" y="144"/>
      <point x="121" y="-5"/>
      <point x="301" y="-5" type="curve"/>
      <point x="393" y="-5"/>
      <point x="452" y="32"/>
      <point x="509" y="97" type="curve"/>
      <point x="464" y="142"/>
      <point x="508" y="97"/>
      <point x="464" y="142" type="curve"/>
      <point x="418" y="91"/>
      <point x="375" y="58"/>
      <point x="304" y="58" type="curve"/>
      <point x="165" y="58"/>
      <point x="131" y="186"/>
      <point x="131" y="347" type="curve"/>
      <point x="131" y="523"/>
      <point x="166" y="665"/>
      <point x="313" y="665" type="curve"/>
      <point x="369" y="665"/>
      <point x="416" y="640"/>
      <point x="455" y="608" type="curve"/>
      <point x="495" y="655"/>
      <point x="455" y="608"/>
    </contour>
    <contour>
      <point x="265" y="40" type="curve"/>
      <point x="255" y="16"/>
      <point x="232" y="-40"/>
      <point x="222" y="-65" type="curve"/>
      <point x="273" y="-112"/>
      <point x="222" y="-65"/>
      <point x="273" y="-112" type="curve"/>
      <point x="284" y="-85"/>
      <point x="311" y="-27"/>
      <point x="322" y="-1" type="curve"/>
      <point x="265" y="40"/>
      <point x="322" y="-1"/>
    </contour>
    <contour>
      <point x="273" y="-112" type="curve"/>
      <point x="281" y="-105"/>
      <point x="286" y="-101"/>
      <point x="296" y="-101" type="curve"/>
      <point x="315" y="-101"/>
      <point x="321" y="-117"/>
      <point x="321" y="-139" type="curve"/>
      <point x="321" y="-163"/>
      <point x="308" y="-178"/>
      <point x="285" y="-178" type="curve"/>
      <point x="266" y="-178"/>
      <point x="252" y="-174"/>
      <point x="237" y="-162" type="curve"/>
      <point x="208" y="-206"/>
      <point x="237" y="-162"/>
      <point x="208" y="-206" type="curve"/>
      <point x="231" y="-223"/>
      <point x="252" y="-230"/>
      <point x="281" y="-230" type="curve"/>
      <point x="336" y="-230"/>
      <point x="371" y="-195"/>
      <point x="371" y="-138" type="curve"/>
      <point x="371" y="-83"/>
      <point x="342" y="-45"/>
      <point x="291" y="-45" type="curve"/>
      <point x="264" y="-45"/>
      <point x="245" y="-50"/>
      <point x="222" y="-65" type="curve"/>
      <point x="273" y="-112"/>
      <point x="222" y="-65"/>
    </contour>
  </outline>
</glyph>
<glyph name="Egrave" format="1">
  <advance width="479"/>
  <unicode hex="00C8"/>
  <outline>
    <contour>
      <point x="148" y="344" type="curve"/>
      <point x="227" y="344"/>
      <point x="306" y="344"/>
      <point x="385" y="344" type="curve"/>
      <point x="385" y="403"/>
      <point x="385" y="344"/>
      <point x="385" y="403" type="curve"/>
      <point x="306" y="403"/>
      <point x="227" y="403"/>
      <point x="148" y="403" type="curve"/>
      <point x="148" y="344"/>
      <point x="148" y="403"/>
    </contour>
    <contour>
      <point x="138" y="663" type="curve"/>
      <point x="236" y="663"/>
      <point x="333" y="663"/>
      <point x="430" y="663" type="curve"/>
      <point x="430" y="722"/>
      <point x="430" y="663"/>
      <point x="430" y="722" type="curve"/>
      <point x="333" y="722"/>
      <point x="236" y="722"/>
      <point x="138" y="722" type="curve"/>
      <point x="138" y="663"/>
      <point x="138" y="722"/>
    </contour>
    <contour>
      <point x="182" y="0" type="curve"/>
      <point x="182" y="722" type="line"/>
      <point x="108" y="722"/>
      <point x="182" y="722"/>
      <point x="108" y="722" type="curve"/>
      <point x="108" y="481"/>
      <point x="108" y="241"/>
      <point x="108" y="0" type="curve"/>
      <point x="182" y="0"/>
      <point x="108" y="0"/>
    </contour>
    <contour>
      <point x="138" y="0" type="curve"/>
      <point x="244" y="0"/>
      <point x="349" y="0"/>
      <point x="455" y="0" type="curve"/>
      <point x="455" y="59"/>
      <point x="455" y="0"/>
      <point x="455" y="59" type="curve"/>
      <point x="349" y="59"/>
      <point x="244" y="59"/>
      <point x="138" y="59" type="curve"/>
      <point x="138" y="0"/>
      <point x="138" y="59"/>
    </contour>
    <contour>
      <point x="284" y="807" type="line"/>
      <point x="210" y="973" type="line"/>
      <point x="119" y="973" type="line"/>
      <point x="213" y="807" type="line"/>
    </contour>
  </outline>
</glyph>
<glyph name="Ecircumflex" format="1">
  <advance width="460"/>
  <unicode hex="00CA"/>
  <outline>
    <contour>
      <point x="135" y="344" type="curve"/>
      <point x="214" y="344"/>
      <point x="293" y="344"/>
      <point x="372" y="344" type="curve"/>
      <point x="372" y="403"/>
      <point x="372" y="344"/>
      <point x="372" y="403" type="curve"/>
      <point x="293" y="403"/>
      <point x="214" y="403"/>
      <point x="135" y="403" type="curve"/>
      <point x="135" y="344"/>
      <point x="135" y="403"/>
    </contour>
    <contour>
      <point x="125" y="663" type="curve"/>
      <point x="223" y="663"/>
      <point x="319" y="663"/>
      <point x="417" y="663" type="curve"/>
      <point x="417" y="722"/>
      <point x="417" y="663"/>
      <point x="417" y="722" type="curve"/>
      <point x="319" y="722"/>
      <point x="223" y="722"/>
      <point x="125" y="722" type="curve"/>
      <point x="125" y="663"/>
      <point x="125" y="722"/>
    </contour>
    <contour>
      <point x="169" y="0" type="curve"/>
      <point x="169" y="722" type="line"/>
      <point x="95" y="722"/>
      <point x="169" y="722"/>
      <point x="95" y="722" type="curve"/>
      <point x="95" y="481"/>
      <point x="95" y="241"/>
      <point x="95" y="0" type="curve"/>
      <point x="169" y="0"/>
      <point x="95" y="0"/>
    </contour>
    <contour>
      <point x="125" y="0" type="curve"/>
      <point x="231" y="0"/>
      <point x="336" y="0"/>
      <point x="442" y="0" type="curve"/>
      <point x="442" y="59"/>
      <point x="442" y="0"/>
      <point x="442" y="59" type="curve"/>
      <point x="336" y="59"/>
      <point x="231" y="59"/>
      <point x="125" y="59" type="curve"/>
      <point x="125" y="0"/>
      <point x="125" y="59"/>
    </contour>
    <contour>
      <point x="170" y="806" type="line"/>
      <point x="265" y="972" type="line"/>
      <point x="173" y="972" type="line"/>
      <point x="100" y="806" type="line"/>
    </contour>
    <contour>
      <point x="367" y="806" type="line"/>
      <point x="294" y="972" type="line"/>
      <point x="202" y="972" type="line"/>
      <point x="297" y="806" type="line"/>
    </contour>
  </outline>
</glyph>
<glyph name="Edieresis" format="1">
  <advance width="471"/>
  <unicode hex="00CB"/>
  <outline>
    <contour>
      <point x="140" y="344" type="curve"/>
      <point x="219" y="344"/>
      <point x="298" y="344"/>
      <point x="377" y="344" type="curve"/>
      <point x="377" y="403"/>
      <point x="377" y="344"/>
      <point x="377" y="403" type="curve"/>
      <point x="298" y="403"/>
      <point x="219" y="403"/>
      <point x="140" y="403" type="curve"/>
      <point x="140" y="344"/>
      <point x="140" y="403"/>
    </contour>
    <contour>
      <point x="130" y="663" type="curve"/>
      <point x="227" y="663"/>
      <point x="324" y="663"/>
      <point x="422" y="663" type="curve"/>
      <point x="422" y="722"/>
      <point x="422" y="663"/>
      <point x="422" y="722" type="curve"/>
      <point x="324" y="722"/>
      <point x="227" y="722"/>
      <point x="130" y="722" type="curve"/>
      <point x="130" y="663"/>
      <point x="130" y="722"/>
    </contour>
    <contour>
      <point x="174" y="0" type="curve"/>
      <point x="174" y="722" type="line"/>
      <point x="100" y="722"/>
      <point x="174" y="722"/>
      <point x="100" y="722" type="curve"/>
      <point x="100" y="481"/>
      <point x="100" y="241"/>
      <point x="100" y="0" type="curve"/>
      <point x="174" y="0"/>
      <point x="100" y="0"/>
    </contour>
    <contour>
      <point x="130" y="0" type="curve"/>
      <point x="235" y="0"/>
      <point x="341" y="0"/>
      <point x="447" y="0" type="curve"/>
      <point x="447" y="59"/>
      <point x="447" y="0"/>
      <point x="447" y="59" type="curve"/>
      <point x="341" y="59"/>
      <point x="235" y="59"/>
      <point x="130" y="59" type="curve"/>
      <point x="130" y="0"/>
      <point x="130" y="59"/>
    </contour>
    <contour>
      <point x="214" y="842" type="curve"/>
      <point x="214" y="868"/>
      <point x="196" y="882"/>
      <point x="172" y="882" type="curve"/>
      <point x="147" y="882"/>
      <point x="131" y="867"/>
      <point x="131" y="842" type="curve"/>
      <point x="214" y="842"/>
      <point x="131" y="842"/>
      <point x="214" y="842" type="curve"/>
      <point x="214" y="815"/>
      <point x="197" y="802"/>
      <point x="172" y="802" type="curve"/>
      <point x="147" y="802"/>
      <point x="131" y="815"/>
      <point x="131" y="842" type="curve"/>
      <point x="214" y="842"/>
      <point x="131" y="842"/>
    </contour>
    <contour>
      <point x="346" y="842" type="curve"/>
      <point x="346" y="868"/>
      <point x="329" y="882"/>
      <point x="305" y="882" type="curve"/>
      <point x="280" y="882"/>
      <point x="264" y="867"/>
      <point x="264" y="842" type="curve"/>
      <point x="346" y="842"/>
      <point x="264" y="842"/>
      <point x="346" y="842" type="curve"/>
      <point x="346" y="815"/>
      <point x="329" y="802"/>
      <point x="305" y="802" type="curve"/>
      <point x="279" y="802"/>
      <point x="264" y="815"/>
      <point x="264" y="842" type="curve"/>
      <point x="346" y="842"/>
      <point x="264" y="842"/>
    </contour>
  </outline>
</glyph>
<glyph name="Igrave" format="1">
  <advance width="283"/>
  <unicode hex="00CC"/>
  <outline>
    <contour>
      <point x="181" y="0" type="curve"/>
      <point x="181" y="241"/>
      <point x="181" y="481"/>
      <point x="181" y="722" type="curve"/>
      <point x="107" y="722"/>
      <point x="181" y="722"/>
      <point x="107" y="722" type="curve"/>
      <point x="107" y="481"/>
      <point x="107" y="241"/>
      <point x="107" y="0" type="curve"/>
      <point x="181" y="0"/>
      <point x="107" y="0"/>
    </contour>
    <contour>
      <point x="182" y="807" type="line"/>
      <point x="109" y="973" type="line"/>
      <point x="17" y="973" type="line"/>
      <point x="112" y="807" type="line"/>
    </contour>
  </outline>
</glyph>
<glyph name="Iacute" format="1">
  <advance width="278"/>
  <unicode hex="00CD"/>
  <outline>
    <contour>
      <point x="173" y="0" type="curve"/>
      <point x="173" y="241"/>
      <point x="173" y="481"/>
      <point x="173" y="722" type="curve"/>
      <point x="99" y="722"/>
      <point x="173" y="722"/>
      <point x="99" y="722" type="curve"/>
      <point x="99" y="481"/>
      <point x="99" y="241"/>
      <point x="99" y="0" type="curve"/>
      <point x="173" y="0"/>
      <point x="99" y="0"/>
    </contour>
    <contour>
      <point x="171" y="806" type="line"/>
      <point x="266" y="972" type="line"/>
      <point x="174" y="972" type="line"/>
      <point x="101" y="806" type="line"/>
    </contour>
  </outline>
</glyph>
<glyph name="Icircumflex" format="1">
  <advance width="286"/>
  <unicode hex="00CE"/>
  <outline>
    <contour>
      <point x="183" y="0" type="curve"/>
      <point x="183" y="241"/>
      <point x="183" y="481"/>
      <point x="183" y="722" type="curve"/>
      <point x="109" y="722"/>
      <point x="183" y="722"/>
      <point x="109" y="722" type="curve"/>
      <point x="109" y="481"/>
      <point x="109" y="241"/>
      <point x="109" y="0" type="curve"/>
      <point x="183" y="0"/>
      <point x="109" y="0"/>
    </contour>
    <contour>
      <point x="84" y="806" type="line"/>
      <point x="178" y="972" type="line"/>
      <point x="87" y="972" type="line"/>
      <point x="13" y="806" type="line"/>
    </contour>
    <contour>
      <point x="281" y="806" type="line"/>
      <point x="207" y="972" type="line"/>
      <point x="116" y="972" type="line"/>
      <point x="210" y="806" type="line"/>
    </contour>
  </outline>
</glyph>
<glyph name="Idieresis" format="1">
  <advance width="235"/>
  <unicode hex="00CF"/>
  <outline>
    <contour>
      <point x="156" y="0" type="curve"/>
      <point x="156" y="241"/>
      <point x="156" y="481"/>
      <point x="156" y="722" type="curve"/>
      <point x="82" y="722"/>
      <point x="156" y="722"/>
      <point x="82" y="722" type="curve"/>
      <point x="82" y="481"/>
      <point x="82" y="241"/>
      <point x="82" y="0" type="curve"/>
      <point x="156" y="0"/>
      <point x="82" y="0"/>
    </contour>
    <contour>
      <point x="96" y="842" type="curve"/>
      <point x="96" y="868"/>
      <point x="78" y="882"/>
      <point x="54" y="882" type="curve"/>
      <point x="29" y="882"/>
      <point x="13" y="867"/>
      <point x="13" y="842" type="curve"/>
      <point x="96" y="842"/>
      <point x="13" y="842"/>
      <point x="96" y="842" type="curve"/>
      <point x="96" y="815"/>
      <point x="79" y="802"/>
      <point x="54" y="802" type="curve"/>
      <point x="29" y="802"/>
      <point x="13" y="815"/>
      <point x="13" y="842" type="curve"/>
      <point x="96" y="842"/>
      <point x="13" y="842"/>
    </contour>
    <contour>
      <point x="229" y="842" type="curve"/>
      <point x="229" y="868"/>
      <point x="211" y="882"/>
      <point x="187" y="882" type="curve"/>
      <point x="162" y="882"/>
      <point x="146" y="867"/>
      <point x="146" y="842" type="curve"/>
      <point x="229" y="842"/>
      <point x="146" y="842"/>
      <point x="229" y="842" type="curve"/>
      <point x="229" y="815"/>
      <point x="212" y="802"/>
      <point x="187" y="802" type="curve"/>
      <point x="161" y="802"/>
      <point x="146" y="815"/>
      <point x="146" y="842" type="curve"/>
      <point x="229" y="842"/>
      <point x="146" y="842"/>
    </contour>
  </outline>
</glyph>
<glyph name="Eth" format="1">
  <advance width="593"/>
  <unicode hex="00D0"/>
  <outline>
    <contour>
      <point x="98" y="722" type="curve"/>
      <point x="98" y="481"/>
      <point x="98" y="241"/>
      <point x="98" y="0" type="curve"/>
      <point x="172" y="0"/>
      <point x="98" y="0"/>
      <point x="172" y="0" type="curve"/>
      <point x="172" y="241"/>
      <point x="172" y="481"/>
      <point x="172" y="722" type="curve"/>
      <point x="98" y="722"/>
      <point x="172" y="722"/>
    </contour>
    <contour>
      <point x="136" y="0" type="curve"/>
      <point x="182" y="0"/>
      <point x="218" y="0"/>
      <point x="265" y="0" type="curve"/>
      <point x="458" y="0"/>
      <point x="535" y="145"/>
      <point x="535" y="355" type="curve"/>
      <point x="535" y="572"/>
      <point x="457" y="722"/>
      <point x="259" y="722" type="curve"/>
      <point x="216" y="722"/>
      <point x="180" y="722"/>
      <point x="136" y="722" type="curve"/>
      <point x="136" y="671"/>
      <point x="136" y="714"/>
      <point x="136" y="663" type="curve"/>
      <point x="179" y="663"/>
      <point x="213" y="663"/>
      <point x="256" y="663" type="curve"/>
      <point x="414" y="663"/>
      <point x="461" y="531"/>
      <point x="461" y="354" type="curve"/>
      <point x="461" y="186"/>
      <point x="419" y="59"/>
      <point x="272" y="59" type="curve"/>
      <point x="223" y="59"/>
      <point x="184" y="59"/>
      <point x="136" y="59" type="curve"/>
      <point x="136" y="8"/>
      <point x="136" y="51"/>
    </contour>
    <contour>
      <point x="37" y="357" type="curve"/>
      <point x="117" y="357"/>
      <point x="197" y="357"/>
      <point x="276" y="357" type="curve"/>
      <point x="276" y="422"/>
      <point x="276" y="357"/>
      <point x="276" y="422" type="curve"/>
      <point x="197" y="422"/>
      <point x="117" y="422"/>
      <point x="37" y="422" type="curve"/>
      <point x="37" y="357"/>
      <point x="37" y="422"/>
    </contour>
  </outline>
</glyph>
<glyph name="Ntilde" format="1">
  <advance width="666"/>
  <unicode hex="00D1"/>
  <outline>
    <contour>
      <point x="565" y="0" type="curve"/>
      <point x="437" y="241"/>
      <point x="308" y="481"/>
      <point x="180" y="722" type="curve"/>
      <point x="101" y="722"/>
      <point x="180" y="722"/>
      <point x="101" y="722" type="curve"/>
      <point x="229" y="481"/>
      <point x="358" y="241"/>
      <point x="487" y="0" type="curve"/>
      <point x="566" y="0"/>
      <point x="486" y="0"/>
    </contour>
    <contour>
      <point x="491" y="722" type="curve"/>
      <point x="491" y="481"/>
      <point x="491" y="241"/>
      <point x="491" y="0" type="curve"/>
      <point x="565" y="0"/>
      <point x="491" y="0"/>
      <point x="565" y="0" type="curve"/>
      <point x="565" y="241"/>
      <point x="565" y="481"/>
      <point x="565" y="722" type="curve"/>
      <point x="491" y="722"/>
      <point x="565" y="722"/>
    </contour>
    <contour>
      <point x="176" y="0" type="curve"/>
      <point x="176" y="241"/>
      <point x="176" y="481"/>
      <point x="176" y="722" type="curve"/>
      <point x="102" y="722"/>
      <point x="176" y="722"/>
      <point x="102" y="722" type="curve"/>
      <point x="102" y="481"/>
      <point x="102" y="241"/>
      <point x="102" y="0" type="curve"/>
      <point x="176" y="0"/>
      <point x="102" y="0"/>
    </contour>
    <contour>
      <point x="446" y="959" type="curve"/>
      <point x="433" y="915"/>
      <point x="425" y="882"/>
      <point x="399" y="882" type="curve"/>
      <point x="371" y="882"/>
      <point x="359" y="897"/>
      <point x="342" y="919" type="curve"/>
      <point x="320" y="944"/>
      <point x="306" y="962"/>
      <point x="273" y="962" type="curve"/>
      <point x="211" y="962"/>
      <point x="192" y="901"/>
      <point x="178" y="837" type="curve"/>
      <point x="233" y="808"/>
      <point x="178" y="838"/>
      <point x="233" y="808" type="curve"/>
      <point x="246" y="856"/>
      <point x="255" y="887"/>
      <point x="287" y="887" type="curve"/>
      <point x="312" y="887"/>
      <point x="321" y="871"/>
      <point x="335" y="852" type="curve"/>
      <point x="360" y="824"/>
      <point x="377" y="805"/>
      <point x="413" y="805" type="curve"/>
      <point x="475" y="805"/>
      <point x="488" y="867"/>
      <point x="505" y="932" type="curve"/>
      <point x="446" y="959"/>
      <point x="505" y="931"/>
    </contour>
  </outline>
</glyph>
<glyph name="Oacute" format="1">
  <advance width="605"/>
  <unicode hex="00D3"/>
  <outline>
    <contour>
      <point x="131" y="360" type="curve" name="FullCurve"/>
      <point x="131" y="523"/>
      <point x="158" y="665"/>
      <point x="300" y="665" type="curve" name="FullCurve"/>
      <point x="440" y="665"/>
      <point x="474" y="525"/>
      <point x="474" y="363" type="curve" name="FullCurve"/>
      <point x="474" y="201"/>
      <point x="446" y="57"/>
      <point x="304" y="57" type="curve" name="FullCurve"/>
      <point x="163" y="57"/>
      <point x="131" y="197"/>
      <point x="131" y="360" type="curve" name="FullCurve"/>
      <point x="57" y="360"/>
      <point x="131" y="360"/>
      <point x="57" y="360" type="curve" name="FullCurve"/>
      <point x="57" y="157"/>
      <point x="121" y="-5"/>
      <point x="301" y="-5" type="curve" name="FullCurve"/>
      <point x="483" y="-5"/>
      <point x="548" y="159"/>
      <point x="548" y="363" type="curve" name="FullCurve"/>
      <point x="548" y="564"/>
      <point x="485" y="727"/>
      <point x="304" y="727" type="curve" name="FullCurve"/>
      <point x="122" y="727"/>
      <point x="57" y="563"/>
      <point x="57" y="360" type="curve" name="FullCurve"/>
      <point x="131" y="360"/>
      <point x="57" y="360"/>
    </contour>
    <contour>
      <point x="336" y="806" type="line"/>
      <point x="430" y="972" type="line"/>
      <point x="339" y="972" type="line"/>
      <point x="265" y="806" type="line"/>
    </contour>
  </outline>
</glyph>
<glyph name="Otilde" format="1">
  <advance width="605"/>
  <unicode hex="00D5"/>
  <outline>
    <contour>
      <point x="131" y="360" type="curve" name="FullCurve"/>
      <point x="131" y="523"/>
      <point x="158" y="665"/>
      <point x="300" y="665" type="curve" name="FullCurve"/>
      <point x="440" y="665"/>
      <point x="474" y="525"/>
      <point x="474" y="363" type="curve" name="FullCurve"/>
      <point x="474" y="201"/>
      <point x="446" y="57"/>
      <point x="304" y="57" type="curve" name="FullCurve"/>
      <point x="163" y="57"/>
      <point x="131" y="197"/>
      <point x="131" y="360" type="curve" name="FullCurve"/>
      <point x="57" y="360"/>
      <point x="131" y="360"/>
      <point x="57" y="360" type="curve" name="FullCurve"/>
      <point x="57" y="157"/>
      <point x="121" y="-5"/>
      <point x="301" y="-5" type="curve" name="FullCurve"/>
      <point x="483" y="-5"/>
      <point x="548" y="159"/>
      <point x="548" y="363" type="curve" name="FullCurve"/>
      <point x="548" y="564"/>
      <point x="485" y="727"/>
      <point x="304" y="727" type="curve" name="FullCurve"/>
      <point x="122" y="727"/>
      <point x="57" y="563"/>
      <point x="57" y="360" type="curve" name="FullCurve"/>
      <point x="131" y="360"/>
      <point x="57" y="360"/>
    </contour>
    <contour>
      <point x="410" y="959" type="curve"/>
      <point x="398" y="915"/>
      <point x="389" y="882"/>
      <point x="364" y="882" type="curve"/>
      <point x="336" y="882"/>
      <point x="323" y="897"/>
      <point x="306" y="919" type="curve"/>
      <point x="284" y="944"/>
      <point x="270" y="962"/>
      <point x="238" y="962" type="curve"/>
      <point x="176" y="962"/>
      <point x="156" y="901"/>
      <point x="142" y="837" type="curve"/>
      <point x="198" y="808"/>
      <point x="142" y="838"/>
      <point x="198" y="808" type="curve"/>
      <point x="211" y="856"/>
      <point x="220" y="887"/>
      <point x="252" y="887" type="curve"/>
      <point x="276" y="887"/>
      <point x="286" y="871"/>
      <point x="300" y="852" type="curve"/>
      <point x="324" y="824"/>
      <point x="341" y="805"/>
      <point x="377" y="805" type="curve"/>
      <point x="439" y="805"/>
      <point x="452" y="867"/>
      <point x="470" y="932" type="curve"/>
      <point x="410" y="959"/>
      <point x="470" y="931"/>
    </contour>
  </outline>
</glyph>
<glyph name="multiply" format="1">
  <advance width="538"/>
  <unicode hex="00D7"/>
  <outline>
    <contour>
      <point x="101" y="93" type="line"/>
      <point x="482" y="483" type="line"/>
      <point x="438" y="527" type="line"/>
      <point x="57" y="137" type="line"/>
    </contour>
    <contour>
      <point x="482" y="136" type="line"/>
      <point x="101" y="525" type="line"/>
      <point x="57" y="482" type="line"/>
      <point x="438" y="92" type="line"/>
    </contour>
  </outline>
</glyph>
<glyph name="Oslash" format="1">
  <advance width="605"/>
  <unicode hex="00D8"/>
  <outline>
    <contour>
      <point x="171" y="-64" type="line"/>
      <point x="487" y="757" type="line"/>
      <point x="435" y="776" type="line"/>
      <point x="120" y="-41" type="line"/>
    </contour>
    <contour>
      <point x="131" y="360" type="curve" name="FullCurve"/>
      <point x="131" y="523"/>
      <point x="158" y="665"/>
      <point x="300" y="665" type="curve" name="FullCurve"/>
      <point x="440" y="665"/>
      <point x="474" y="525"/>
      <point x="474" y="363" type="curve" name="FullCurve"/>
      <point x="474" y="201"/>
      <point x="446" y="57"/>
      <point x="304" y="57" type="curve" name="FullCurve"/>
      <point x="163" y="57"/>
      <point x="131" y="197"/>
      <point x="131" y="360" type="curve" name="FullCurve"/>
      <point x="57" y="360"/>
      <point x="131" y="360"/>
      <point x="57" y="360" type="curve" name="FullCurve"/>
      <point x="57" y="157"/>
      <point x="121" y="-5"/>
      <point x="301" y="-5" type="curve" name="FullCurve"/>
      <point x="483" y="-5"/>
      <point x="548" y="159"/>
      <point x="548" y="363" type="curve" name="FullCurve"/>
      <point x="548" y="564"/>
      <point x="485" y="727"/>
      <point x="304" y="727" type="curve" name="FullCurve"/>
      <point x="122" y="727"/>
      <point x="57" y="563"/>
      <point x="57" y="360" type="curve" name="FullCurve"/>
      <point x="131" y="360"/>
      <point x="57" y="360"/>
    </contour>
  </outline>
</glyph>
<glyph name="Ugrave" format="1">
  <advance width="616"/>
  <unicode hex="00D9"/>
  <outline>
    <contour>
      <point x="93" y="721" type="curve"/>
      <point x="93" y="578"/>
      <point x="92" y="415"/>
      <point x="93" y="272" type="curve"/>
      <point x="93" y="101"/>
      <point x="149" y="-5"/>
      <point x="307" y="-5" type="curve"/>
      <point x="465" y="-5"/>
      <point x="523" y="101"/>
      <point x="523" y="272" type="curve"/>
      <point x="523" y="416"/>
      <point x="523" y="579"/>
      <point x="523" y="721" type="curve"/>
      <point x="456" y="721"/>
      <point x="523" y="721"/>
      <point x="455" y="721" type="curve"/>
      <point x="455" y="575"/>
      <point x="455" y="410"/>
      <point x="455" y="264" type="curve"/>
      <point x="455" y="143"/>
      <point x="419" y="60"/>
      <point x="312" y="60" type="curve"/>
      <point x="193" y="60"/>
      <point x="161" y="150"/>
      <point x="161" y="283" type="curve"/>
      <point x="161" y="423"/>
      <point x="161" y="583"/>
      <point x="161" y="721" type="curve"/>
      <point x="93" y="721"/>
      <point x="160" y="721"/>
    </contour>
    <contour>
      <point x="348" y="807" type="line"/>
      <point x="274" y="973" type="line"/>
      <point x="183" y="973" type="line"/>
      <point x="277" y="807" type="line"/>
    </contour>
  </outline>
</glyph>
<glyph name="Uacute" format="1">
  <advance width="616"/>
  <unicode hex="00DA"/>
  <outline>
    <contour>
      <point x="93" y="721" type="curve"/>
      <point x="93" y="578"/>
      <point x="92" y="415"/>
      <point x="93" y="272" type="curve"/>
      <point x="93" y="101"/>
      <point x="149" y="-5"/>
      <point x="307" y="-5" type="curve"/>
      <point x="465" y="-5"/>
      <point x="523" y="101"/>
      <point x="523" y="272" type="curve"/>
      <point x="523" y="416"/>
      <point x="523" y="579"/>
      <point x="523" y="721" type="curve"/>
      <point x="456" y="721"/>
      <point x="523" y="721"/>
      <point x="455" y="721" type="curve"/>
      <point x="455" y="575"/>
      <point x="455" y="410"/>
      <point x="455" y="264" type="curve"/>
      <point x="455" y="143"/>
      <point x="419" y="60"/>
      <point x="312" y="60" type="curve"/>
      <point x="193" y="60"/>
      <point x="161" y="150"/>
      <point x="161" y="283" type="curve"/>
      <point x="161" y="423"/>
      <point x="161" y="583"/>
      <point x="161" y="721" type="curve"/>
      <point x="93" y="721"/>
      <point x="160" y="721"/>
    </contour>
    <contour>
      <point x="344" y="806" type="line"/>
      <point x="439" y="972" type="line"/>
      <point x="347" y="972" type="line"/>
      <point x="274" y="806" type="line"/>
    </contour>
  </outline>
</glyph>
